# 3ds Max Wavefront OBJ Exporter v0.99 - (c)2007 guruware
# File Created: 24.04.2025 16:55:28

mtllib arco.mtl

#
# object reja
#

v  -1.6124 -5.2034 -0.0601
v  -1.6124 -4.3793 0.0786
v  -1.7621 -4.3793 -0.0381
v  -1.4627 -4.3793 -0.0381
v  -1.5311 -4.3793 -0.1707
v  -1.5311 7.5696 -0.1707
v  -1.6938 7.5696 -0.1707
v  -0.9827 -5.2034 -0.0601
v  -0.9827 -4.3793 0.0786
v  -1.1324 -4.3793 -0.0381
v  -0.8330 -4.3793 -0.0381
v  -0.8968 -4.3793 -0.1707
v  -0.8968 7.5696 -0.1707
v  -1.0686 7.5696 -0.1707
v  -0.3531 -5.2034 -0.0601
v  -0.3531 -4.3793 0.0786
v  -0.5028 -4.3793 -0.0381
v  -0.2033 -4.3793 -0.0381
v  -0.2708 -4.3793 -0.1707
v  -0.2708 7.5696 -0.1707
v  -0.4353 7.5696 -0.1707
v  -2.8718 -5.2034 -0.0601
v  -2.8718 -4.3793 0.0786
v  -3.0215 -4.3793 -0.0381
v  -2.7221 -4.3793 -0.0381
v  -2.7872 -4.3793 -0.1707
v  -2.7872 7.5696 -0.1707
v  -2.9563 7.5696 -0.1707
v  -2.2421 -5.2034 -0.0601
v  -2.2421 -4.3793 0.0786
v  -2.3918 -4.3793 -0.0381
v  -2.0924 -4.3793 -0.0381
v  -2.1624 -4.3793 -0.1707
v  -2.1624 7.5696 -0.1707
v  -2.3218 7.5696 -0.1707
v  -1.6124 7.5696 0.0786
v  -1.4627 7.5696 -0.0381
v  -0.9827 7.5696 0.0786
v  -0.8330 7.5696 -0.0381
v  -0.3531 7.5696 0.0786
v  -0.2033 7.5696 -0.0381
v  -2.7221 7.5696 -0.0381
v  -2.8718 7.5696 0.0786
v  -4.0496 -4.3793 -0.1707
v  -4.1311 -5.2034 -0.0601
v  -4.2127 -4.3793 -0.1707
v  -3.9814 -4.3793 -0.0381
v  -4.0496 7.5696 -0.1707
v  -3.9814 7.5696 -0.0381
v  -3.4194 -4.3793 -0.1707
v  -3.5015 -5.2034 -0.0601
v  -3.5835 -4.3793 -0.1707
v  -3.3517 -4.3793 -0.0381
v  -3.4194 7.5696 -0.1707
v  -3.3517 7.5696 -0.0381
v  -2.2421 7.5696 0.0786
v  -2.0924 7.5696 -0.0381
v  -4.1311 -4.3793 0.0786
v  -4.2809 -4.3793 -0.0381
v  -4.1311 7.5696 0.0786
v  -3.5015 -4.3793 0.0786
v  -3.6512 -4.3793 -0.0381
v  -3.5015 7.5696 0.0786
v  -2.3218 -4.3793 -0.1707
v  -2.3918 7.5696 -0.0381
v  -3.6512 7.5696 -0.0381
v  -4.2809 7.5696 -0.0381
v  -2.9563 -4.3793 -0.1707
v  -3.0215 7.5696 -0.0381
v  -0.4353 -4.3793 -0.1707
v  -0.5028 7.5696 -0.0381
v  -1.6938 -4.3793 -0.1707
v  -1.7621 7.5696 -0.0381
v  -1.0686 -4.3793 -0.1707
v  -1.1324 7.5696 -0.0381
v  -3.5835 7.5696 -0.1707
v  -4.2127 7.5696 -0.1707
v  2.8336 -5.2034 -0.0601
v  2.8336 -4.3793 0.0786
v  2.6839 -4.3793 -0.0381
v  2.9833 -4.3793 -0.0381
v  2.9149 -4.3793 -0.1707
v  2.9149 7.5696 -0.1707
v  2.7522 7.5696 -0.1707
v  3.4633 -5.2034 -0.0601
v  3.4633 -4.3793 0.0786
v  3.3135 -4.3793 -0.0381
v  3.6130 -4.3793 -0.0381
v  3.5492 -4.3793 -0.1707
v  3.5492 7.5696 -0.1707
v  3.3773 7.5696 -0.1707
v  4.0929 -5.2034 -0.0601
v  4.0929 -4.3793 0.0786
v  3.9432 -4.3793 -0.0381
v  4.2427 -4.3793 -0.0381
v  4.1752 -4.3793 -0.1707
v  4.1752 7.5696 -0.1707
v  4.0107 7.5696 -0.1707
v  1.5742 -5.2034 -0.0601
v  1.5742 -4.3793 0.0786
v  1.4245 -4.3793 -0.0381
v  1.7239 -4.3793 -0.0381
v  1.6588 -4.3793 -0.1707
v  1.6588 7.5696 -0.1707
v  1.4897 7.5696 -0.1707
v  2.2039 -5.2034 -0.0601
v  2.2039 -4.3793 0.0786
v  2.0542 -4.3793 -0.0381
v  2.3536 -4.3793 -0.0381
v  2.2836 -4.3793 -0.1707
v  2.2836 7.5696 -0.1707
v  2.1242 7.5696 -0.1707
v  2.8336 7.5696 0.0786
v  2.9833 7.5696 -0.0381
v  3.4633 7.5696 0.0786
v  3.6130 7.5696 -0.0381
v  4.0929 7.5696 0.0786
v  4.2427 7.5696 -0.0381
v  1.7239 7.5696 -0.0381
v  1.5742 7.5696 0.0786
v  0.3964 -4.3793 -0.1707
v  0.3148 -5.2034 -0.0601
v  0.2333 -4.3793 -0.1707
v  0.4646 -4.3793 -0.0381
v  0.3964 7.5696 -0.1707
v  0.4646 7.5696 -0.0381
v  1.0266 -4.3793 -0.1707
v  0.9445 -5.2034 -0.0601
v  0.8625 -4.3793 -0.1707
v  1.0942 -4.3793 -0.0381
v  1.0266 7.5696 -0.1707
v  1.0942 7.5696 -0.0381
v  2.2039 7.5696 0.0786
v  2.3536 7.5696 -0.0381
v  0.3148 -4.3793 0.0786
v  0.1651 -4.3793 -0.0381
v  0.3148 7.5696 0.0786
v  0.9445 -4.3793 0.0786
v  0.7948 -4.3793 -0.0381
v  0.9445 7.5696 0.0786
v  2.1242 -4.3793 -0.1707
v  2.0542 7.5696 -0.0381
v  0.7948 7.5696 -0.0381
v  0.1651 7.5696 -0.0381
v  1.4897 -4.3793 -0.1707
v  1.4245 7.5696 -0.0381
v  4.0107 -4.3793 -0.1707
v  3.9432 7.5696 -0.0381
v  2.7522 -4.3793 -0.1707
v  2.6839 7.5696 -0.0381
v  3.3773 -4.3793 -0.1707
v  3.3135 7.5696 -0.0381
v  0.8625 7.5696 -0.1707
v  0.2333 7.5696 -0.1707
# 154 vertices

vn 0.0000 -0.9053 -0.4247
vn 0.0000 -0.0815 0.9967
vn -0.9723 -0.0883 0.2164
vn 0.9723 -0.0883 0.2164
vn 0.5171 -0.0800 -0.8522
vn 0.5204 0.0000 -0.8539
vn -0.5204 0.0000 -0.8539
vn 0.0000 -0.9307 -0.3658
vn -0.9691 -0.0881 0.2302
vn 0.9691 -0.0881 0.2302
vn 0.5283 -0.0814 -0.8451
vn 0.5321 0.0000 -0.8467
vn -0.5321 0.0000 -0.8467
vn 0.0000 -0.9105 -0.4136
vn -0.9717 -0.0883 0.2191
vn 0.9717 -0.0883 0.2191
vn 0.5193 -0.0803 -0.8508
vn 0.5227 0.0000 -0.8525
vn -0.5227 0.0000 -0.8525
vn 0.0000 -0.9233 -0.3842
vn -0.9701 -0.0881 0.2261
vn 0.9701 -0.0881 0.2261
vn 0.5250 -0.0810 -0.8472
vn 0.5286 0.0000 -0.8489
vn -0.5286 0.0000 -0.8489
vn 0.0000 -0.8957 -0.4446
vn -0.9734 -0.0883 0.2116
vn 0.9734 -0.0883 0.2116
vn 0.5131 -0.0795 -0.8546
vn 0.5162 0.0000 -0.8564
vn -0.5163 0.0000 -0.8564
vn 0.0000 0.0000 1.0000
vn 0.9767 0.0000 0.2145
vn 0.9737 -0.0000 0.2280
vn 0.9761 0.0000 0.2172
vn 0.9746 -0.0000 0.2239
vn 0.5177 -0.0800 -0.8518
vn 0.0000 -0.9066 -0.4220
vn -0.5177 -0.0800 -0.8518
vn 0.9722 -0.0883 0.2171
vn 0.5210 0.0000 -0.8536
vn 0.9766 0.0000 0.2152
vn 0.5188 -0.0802 -0.8511
vn 0.0000 -0.9092 -0.4163
vn -0.5188 -0.0802 -0.8511
vn 0.9719 -0.0883 0.2184
vn 0.5222 0.0000 -0.8528
vn 0.9763 -0.0000 0.2166
vn 0.9777 -0.0000 0.2098
vn -0.9722 -0.0883 0.2171
vn -0.9719 -0.0883 0.2184
vn -0.5131 -0.0795 -0.8546
vn -0.9777 -0.0000 0.2098
vn 0.0000 -0.9091 -0.4165
vn -0.9763 -0.0000 0.2166
vn -0.9766 0.0000 0.2152
vn -0.5250 -0.0810 -0.8472
vn -0.9746 -0.0000 0.2239
vn -0.5193 -0.0803 -0.8508
vn 0.0000 -0.9106 -0.4134
vn -0.9761 0.0000 0.2172
vn -0.5171 -0.0800 -0.8522
vn -0.9767 0.0000 0.2145
vn -0.5283 -0.0814 -0.8451
vn -0.9737 -0.0000 0.2280
vn -0.5222 0.0000 -0.8528
vn -0.5210 0.0000 -0.8536
vn -0.5210 0.0000 -0.8535
# 68 vertex normals

vt 1.0000 0.0000 0.0000
vt 0.5000 0.0664 0.0000
vt 0.2852 0.0664 0.0000
vt 0.7148 0.0664 0.0000
vt 0.9062 0.0664 0.0000
vt 0.9062 1.0000 0.0000
vt 1.0898 1.0000 0.0000
vt 0.5000 1.0000 0.0000
vt 0.7148 1.0000 0.0000
vt 1.0898 0.0664 0.0000
vt 0.0898 0.0664 0.0000
vt 0.0000 0.0000 0.0000
vt 0.2852 1.0000 0.0000
vt 0.0898 1.0000 0.0000
# 14 texture coords

o reja
g reja
usemtl bars_metal_mstop10_v
s 1
f 1/1/1 2/2/2 3/3/3 
f 1/1/1 4/4/4 2/2/2 
f 5/5/5 4/4/4 1/1/1 
f 5/5/5 6/6/6 4/4/4 
f 7/7/7 6/6/6 5/5/5 
f 8/1/8 9/2/2 10/3/9 
f 8/1/8 11/4/10 9/2/2 
f 12/5/11 11/4/10 8/1/8 
f 12/5/11 13/6/12 11/4/10 
f 14/7/13 13/6/12 12/5/11 
f 15/1/14 16/2/2 17/3/15 
f 15/1/14 18/4/16 16/2/2 
f 19/5/17 18/4/16 15/1/14 
f 19/5/17 20/6/18 18/4/16 
f 21/7/19 20/6/18 19/5/17 
f 22/1/20 23/2/2 24/3/21 
f 22/1/20 25/4/22 23/2/2 
f 26/5/23 25/4/22 22/1/20 
f 26/5/23 27/6/24 25/4/22 
f 28/7/25 27/6/24 26/5/23 
f 29/1/26 30/2/2 31/3/27 
f 29/1/26 32/4/28 30/2/2 
f 33/5/29 32/4/28 29/1/26 
f 33/5/29 34/6/30 32/4/28 
f 35/7/31 34/6/30 33/5/29 
f 2/2/2 36/8/32 3/3/3 
f 2/2/2 37/9/33 36/8/32 
f 4/4/4 37/9/33 2/2/2 
f 4/4/4 6/6/6 37/9/33 
f 9/2/2 38/8/32 10/3/9 
f 9/2/2 39/9/34 38/8/32 
f 11/4/10 39/9/34 9/2/2 
f 11/4/10 13/6/12 39/9/34 
f 16/2/2 40/8/32 17/3/15 
f 16/2/2 41/9/35 40/8/32 
f 18/4/16 41/9/35 16/2/2 
f 18/4/16 20/6/18 41/9/35 
f 42/9/36 25/4/22 27/6/24 
f 42/9/36 23/2/2 25/4/22 
f 43/8/32 23/2/2 42/9/36 
f 43/8/32 24/3/21 23/2/2 
f 44/5/37 45/1/38 46/10/39 
f 44/5/37 47/4/40 45/1/38 
f 48/6/41 47/4/40 44/5/37 
f 48/6/41 49/9/42 47/4/40 
f 50/5/43 51/1/44 52/10/45 
f 50/5/43 53/4/46 51/1/44 
f 54/6/47 53/4/46 50/5/43 
f 54/6/47 55/9/48 53/4/46 
f 30/2/2 56/8/32 31/3/27 
f 30/2/2 57/9/49 56/8/32 
f 32/4/28 57/9/49 30/2/2 
f 32/4/28 34/6/30 57/9/49 
f 58/2/2 59/3/50 45/1/38 
f 58/2/2 60/8/32 59/3/50 
f 49/9/42 60/8/32 58/2/2 
f 61/2/2 62/3/51 51/1/44 
f 61/2/2 63/8/32 62/3/51 
f 55/9/48 63/8/32 61/2/2 
f 31/3/27 64/11/52 29/12/26 
f 31/3/27 65/13/53 64/11/52 
f 56/8/32 65/13/53 31/3/27 
f 62/3/51 52/11/45 51/12/54 
f 62/3/51 66/13/55 52/11/45 
f 63/8/32 66/13/55 62/3/51 
f 59/3/50 46/11/39 45/12/38 
f 59/3/50 67/13/56 46/11/39 
f 60/8/32 67/13/56 59/3/50 
f 24/3/21 68/11/57 22/12/20 
f 24/3/21 69/13/58 68/11/57 
f 43/8/32 69/13/58 24/3/21 
f 17/3/15 70/11/59 15/12/60 
f 17/3/15 71/13/61 70/11/59 
f 40/8/32 71/13/61 17/3/15 
f 3/3/3 72/11/62 1/12/1 
f 3/3/3 73/13/63 72/11/62 
f 36/8/32 73/13/63 3/3/3 
f 10/3/9 74/11/64 8/12/8 
f 10/3/9 75/13/65 74/11/64 
f 38/8/32 75/13/65 10/3/9 
f 64/10/52 33/5/29 29/1/26 
f 64/10/52 35/7/31 33/5/29 
f 72/10/62 5/5/5 1/1/1 
f 72/10/62 7/7/7 5/5/5 
f 76/7/66 50/5/43 52/10/45 
f 76/7/66 54/6/47 50/5/43 
f 53/4/46 61/2/2 51/1/44 
f 53/4/46 55/9/48 61/2/2 
f 74/10/64 12/5/11 8/1/8 
f 74/10/64 14/7/13 12/5/11 
f 77/7/67 44/5/37 46/10/39 
f 77/7/67 48/6/41 44/5/37 
f 47/4/40 58/2/2 45/1/38 
f 47/4/40 49/9/42 58/2/2 
f 68/10/57 26/5/23 22/1/20 
f 68/10/57 28/7/25 26/5/23 
f 70/10/59 19/5/17 15/1/14 
f 70/10/59 21/7/19 19/5/17 
f 52/11/45 66/13/55 76/14/66 
f 68/11/57 69/13/58 28/14/25 
f 70/11/59 71/13/61 21/14/19 
f 74/11/64 75/13/65 14/14/13 
f 46/11/39 67/13/56 77/14/68 
f 72/11/62 73/13/63 7/14/7 
f 64/11/52 65/13/53 35/14/31 
f 78/1/1 79/2/2 80/3/3 
f 78/1/1 81/4/4 79/2/2 
f 82/5/5 81/4/4 78/1/1 
f 82/5/5 83/6/6 81/4/4 
f 84/7/7 83/6/6 82/5/5 
f 85/1/8 86/2/2 87/3/9 
f 85/1/8 88/4/10 86/2/2 
f 89/5/11 88/4/10 85/1/8 
f 89/5/11 90/6/12 88/4/10 
f 91/7/13 90/6/12 89/5/11 
f 92/1/14 93/2/2 94/3/15 
f 92/1/14 95/4/16 93/2/2 
f 96/5/17 95/4/16 92/1/14 
f 96/5/17 97/6/18 95/4/16 
f 98/7/19 97/6/18 96/5/17 
f 99/1/20 100/2/2 101/3/21 
f 99/1/20 102/4/22 100/2/2 
f 103/5/23 102/4/22 99/1/20 
f 103/5/23 104/6/24 102/4/22 
f 105/7/25 104/6/24 103/5/23 
f 106/1/26 107/2/2 108/3/27 
f 106/1/26 109/4/28 107/2/2 
f 110/5/29 109/4/28 106/1/26 
f 110/5/29 111/6/30 109/4/28 
f 112/7/31 111/6/30 110/5/29 
f 79/2/2 113/8/32 80/3/3 
f 79/2/2 114/9/33 113/8/32 
f 81/4/4 114/9/33 79/2/2 
f 81/4/4 83/6/6 114/9/33 
f 86/2/2 115/8/32 87/3/9 
f 86/2/2 116/9/34 115/8/32 
f 88/4/10 116/9/34 86/2/2 
f 88/4/10 90/6/12 116/9/34 
f 93/2/2 117/8/32 94/3/15 
f 93/2/2 118/9/35 117/8/32 
f 95/4/16 118/9/35 93/2/2 
f 95/4/16 97/6/18 118/9/35 
f 119/9/36 102/4/22 104/6/24 
f 119/9/36 100/2/2 102/4/22 
f 120/8/32 100/2/2 119/9/36 
f 120/8/32 101/3/21 100/2/2 
f 121/5/37 122/1/38 123/10/39 
f 121/5/37 124/4/40 122/1/38 
f 125/6/41 124/4/40 121/5/37 
f 125/6/41 126/9/42 124/4/40 
f 127/5/43 128/1/44 129/10/45 
f 127/5/43 130/4/46 128/1/44 
f 131/6/47 130/4/46 127/5/43 
f 131/6/47 132/9/48 130/4/46 
f 107/2/2 133/8/32 108/3/27 
f 107/2/2 134/9/49 133/8/32 
f 109/4/28 134/9/49 107/2/2 
f 109/4/28 111/6/30 134/9/49 
f 135/2/2 136/3/50 122/1/38 
f 135/2/2 137/8/32 136/3/50 
f 126/9/42 137/8/32 135/2/2 
f 138/2/2 139/3/51 128/1/44 
f 138/2/2 140/8/32 139/3/51 
f 132/9/48 140/8/32 138/2/2 
f 108/3/27 141/11/52 106/12/26 
f 108/3/27 142/13/53 141/11/52 
f 133/8/32 142/13/53 108/3/27 
f 139/3/51 129/11/45 128/12/54 
f 139/3/51 143/13/55 129/11/45 
f 140/8/32 143/13/55 139/3/51 
f 136/3/50 123/11/39 122/12/38 
f 136/3/50 144/13/56 123/11/39 
f 137/8/32 144/13/56 136/3/50 
f 101/3/21 145/11/57 99/12/20 
f 101/3/21 146/13/58 145/11/57 
f 120/8/32 146/13/58 101/3/21 
f 94/3/15 147/11/59 92/12/60 
f 94/3/15 148/13/61 147/11/59 
f 117/8/32 148/13/61 94/3/15 
f 80/3/3 149/11/62 78/12/1 
f 80/3/3 150/13/63 149/11/62 
f 113/8/32 150/13/63 80/3/3 
f 87/3/9 151/11/64 85/12/8 
f 87/3/9 152/13/65 151/11/64 
f 115/8/32 152/13/65 87/3/9 
f 141/10/52 110/5/29 106/1/26 
f 141/10/52 112/7/31 110/5/29 
f 149/10/62 82/5/5 78/1/1 
f 149/10/62 84/7/7 82/5/5 
f 153/7/66 127/5/43 129/10/45 
f 153/7/66 131/6/47 127/5/43 
f 130/4/46 138/2/2 128/1/44 
f 130/4/46 132/9/48 138/2/2 
f 151/10/64 89/5/11 85/1/8 
f 151/10/64 91/7/13 89/5/11 
f 154/7/67 121/5/37 123/10/39 
f 154/7/67 125/6/41 121/5/37 
f 124/4/40 135/2/2 122/1/38 
f 124/4/40 126/9/42 135/2/2 
f 145/10/57 103/5/23 99/1/20 
f 145/10/57 105/7/25 103/5/23 
f 147/10/59 96/5/17 92/1/14 
f 147/10/59 98/7/19 96/5/17 
f 129/11/45 143/13/55 153/14/66 
f 145/11/57 146/13/58 105/14/25 
f 147/11/59 148/13/61 98/14/19 
f 151/11/64 152/13/65 91/14/13 
f 123/11/39 144/13/56 154/14/68 
f 149/11/62 150/13/63 84/14/7 
f 141/11/52 142/13/53 112/14/31 
# 210 faces

#
# object arco
#

v  -7.1161 -2.3650 1.4227
v  -4.2708 -2.3650 1.4227
v  -4.2708 0.3673 1.4227
v  -7.1161 0.3673 1.4227
v  -4.2708 -5.2103 1.4227
v  -7.1161 -5.2103 1.4227
v  -7.1161 -2.3650 -1.4227
v  -7.1161 -5.2103 -1.4227
v  -4.2708 -5.2103 -1.4227
v  -4.2708 -2.3650 -1.4227
v  -4.2708 0.3673 -1.4227
v  -7.1161 0.3673 -1.4227
v  -6.8672 3.5368 -1.4227
v  -4.0736 2.9968 -1.4227
v  -6.8672 3.5368 1.4227
v  -5.8361 6.6538 1.4227
v  -5.8361 6.6538 -1.4227
v  -4.0736 2.9968 1.4227
v  -3.4055 9.0302 1.4227
v  -3.4055 9.0302 -1.4227
v  -3.2395 5.4902 1.4227
v  -3.2395 5.4902 -1.4227
v  -1.9443 6.5887 -1.4227
v  -1.9443 6.5887 1.4227
v  0.0000 9.9487 -1.4227
v  0.0000 7.1034 -1.4227
v  0.0000 7.1034 1.4227
v  0.0000 9.9487 1.4227
v  7.1161 -2.3650 1.4227
v  7.1161 0.3673 1.4227
v  4.2708 0.3673 1.4227
v  4.2708 -2.3650 1.4227
v  4.2708 -5.2103 1.4227
v  7.1161 -5.2103 1.4227
v  7.1161 -5.2103 -1.4227
v  7.1161 -2.3650 -1.4227
v  4.2708 -5.2103 -1.4227
v  4.2708 -2.3650 -1.4227
v  4.2708 0.3673 -1.4227
v  4.0736 2.9968 -1.4227
v  6.8672 3.5368 -1.4227
v  7.1161 0.3673 -1.4227
v  5.8361 6.6538 -1.4227
v  5.8361 6.6538 1.4227
v  6.8672 3.5368 1.4227
v  4.0736 2.9968 1.4227
v  3.4055 9.0302 -1.4227
v  3.4055 9.0302 1.4227
v  3.2395 5.4902 1.4227
v  3.2395 5.4902 -1.4227
v  1.9443 6.5887 -1.4227
v  1.9443 6.5887 1.4227
# 52 vertices

vn 0.0000 -0.0000 1.0000
vn -1.0000 0.0000 -0.0000
vn 0.0000 -1.0000 -0.0000
vn 1.0000 0.0000 -0.0000
vn 0.0000 0.0000 -1.0000
vn -0.9992 0.0392 0.0000
vn 0.9993 -0.0374 -0.0000
vn -0.9803 0.1976 0.0000
vn -0.8483 0.5295 0.0000
vn 0.9803 -0.1975 -0.0000
vn -0.4958 0.8684 0.0000
vn 0.8281 -0.5606 -0.0000
vn 0.4627 -0.8865 -0.0000
vn 0.0000 1.0000 0.0000
vn 0.9992 0.0392 0.0000
vn -0.9993 -0.0374 -0.0000
vn 0.9803 0.1976 0.0000
vn 0.8483 0.5295 0.0000
vn -0.9803 -0.1975 -0.0000
vn 0.4958 0.8684 0.0000
vn -0.0000 -0.0000 1.0000
vn -0.8281 -0.5606 -0.0000
vn -0.0000 0.0000 -1.0000
vn -0.4627 -0.8865 -0.0000
# 24 vertex normals

vt 0.2808 0.8640 0.0000
vt 0.2851 0.7531 0.0000
vt 0.3964 0.7564 0.0000
vt 0.3852 0.8695 0.0000
vt 0.1752 0.7523 0.0000
vt 0.1728 0.8604 0.0000
vt 0.2764 0.9717 0.0000
vt 0.1690 0.9677 0.0000
vt 0.0647 0.8579 0.0000
vt 0.0671 0.7498 0.0000
vt 0.1742 0.6440 0.0000
vt 0.2843 0.6410 0.0000
vt 0.1703 0.5361 0.0000
vt 0.2782 0.5322 0.0000
vt 0.3948 0.6362 0.0000
vt 0.3804 0.5234 0.0000
vt 0.4999 0.5087 0.0000
vt 0.5110 0.6312 0.0000
vt 0.3792 0.9761 0.0000
vt 0.4973 0.9823 0.0000
vt 0.5028 0.8798 0.0000
vt 0.6184 0.8849 0.0000
vt 0.6176 0.9841 0.0000
vt 0.5126 0.7593 0.0000
vt 0.7288 0.8777 0.0000
vt 0.7387 0.9762 0.0000
vt 0.6362 0.7686 0.0000
vt 0.6262 0.5014 0.0000
vt 0.6356 0.6264 0.0000
vt 0.7480 0.5183 0.0000
vt 0.7176 0.6335 0.0000
vt 0.7154 0.7694 0.0000
vt 0.8646 0.5667 0.0000
vt 0.8054 0.6530 0.0000
vt 0.7981 0.7615 0.0000
vt 0.8442 0.8516 0.0000
vt 0.8646 0.9545 0.0000
vt 0.2796 0.1274 0.0000
vt 0.3839 0.1219 0.0000
vt 0.3952 0.2350 0.0000
vt 0.2838 0.2383 0.0000
vt 0.1740 0.2391 0.0000
vt 0.1715 0.1310 0.0000
vt 0.1677 0.0236 0.0000
vt 0.2752 0.0197 0.0000
vt 0.0635 0.1335 0.0000
vt 0.0659 0.2416 0.0000
vt 0.1730 0.3474 0.0000
vt 0.2830 0.3504 0.0000
vt 0.1690 0.4553 0.0000
vt 0.2769 0.4592 0.0000
vt 0.3936 0.3551 0.0000
vt 0.5098 0.3602 0.0000
vt 0.4986 0.4826 0.0000
vt 0.3791 0.4680 0.0000
vt 0.3780 0.0152 0.0000
vt 0.4961 0.0091 0.0000
vt 0.6163 0.0073 0.0000
vt 0.6172 0.1065 0.0000
vt 0.5016 0.1116 0.0000
vt 0.5114 0.2321 0.0000
vt 0.7375 0.0152 0.0000
vt 0.7276 0.1137 0.0000
vt 0.6349 0.2228 0.0000
vt 0.6344 0.3650 0.0000
vt 0.6249 0.4900 0.0000
vt 0.7163 0.3579 0.0000
vt 0.7468 0.4731 0.0000
vt 0.7141 0.2220 0.0000
vt 0.8041 0.3384 0.0000
vt 0.8634 0.4246 0.0000
vt 0.7968 0.2299 0.0000
vt 0.8634 0.0368 0.0000
vt 0.8430 0.1398 0.0000
# 74 texture coords

o arco
g arco
usemtl 20___Default
s off
f 155/15/69 156/16/69 157/17/69 
f 157/17/69 158/18/69 155/15/69 
f 159/19/69 156/16/69 155/15/69 
f 155/15/69 160/20/69 159/19/69 
f 160/20/70 155/15/70 161/21/70 
f 161/21/70 162/22/70 160/20/70 
f 162/23/71 163/24/71 159/19/71 
f 159/19/71 160/20/71 162/23/71 
f 163/25/72 164/26/72 156/16/72 
f 156/16/72 159/19/72 163/25/72 
f 162/27/73 161/28/73 164/26/73 
f 164/26/73 163/25/73 162/27/73 
f 165/29/73 166/30/73 167/31/73 
f 167/31/73 168/32/73 165/29/73 
f 161/21/70 155/15/70 158/18/74 
f 158/18/74 166/33/74 161/21/70 
f 156/16/72 164/26/72 165/29/75 
f 165/29/75 157/17/75 156/16/72 
f 164/26/73 161/28/73 166/30/73 
f 166/30/73 165/29/73 164/26/73 
f 167/34/76 169/35/76 170/36/77 
f 170/36/77 171/37/77 167/34/76 
f 157/17/75 165/29/75 168/32/78 
f 168/32/78 172/38/78 157/17/75 
f 166/33/74 158/18/74 169/35/76 
f 169/35/76 167/34/76 166/33/74 
f 158/18/69 157/17/69 172/38/69 
f 172/38/69 169/35/69 158/18/69 
f 171/37/77 170/36/77 173/39/79 
f 173/39/79 174/40/79 171/37/77 
f 169/35/69 172/38/69 175/41/69 
f 175/41/69 170/36/69 169/35/69 
f 168/32/73 167/31/73 171/42/73 
f 171/42/73 176/43/73 168/32/73 
f 172/38/78 168/32/78 176/43/80 
f 176/43/80 175/41/80 172/38/78 
f 176/43/73 171/42/73 174/44/73 
f 174/44/73 177/45/73 176/43/73 
f 175/41/80 176/43/80 177/45/81 
f 177/45/81 178/46/81 175/41/80 
f 177/45/73 174/44/73 179/47/73 
f 179/47/73 180/48/73 177/45/73 
f 178/46/81 177/45/81 180/48/71 
f 180/48/71 181/49/71 178/46/81 
f 174/40/79 173/39/79 182/50/82 
f 182/50/82 179/51/82 174/40/79 
f 183/52/69 184/53/69 185/54/69 
f 185/54/69 186/55/69 183/52/69 
f 187/56/69 188/57/69 183/52/69 
f 183/52/69 186/55/69 187/56/69 
f 188/57/72 189/58/72 190/59/72 
f 190/59/72 183/52/72 188/57/72 
f 189/60/71 188/57/71 187/56/71 
f 187/56/71 191/61/71 189/60/71 
f 191/62/70 187/56/70 186/55/70 
f 186/55/70 192/63/70 191/62/70 
f 189/64/73 191/62/73 192/63/73 
f 192/63/73 190/65/73 189/64/73 
f 193/66/73 194/67/73 195/68/73 
f 195/68/73 196/69/73 193/66/73 
f 190/59/72 196/70/83 184/53/83 
f 184/53/83 183/52/72 190/59/72 
f 186/55/70 185/54/84 193/66/84 
f 193/66/84 192/63/70 186/55/70 
f 192/63/73 193/66/73 196/69/73 
f 196/69/73 190/65/73 192/63/73 
f 195/71/85 197/72/86 198/73/86 
f 198/73/86 199/74/85 195/71/85 
f 185/54/84 200/75/87 194/67/87 
f 194/67/87 193/66/84 185/54/84 
f 196/70/83 195/71/85 199/74/85 
f 199/74/85 184/53/83 196/70/83 
f 184/53/69 199/74/69 200/75/69 
f 200/75/69 185/54/69 184/53/69 
f 197/72/86 201/76/88 202/77/88 
f 202/77/88 198/73/86 197/72/86 
f 199/74/69 198/73/89 203/78/89 
f 203/78/89 200/75/69 199/74/69 
f 194/67/73 204/79/73 197/80/73 
f 197/80/73 195/68/73 194/67/73 
f 200/75/87 203/78/90 204/79/90 
f 204/79/90 194/67/87 200/75/87 
f 204/79/73 205/81/91 201/82/91 
f 201/82/91 197/80/73 204/79/73 
f 203/78/90 206/83/92 205/81/92 
f 205/81/92 204/79/90 203/78/90 
f 205/81/91 180/84/73 179/85/73 
f 179/85/73 201/82/91 205/81/91 
f 206/83/92 181/86/71 180/84/71 
f 180/84/71 205/81/92 206/83/92 
f 201/76/88 179/87/82 182/88/82 
f 182/88/82 202/77/88 201/76/88 
f 170/36/69 175/41/69 178/46/69 
f 178/46/69 173/39/69 170/36/69 
f 173/39/69 178/46/69 181/49/69 
f 181/49/69 182/50/69 173/39/69 
f 198/73/89 202/77/89 206/83/89 
f 206/83/89 203/78/89 198/73/89 
f 202/77/89 182/88/69 181/86/69 
f 181/86/69 206/83/89 202/77/89 
# 100 faces

