# 3ds Max Wavefront OBJ Exporter v0.99 - (c)2007 guruware
# File Created: 01.04.2025 00:00:50

mtllib cofre.mtl

#
# object Cofre
#

v  3.2595 0.0254 -0.1162
v  3.2690 0.0265 -0.1040
v  3.2722 0.0228 -0.1185
v  3.2604 0.0287 -0.1078
v  3.2480 0.0266 -0.1077
v  3.2517 0.0297 -0.1041
v  3.1467 0.0282 -0.0098
v  3.1495 0.0311 -0.0054
v  3.0159 0.0337 0.1015
v  3.0192 0.0367 0.1054
v  2.9086 0.0438 0.1869
v  2.9054 0.0407 0.1831
v  2.7956 0.0526 0.2575
v  2.7924 0.0494 0.2537
v  2.6098 0.0681 0.3496
v  2.6076 0.0648 0.3454
v  2.4269 0.0825 0.4178
v  2.4253 0.0789 0.4132
v  2.2770 0.0922 0.4605
v  2.2754 0.0886 0.4561
v  2.1329 0.0995 0.4934
v  2.1290 0.0958 0.4895
v  2.1281 0.0996 0.4944
v  2.1057 0.0965 0.4943
v  2.1071 0.1001 0.4987
v  2.0232 0.0525 0.9535
v  2.0148 0.0517 0.9558
v  1.9060 -0.0033 1.4246
v  1.8941 -0.0052 1.4270
v  1.9922 0.0504 0.9587
v  1.8699 -0.0089 1.4298
v  1.7512 -0.0858 2.0145
v  1.7361 -0.0890 2.0164
v  1.5791 -0.1893 2.6278
v  1.5618 -0.1935 2.6288
v  1.3984 -0.3122 3.2226
v  1.3799 -0.3170 3.2241
v  1.7333 -0.0904 2.0168
v  1.7078 -0.0962 2.0203
v  1.5565 -0.1967 2.6291
v  1.5314 -0.2034 2.6309
v  1.3728 -0.3216 3.2242
v  1.3477 -0.3287 3.2260
v  1.1836 -0.4697 3.7883
v  1.1581 -0.4764 3.7879
v  1.0830 -0.5598 4.0642
v  1.0579 -0.5667 4.0638
v  1.2071 -0.4614 3.7902
v  1.1901 -0.4655 3.7882
v  1.1059 -0.5519 4.0650
v  1.0879 -0.5567 4.0648
v  0.9777 -0.6650 4.3326
v  0.9515 -0.6734 4.3336
v  0.8647 -0.7912 4.5948
v  0.8376 -0.8017 4.5960
v  0.7448 -0.9407 4.8468
v  0.7198 -0.9494 4.8409
v  0.7418 -0.9495 4.8549
v  0.7568 -0.9475 4.8565
v  0.7609 -0.9377 4.8482
v  0.7146 -0.9593 4.8490
v  0.8843 -0.7845 4.5939
v  0.9796 -0.6636 4.3326
v  0.9991 -0.6576 4.3325
v  0.4529 -0.9495 4.8560
v  0.4496 -0.9594 4.8638
v  0.1862 -0.9493 4.8647
v  0.1861 -0.9593 4.8724
v  -0.0767 -0.9493 4.8675
v  -0.0767 -0.9592 4.8753
v  1.0590 -0.9465 4.8296
v  1.0604 -0.9364 4.8215
v  1.3259 -0.9501 4.7915
v  1.3282 -0.9401 4.7830
v  1.6211 -0.9578 4.7300
v  1.6196 -0.9481 4.7222
v  1.8919 -0.9678 4.6539
v  1.8944 -0.9587 4.6444
v  2.0455 -0.9721 4.6056
v  2.0476 -0.9629 4.5962
v  2.2027 -0.9675 4.5708
v  2.2053 -0.9585 4.5612
v  2.2727 -0.9646 4.5547
v  2.2742 -0.9556 4.5451
v  2.3294 -0.9637 4.5384
v  2.3364 -0.9542 4.5273
v  2.3417 -0.9640 4.5316
v  2.3506 -0.9549 4.5192
v  2.3566 -0.9678 4.5202
v  2.3676 -0.9575 4.5061
v  2.4824 -0.9864 4.4227
v  2.4911 -0.9761 4.4092
v  2.4511 -0.8478 4.2846
v  2.4638 -0.8500 4.2785
v  2.5508 -0.7553 4.0399
v  2.5634 -0.7579 4.0338
v  2.6160 -0.9964 4.3407
v  2.6232 -0.9868 4.3281
v  2.8960 -1.0089 4.1810
v  2.8975 -0.9988 4.1715
v  3.1556 -1.0218 4.0193
v  3.1655 -1.0121 4.0043
v  3.1719 -1.0264 3.9975
v  3.1703 -1.0111 3.9989
v  3.2359 -0.9720 3.8432
v  3.2338 -0.9571 3.8479
v  3.2925 -0.9098 3.6600
v  3.2904 -0.8951 3.6628
v  2.6412 -0.6721 3.7873
v  2.6534 -0.6756 3.7818
v  2.7219 -0.5979 3.5308
v  2.7334 -0.6017 3.5261
v  2.8605 -0.4710 3.0100
v  2.8718 -0.4758 3.0065
v  2.9774 -0.3643 2.4800
v  2.9889 -0.3696 2.4762
v  3.1029 -0.2491 1.8091
v  3.1152 -0.2556 1.8054
v  3.1991 -0.1601 1.2211
v  3.2125 -0.1679 1.2187
v  3.2919 -0.0729 0.5800
v  3.3072 -0.0830 0.5799
v  3.3390 -0.8512 3.4681
v  3.3369 -0.8368 3.4709
v  3.3771 -0.7984 3.2740
v  3.3753 -0.7834 3.2763
v  3.4398 -0.6962 2.8388
v  3.4377 -0.6816 2.8419
v  3.4786 -0.5942 2.3928
v  3.4807 -0.6094 2.3908
v  3.4909 -0.5827 2.2380
v  3.4889 -0.5675 2.2390
v  3.5045 -0.5415 1.9860
v  3.5028 -0.5261 1.9870
v  3.5158 -0.5024 1.7328
v  3.5140 -0.4872 1.7336
v  3.5254 -0.4636 1.4656
v  3.5238 -0.4485 1.4669
v  3.5345 -0.4213 1.1571
v  3.5331 -0.4059 1.1574
v  3.5416 -0.3823 0.8588
v  3.5405 -0.3669 0.8597
v  3.5472 -0.3454 0.5639
v  3.5466 -0.3300 0.5648
v  3.5526 -0.3027 0.2098
v  3.5524 -0.2875 0.2108
v  3.5490 -0.2834 0.2033
v  3.5437 -0.2869 0.1863
v  3.5367 -0.2714 0.1952
v  3.5349 -0.2752 0.1805
v  3.4707 -0.2008 0.1450
v  3.4662 -0.2021 0.1282
v  3.4199 -0.1044 0.0826
v  3.4156 -0.1058 0.0656
v  3.3793 -0.0166 0.0218
v  3.3760 -0.0185 0.0047
v  3.3637 -0.0030 0.0058
v  3.3639 -0.0063 -0.0123
v  3.3088 0.0130 -0.0581
v  3.3138 0.0086 -0.0703
v  3.2080 0.0136 0.0398
v  3.1104 0.0100 0.1632
v  3.2021 -0.0094 0.2215
v  3.1046 -0.0175 0.3804
v  3.0109 0.0008 0.3290
v  3.2873 -0.0044 0.0963
v  2.9217 -0.0108 0.5008
v  3.0202 -0.0290 0.5488
v  2.8418 -0.0266 0.6894
v  2.9473 -0.0444 0.7291
v  2.8890 -0.0652 0.9259
v  2.7697 -0.0480 0.8988
v  2.8465 -0.0876 1.1091
v  2.7166 -0.0726 1.1000
v  2.8107 -0.1125 1.2939
v  2.6746 -0.1023 1.3122
v  2.7040 -0.2001 1.8696
v  2.5607 -0.1920 1.8921
v  2.5875 -0.3204 2.5289
v  2.4461 -0.3123 2.5411
v  2.4943 -0.4393 3.0668
v  2.3483 -0.4349 3.0902
v  2.7353 -0.0004 0.6487
v  2.6531 -0.0218 0.8708
v  2.7480 0.0284 0.4605
v  2.4093 0.0749 0.4912
v  2.3236 0.0283 0.9044
v  2.5882 -0.0474 1.0931
v  2.2141 -0.0309 1.3804
v  2.0813 -0.1159 1.9640
v  1.9326 -0.2266 2.5990
v  1.7858 -0.3494 3.1800
v  1.6416 -0.4965 3.7359
v  1.5633 -0.5835 4.0073
v  2.0479 -0.6437 3.9122
v  2.0994 -0.5588 3.6498
v  2.2022 -0.4133 3.1150
v  2.3042 -0.2900 2.5625
v  2.4279 -0.1702 1.9098
v  2.5380 -0.0796 1.3281
v  1.4897 -0.6839 4.2716
v  1.4138 -0.8037 4.5344
v  1.9443 -0.8424 4.4122
v  1.9975 -0.7339 4.1575
v  2.1015 -0.8548 4.3712
v  2.1536 -0.7513 4.1229
v  2.2530 -0.8514 4.3366
v  2.3017 -0.7516 4.0953
v  2.2012 -0.6617 3.8773
v  2.2487 -0.5795 3.6224
v  2.3494 -0.6634 3.8512
v  2.3971 -0.5805 3.5917
v  2.5660 -0.5836 3.5621
v  2.6842 -0.4476 3.0377
v  2.4992 -0.6634 3.8215
v  2.7866 -0.3334 2.5036
v  2.9123 -0.2160 1.8358
v  3.0164 -0.1305 1.2569
v  3.1403 -0.0454 0.5628
v  2.4311 -0.7497 4.0681
v  2.3559 -0.8469 4.3108
v  0.6443 0.1197 0.6976
v  0.2843 0.1256 0.7206
v  0.6448 0.1234 0.7022
v  0.2835 0.1219 0.7158
v  1.0105 0.1197 0.6708
v  1.0103 0.1161 0.6662
v  1.3750 0.1110 0.6217
v  1.3762 0.1145 0.6264
v  1.7395 0.1043 0.5642
v  1.7402 0.1081 0.5687
v  -0.0767 0.1264 0.7266
v  -0.0767 0.1227 0.7219
v  0.6081 0.0766 1.0992
v  1.2952 0.0677 1.0394
v  1.2132 0.0070 1.5054
v  1.1047 -0.0803 2.0809
v  0.9839 -0.1876 2.6758
v  0.8628 -0.3161 3.2660
v  0.7420 -0.4666 3.8163
v  0.6737 -0.5580 4.0855
v  0.5657 0.0145 1.5653
v  -0.0767 0.0802 1.1150
v  -0.0767 0.0163 1.5901
v  0.5131 -0.0723 2.1250
v  -0.0767 -0.0692 2.1377
v  0.4457 -0.1794 2.7085
v  -0.0767 -0.1771 2.7204
v  0.3900 -0.3095 3.2923
v  -0.0767 -0.3062 3.2966
v  0.3309 -0.4617 3.8357
v  -0.0767 -0.4609 3.8447
v  0.2982 -0.5531 4.0988
v  -0.0767 -0.5525 4.1060
v  0.2625 -0.6608 4.3571
v  -0.0767 -0.6595 4.3608
v  0.2250 -0.7937 4.6172
v  -0.0767 -0.7962 4.6258
v  0.5312 -0.7955 4.6073
v  0.6070 -0.6652 4.3476
v  2.8237 0.0151 0.4535
v  2.9174 0.0266 0.2779
v  3.3491 -0.1444 0.5750
v  3.3347 -0.3049 1.1877
v  3.4199 -0.2392 0.5693
v  3.2486 -0.2106 1.2064
v  3.2446 -0.3778 1.7678
v  3.1464 -0.2868 1.7936
v  3.1220 -0.4774 2.4370
v  3.0165 -0.3939 2.4666
v  3.0087 -0.5694 2.9520
v  2.8986 -0.4964 2.9958
v  2.8724 -0.6784 3.4555
v  2.7604 -0.6180 3.5113
v  2.7904 -0.7381 3.6962
v  2.6794 -0.6889 3.7658
v  2.9249 -0.7633 3.6385
v  3.0012 -0.7074 3.4128
v  3.1392 -0.6056 2.9204
v  3.2512 -0.5216 2.4184
v  3.3689 -0.4306 1.7513
v  3.4486 -0.3646 1.1701
v  3.5102 -0.3047 0.5659
v  2.7086 -0.8094 3.9329
v  2.5894 -0.7673 4.0147
v  2.6010 -0.8926 4.1862
v  2.4856 -0.8565 4.2629
v  2.7270 -0.9102 4.1214
v  2.8365 -0.8294 3.8720
v  3.2903 -0.6378 2.8813
v  3.3656 -0.5537 2.4061
v  3.4280 -0.4509 1.7437
v  3.4717 -0.3748 1.1669
v  3.1935 -0.7389 3.3458
v  3.1393 -0.7934 3.5555
v  3.0685 -0.8552 3.7700
v  2.9864 -0.9281 3.9854
v  -3.4224 0.0265 -0.1040
v  -3.4128 0.0254 -0.1162
v  -3.4255 0.0228 -0.1185
v  -3.4137 0.0287 -0.1078
v  -3.4014 0.0266 -0.1077
v  -3.4051 0.0297 -0.1041
v  -3.3001 0.0282 -0.0098
v  -3.3028 0.0311 -0.0054
v  -3.1693 0.0337 0.1015
v  -3.1726 0.0367 0.1054
v  -3.0620 0.0438 0.1869
v  -3.0587 0.0407 0.1831
v  -2.9490 0.0526 0.2575
v  -2.9457 0.0494 0.2537
v  -2.7632 0.0681 0.3496
v  -2.7609 0.0648 0.3454
v  -2.5803 0.0825 0.4178
v  -2.5786 0.0789 0.4132
v  -2.4303 0.0922 0.4605
v  -2.4288 0.0886 0.4561
v  -2.2863 0.0995 0.4934
v  -2.2823 0.0958 0.4895
v  -2.2814 0.0996 0.4944
v  -2.2591 0.0965 0.4943
v  -2.2605 0.1001 0.4987
v  -2.1765 0.0525 0.9535
v  -2.1682 0.0517 0.9558
v  -2.0594 -0.0033 1.4246
v  -2.0475 -0.0052 1.4270
v  -2.1456 0.0504 0.9587
v  -2.0233 -0.0089 1.4298
v  -1.9046 -0.0858 2.0145
v  -1.8895 -0.0890 2.0164
v  -1.7325 -0.1893 2.6278
v  -1.7151 -0.1935 2.6288
v  -1.5518 -0.3122 3.2226
v  -1.5333 -0.3170 3.2241
v  -1.8867 -0.0904 2.0168
v  -1.8611 -0.0962 2.0203
v  -1.7099 -0.1967 2.6291
v  -1.6848 -0.2034 2.6309
v  -1.5261 -0.3216 3.2242
v  -1.5011 -0.3287 3.2260
v  -1.3370 -0.4697 3.7883
v  -1.3115 -0.4764 3.7879
v  -1.2364 -0.5598 4.0642
v  -1.2112 -0.5667 4.0638
v  -1.3605 -0.4614 3.7902
v  -1.3435 -0.4655 3.7882
v  -1.2593 -0.5519 4.0650
v  -1.2413 -0.5567 4.0648
v  -1.1310 -0.6650 4.3326
v  -1.1048 -0.6734 4.3336
v  -1.0180 -0.7912 4.5948
v  -0.9910 -0.8017 4.5960
v  -0.8982 -0.9407 4.8468
v  -0.8732 -0.9494 4.8409
v  -0.8952 -0.9495 4.8549
v  -0.9102 -0.9475 4.8565
v  -0.9142 -0.9377 4.8482
v  -0.8679 -0.9593 4.8490
v  -1.0377 -0.7845 4.5939
v  -1.1329 -0.6636 4.3326
v  -1.1525 -0.6576 4.3325
v  -0.6062 -0.9495 4.8560
v  -0.6029 -0.9594 4.8639
v  -0.3395 -0.9493 4.8647
v  -0.3395 -0.9593 4.8724
v  -1.2124 -0.9465 4.8296
v  -1.2137 -0.9364 4.8215
v  -1.4793 -0.9501 4.7915
v  -1.4816 -0.9401 4.7830
v  -1.7744 -0.9578 4.7300
v  -1.7729 -0.9481 4.7222
v  -2.0452 -0.9678 4.6539
v  -2.0478 -0.9587 4.6444
v  -2.1989 -0.9721 4.6056
v  -2.2010 -0.9629 4.5962
v  -2.3561 -0.9675 4.5708
v  -2.3587 -0.9585 4.5612
v  -2.4261 -0.9646 4.5547
v  -2.4276 -0.9556 4.5451
v  -2.4828 -0.9637 4.5384
v  -2.4897 -0.9542 4.5273
v  -2.4951 -0.9640 4.5316
v  -2.5040 -0.9549 4.5192
v  -2.5100 -0.9678 4.5202
v  -2.5209 -0.9575 4.5061
v  -2.6357 -0.9864 4.4227
v  -2.6445 -0.9761 4.4092
v  -2.6045 -0.8478 4.2846
v  -2.6171 -0.8500 4.2785
v  -2.7041 -0.7553 4.0399
v  -2.7167 -0.7579 4.0338
v  -2.7694 -0.9964 4.3407
v  -2.7766 -0.9868 4.3281
v  -3.0493 -1.0089 4.1810
v  -3.0508 -0.9988 4.1715
v  -3.3089 -1.0218 4.0193
v  -3.3189 -1.0121 4.0043
v  -3.3252 -1.0264 3.9975
v  -3.3237 -1.0111 3.9989
v  -3.3893 -0.9720 3.8432
v  -3.3872 -0.9571 3.8479
v  -3.4458 -0.9098 3.6600
v  -3.4438 -0.8951 3.6628
v  -2.7945 -0.6721 3.7873
v  -2.8068 -0.6756 3.7818
v  -2.8752 -0.5979 3.5308
v  -2.8867 -0.6017 3.5261
v  -3.0139 -0.4710 3.0100
v  -3.0252 -0.4758 3.0065
v  -3.1308 -0.3643 2.4800
v  -3.1422 -0.3696 2.4762
v  -3.2563 -0.2491 1.8091
v  -3.2685 -0.2556 1.8054
v  -3.3525 -0.1601 1.2211
v  -3.3658 -0.1679 1.2187
v  -3.4453 -0.0729 0.5800
v  -3.4606 -0.0830 0.5799
v  -3.4924 -0.8512 3.4681
v  -3.4902 -0.8368 3.4709
v  -3.5304 -0.7984 3.2740
v  -3.5286 -0.7834 3.2763
v  -3.5931 -0.6962 2.8388
v  -3.5911 -0.6816 2.8419
v  -3.6319 -0.5942 2.3928
v  -3.6341 -0.6094 2.3908
v  -3.6443 -0.5827 2.2380
v  -3.6423 -0.5675 2.2390
v  -3.6579 -0.5415 1.9860
v  -3.6562 -0.5261 1.9870
v  -3.6691 -0.5024 1.7328
v  -3.6674 -0.4872 1.7336
v  -3.6788 -0.4636 1.4656
v  -3.6772 -0.4485 1.4669
v  -3.6878 -0.4213 1.1571
v  -3.6865 -0.4059 1.1574
v  -3.6949 -0.3823 0.8588
v  -3.6939 -0.3669 0.8597
v  -3.7006 -0.3454 0.5638
v  -3.6999 -0.3300 0.5648
v  -3.7060 -0.3027 0.2098
v  -3.7058 -0.2875 0.2108
v  -3.7024 -0.2834 0.2033
v  -3.6971 -0.2869 0.1863
v  -3.6901 -0.2714 0.1952
v  -3.6882 -0.2752 0.1805
v  -3.6240 -0.2008 0.1450
v  -3.6195 -0.2021 0.1282
v  -3.5732 -0.1044 0.0826
v  -3.5690 -0.1058 0.0656
v  -3.5327 -0.0166 0.0218
v  -3.5293 -0.0185 0.0047
v  -3.5170 -0.0030 0.0058
v  -3.5173 -0.0063 -0.0123
v  -3.4621 0.0130 -0.0581
v  -3.4671 0.0086 -0.0703
v  -3.3614 0.0136 0.0398
v  -3.2638 0.0100 0.1632
v  -3.3555 -0.0094 0.2215
v  -3.2580 -0.0175 0.3804
v  -3.1642 0.0008 0.3290
v  -3.4407 -0.0044 0.0963
v  -3.0750 -0.0108 0.5008
v  -3.1736 -0.0290 0.5488
v  -2.9952 -0.0266 0.6894
v  -3.1007 -0.0444 0.7291
v  -3.0424 -0.0652 0.9259
v  -2.9231 -0.0480 0.8988
v  -2.9999 -0.0876 1.1091
v  -2.8700 -0.0726 1.1000
v  -2.9641 -0.1125 1.2939
v  -2.8279 -0.1023 1.3122
v  -2.8574 -0.2001 1.8696
v  -2.7141 -0.1920 1.8921
v  -2.7409 -0.3204 2.5289
v  -2.5995 -0.3123 2.5411
v  -2.6476 -0.4393 3.0668
v  -2.5017 -0.4349 3.0902
v  -2.8887 -0.0004 0.6487
v  -2.9770 0.0151 0.4535
v  -2.9014 0.0284 0.4605
v  -2.8064 -0.0218 0.8708
v  -2.5627 0.0749 0.4912
v  -2.4769 0.0283 0.9044
v  -2.7416 -0.0474 1.0931
v  -2.6913 -0.0796 1.3281
v  -2.3674 -0.0309 1.3804
v  -2.2347 -0.1159 1.9640
v  -2.0860 -0.2266 2.5990
v  -1.9391 -0.3494 3.1800
v  -1.7949 -0.4965 3.7359
v  -1.7167 -0.5835 4.0073
v  -2.2012 -0.6437 3.9122
v  -2.2528 -0.5588 3.6498
v  -2.3556 -0.4133 3.1150
v  -2.4576 -0.2900 2.5625
v  -2.5813 -0.1702 1.9098
v  -1.6431 -0.6839 4.2716
v  -1.5671 -0.8037 4.5344
v  -2.0976 -0.8424 4.4122
v  -2.1508 -0.7339 4.1575
v  -2.2548 -0.8548 4.3712
v  -2.3070 -0.7513 4.1229
v  -2.4064 -0.8514 4.3366
v  -2.4551 -0.7516 4.0953
v  -2.3546 -0.6617 3.8773
v  -2.4021 -0.5795 3.6224
v  -2.5027 -0.6634 3.8512
v  -2.5504 -0.5805 3.5917
v  -2.7193 -0.5836 3.5621
v  -2.8375 -0.4476 3.0377
v  -2.6526 -0.6634 3.8215
v  -2.9400 -0.3334 2.5036
v  -3.0657 -0.2160 1.8358
v  -3.1697 -0.1305 1.2569
v  -3.2936 -0.0454 0.5628
v  -2.5845 -0.7497 4.0681
v  -2.5093 -0.8469 4.3108
v  -0.4376 0.1256 0.7206
v  -0.7977 0.1197 0.6976
v  -0.7982 0.1234 0.7022
v  -0.4368 0.1219 0.7158
v  -1.1638 0.1197 0.6708
v  -1.1637 0.1161 0.6662
v  -1.5283 0.1110 0.6217
v  -1.5295 0.1145 0.6264
v  -1.8928 0.1043 0.5642
v  -1.8935 0.1081 0.5687
v  -0.7615 0.0766 1.0992
v  -1.4485 0.0677 1.0394
v  -1.3666 0.0070 1.5054
v  -1.2581 -0.0803 2.0809
v  -1.1373 -0.1876 2.6758
v  -1.0161 -0.3161 3.2660
v  -0.8954 -0.4666 3.8163
v  -0.8271 -0.5580 4.0855
v  -0.7190 0.0145 1.5653
v  -0.6665 -0.0723 2.1250
v  -0.5990 -0.1794 2.7085
v  -0.5433 -0.3095 3.2923
v  -0.4843 -0.4617 3.8357
v  -0.4515 -0.5531 4.0988
v  -0.4159 -0.6608 4.3571
v  -0.3784 -0.7937 4.6172
v  -0.6846 -0.7955 4.6073
v  -0.7603 -0.6652 4.3476
v  -3.0708 0.0266 0.2779
v  -3.4881 -0.3049 1.1877
v  -3.5025 -0.1444 0.5750
v  -3.5733 -0.2392 0.5693
v  -3.4020 -0.2106 1.2064
v  -3.3979 -0.3778 1.7678
v  -3.2997 -0.2868 1.7936
v  -3.2754 -0.4774 2.4370
v  -3.1699 -0.3939 2.4666
v  -3.1621 -0.5694 2.9520
v  -3.0520 -0.4964 2.9958
v  -3.0258 -0.6784 3.4555
v  -2.9137 -0.6180 3.5113
v  -2.9437 -0.7381 3.6962
v  -2.8328 -0.6889 3.7658
v  -3.0782 -0.7633 3.6385
v  -3.1546 -0.7074 3.4128
v  -3.2926 -0.6056 2.9204
v  -3.4046 -0.5216 2.4184
v  -3.5223 -0.4306 1.7513
v  -3.6020 -0.3646 1.1701
v  -3.6636 -0.3047 0.5659
v  -2.8620 -0.8094 3.9329
v  -2.7428 -0.7673 4.0147
v  -2.7543 -0.8926 4.1862
v  -2.6389 -0.8565 4.2629
v  -2.8803 -0.9102 4.1214
v  -2.9899 -0.8294 3.8720
v  -3.4436 -0.6378 2.8813
v  -3.5190 -0.5537 2.4061
v  -3.5814 -0.4509 1.7437
v  -3.6251 -0.3748 1.1669
v  -3.3468 -0.7389 3.3458
v  -3.2926 -0.7934 3.5555
v  -3.2219 -0.8552 3.7700
v  -3.1398 -0.9281 3.9854
# 581 vertices

vn 0.1598 0.7992 -0.5794
vn 0.1606 0.9739 0.1606
vn 0.6185 0.6883 -0.3791
vn -0.3312 0.8631 -0.3814
vn -0.3194 0.8684 -0.3793
vn 0.1704 0.9722 0.1604
vn -0.2900 0.8600 -0.4200
vn 0.1600 0.9798 0.1200
vn 0.1502 0.9813 0.1202
vn -0.2586 0.8454 -0.4674
vn 0.1404 0.9828 0.1203
vn -0.2096 0.8286 -0.5191
vn 0.1304 0.9829 0.1304
vn -0.1697 0.8184 -0.5490
vn 0.1205 0.9841 0.1305
vn -0.1294 0.8062 -0.5773
vn 0.1095 0.9855 0.1294
vn -0.1102 0.7915 -0.6011
vn 0.0997 0.9866 0.1295
vn -0.1005 0.7837 -0.6129
vn -0.0100 0.9959 0.0896
vn -0.0999 0.7789 -0.6191
vn 0.0401 0.9919 0.1202
vn 0.0995 0.9852 0.1393
vn -0.0502 0.9937 0.1004
vn 0.1101 0.9809 0.1602
vn -0.4592 0.8884 0.0000
vn 0.0400 0.9907 0.1301
vn 0.0400 0.9894 0.1399
vn 0.1194 0.9747 0.1890
vn -0.4907 0.8713 0.0000
vn 0.1198 0.9682 0.2196
vn -0.5218 0.8530 0.0100
vn 0.1195 0.9558 0.2688
vn -0.5406 0.8410 0.0200
vn -0.4983 0.8670 0.0000
vn 0.0402 0.9845 0.1708
vn -0.5291 0.8485 0.0100
vn 0.0400 0.9790 0.1998
vn -0.5405 0.8408 0.0300
vn 0.0400 0.9700 0.2400
vn -0.5401 0.8401 0.0500
vn 0.0400 0.9592 0.2798
vn -0.5501 0.8302 0.0900
vn 0.0398 0.9364 0.3487
vn 0.1204 0.9428 0.3109
vn 0.1103 0.9221 0.3709
vn -0.5436 0.8355 0.0805
vn -0.5599 0.8198 0.1200
vn 0.0400 0.9110 0.4105
vn -0.5812 0.8016 0.1403
vn 0.0399 0.8772 0.4785
vn -0.3194 0.8684 0.3793
vn 0.0300 0.8408 0.5405
vn -0.2406 0.2706 0.9321
vn 0.0802 0.2205 0.9721
vn 0.0701 0.8315 0.5510
vn 0.0401 0.1805 0.9828
vn 0.0802 0.8617 0.5010
vn -0.5605 0.8208 0.1101
vn 0.0998 0.8978 0.4290
vn 0.0299 0.8362 0.5475
vn 0.0100 0.8366 0.5478
vn 0.0201 0.1806 0.9833
vn 0.0000 0.8366 0.5478
vn 0.0000 0.1807 0.9835
vn 0.1104 0.2007 0.9734
vn 0.0898 0.8378 0.5386
vn 0.1695 0.1894 0.9672
vn 0.1101 0.8406 0.5304
vn 0.2405 0.1904 0.9518
vn 0.1294 0.8459 0.5175
vn 0.2797 0.1998 0.9391
vn 0.1602 0.8508 0.5005
vn 0.2589 0.2390 0.9359
vn 0.1303 0.8723 0.4713
vn 0.2004 0.2705 0.9416
vn 0.0796 0.8855 0.4577
vn 0.2289 0.2687 0.9356
vn 0.0899 0.8888 0.4494
vn 0.3308 0.2005 0.9222
vn 0.1096 0.8870 0.4485
vn 0.5821 -0.0201 0.8129
vn 0.5394 0.6293 0.5594
vn 0.6097 -0.0700 0.7896
vn 0.5490 0.6388 0.5390
vn 0.5708 -0.0000 0.8211
vn 0.4608 0.7112 0.5309
vn 0.1303 0.9023 0.4110
vn 0.5513 0.6515 0.5212
vn 0.1300 0.9199 0.3700
vn 0.5782 0.6679 0.4685
vn 0.5027 0.1307 0.8545
vn 0.3285 0.7964 0.5077
vn 0.5094 0.1398 0.8491
vn 0.3292 0.8079 0.4888
vn 0.5369 0.1193 0.8352
vn 0.3401 0.8202 0.4601
vn 0.9051 0.0796 0.4177
vn 0.9259 0.1195 0.3584
vn 0.3390 0.8474 0.4087
vn 0.9314 0.1903 0.3105
vn 0.3384 0.8659 0.3683
vn 0.1405 0.9331 0.3311
vn 0.5963 0.6857 0.4174
vn 0.1493 0.9457 0.2887
vn 0.6292 0.6891 0.3595
vn 0.1705 0.9529 0.2508
vn 0.6517 0.6918 0.3108
vn 0.1802 0.9609 0.2102
vn 0.6926 0.6725 0.2610
vn 0.1906 0.9630 0.1906
vn 0.7317 0.6415 0.2305
vn 0.1801 0.9705 0.1601
vn 0.7814 0.5910 0.2004
vn 0.1690 0.9743 0.1491
vn 0.8170 0.5480 0.1793
vn 0.9321 0.2406 0.2706
vn 0.3313 0.8835 0.3313
vn 0.9457 0.2489 0.2091
vn 0.3314 0.9037 0.2711
vn 0.9459 0.2818 0.1610
vn 0.3398 0.9094 0.2398
vn 0.3611 0.9128 0.1906
vn 0.9403 0.3101 0.1400
vn 0.9478 0.2993 0.1097
vn 0.3705 0.9112 0.1802
vn 0.9561 0.2789 0.0896
vn 0.3797 0.9094 0.1699
vn 0.9596 0.2699 0.0800
vn 0.4009 0.9020 0.1604
vn 0.9660 0.2490 0.0697
vn 0.4301 0.8902 0.1500
vn 0.9735 0.2208 0.0602
vn 0.4587 0.8775 0.1396
vn 0.9845 0.1708 0.0402
vn 0.4984 0.8572 0.1296
vn 0.9945 0.1005 0.0301
vn 0.5298 0.8396 0.1199
vn 0.9974 0.0698 0.0199
vn 0.6011 0.7915 0.1102
vn 0.8040 0.3015 -0.5125
vn 0.7616 0.3407 -0.5512
vn 0.7623 0.6319 0.1404
vn 0.8236 0.2210 -0.5223
vn 0.8437 0.5122 0.1607
vn 0.8670 0.0997 -0.4883
vn 0.8775 0.1396 -0.4587
vn 0.1498 0.9788 0.1398
vn 0.6883 0.6185 -0.3791
vn 0.6415 0.6715 -0.3709
vn 0.1496 0.9774 0.1496
vn 0.1400 0.9802 0.1400
vn 0.1302 0.9815 0.1402
vn 0.1104 0.9839 0.1406
vn 0.1103 0.9825 0.1504
vn 0.1396 0.9773 0.1596
vn 0.1296 0.9770 0.1695
vn 0.0999 0.9786 0.1797
vn 0.1304 0.9730 0.1906
vn 0.0903 0.9734 0.2107
vn 0.1296 0.9670 0.2193
vn 0.0804 0.9646 0.2512
vn 0.1296 0.9571 0.2592
vn 0.1596 0.9773 0.1396
vn 0.1593 0.9759 0.1494
vn 0.1500 0.9801 0.1300
vn 0.1398 0.9788 0.1498
vn 0.1394 0.9757 0.1692
vn 0.1500 0.9702 0.1900
vn 0.1506 0.9636 0.2208
vn 0.1502 0.9510 0.2703
vn 0.1498 0.9390 0.3097
vn 0.1501 0.9207 0.3603
vn 0.1792 0.9162 0.3585
vn 0.1903 0.9314 0.3105
vn 0.1889 0.9446 0.2685
vn 0.1794 0.9567 0.2292
vn 0.1805 0.9629 0.2006
vn 0.1701 0.9706 0.1701
vn 0.1396 0.8973 0.4187
vn 0.1297 0.8682 0.4790
vn 0.1702 0.8711 0.4606
vn 0.1798 0.8989 0.3995
vn 0.1304 0.8927 0.4313
vn 0.1307 0.9149 0.3820
vn 0.0697 0.9058 0.4180
vn 0.0598 0.9275 0.3690
vn 0.1302 0.9312 0.3404
vn 0.1294 0.9456 0.2986
vn 0.0701 0.9412 0.3304
vn 0.0696 0.9550 0.2885
vn 0.1101 0.9506 0.2902
vn 0.1201 0.9607 0.2502
vn 0.0999 0.9388 0.3296
vn 0.1397 0.9678 0.2095
vn 0.1494 0.9759 0.1593
vn 0.1003 0.9231 0.3712
vn 0.0898 0.9080 0.4091
vn -0.0398 0.7860 -0.6169
vn 0.0100 0.9927 0.1203
vn 0.0201 0.9925 0.1203
vn -0.0199 0.7865 -0.6173
vn 0.0301 0.9923 0.1203
vn -0.0500 0.7905 -0.6104
vn -0.0700 0.7896 -0.6097
vn -0.0900 0.7796 -0.6197
vn 0.0000 0.9927 0.1203
vn 0.0000 0.7867 -0.6174
vn 0.0200 0.9913 0.1302
vn 0.0300 0.9910 0.1301
vn 0.0299 0.9883 0.1497
vn 0.0301 0.9848 0.1708
vn 0.0299 0.9568 0.2890
vn 0.0301 0.9321 0.3608
vn 0.0200 0.9900 0.1400
vn 0.0000 0.9915 0.1302
vn 0.0000 0.9901 0.1400
vn 0.0199 0.9854 0.1692
vn 0.0000 0.9856 0.1692
vn 0.0200 0.9796 0.1999
vn 0.0000 0.9798 0.2000
vn 0.0200 0.9705 0.2401
vn 0.0000 0.9707 0.2402
vn 0.0199 0.9571 0.2891
vn 0.0000 0.9573 0.2892
vn 0.0201 0.9324 0.3609
vn 0.0000 0.9326 0.3610
vn 0.0200 0.9078 0.4190
vn 0.0000 0.9080 0.4191
vn 0.0100 0.8713 0.4907
vn 0.0000 0.8713 0.4907
vn 0.0300 0.8709 0.4905
vn 0.0299 0.9076 0.4189
vn 0.1598 0.9786 0.1298
vn 0.8215 0.5410 0.1803
vn 0.6217 0.7621 0.1805
vn 0.6880 0.7079 0.1595
vn 0.7852 0.5864 0.1988
vn 0.5562 0.8045 0.2086
vn 0.7410 0.6308 0.2303
vn 0.5125 0.8241 0.2412
vn 0.6977 0.6678 0.2592
vn 0.4728 0.8349 0.2817
vn 0.6594 0.6894 0.2997
vn 0.4710 0.8218 0.3207
vn 0.6314 0.6916 0.3508
vn 0.4493 0.8088 0.3794
vn 0.6075 0.6872 0.3984
vn 0.2585 0.9049 0.3381
vn 0.2509 0.9232 0.2910
vn 0.2607 0.9323 0.2506
vn 0.2797 0.9391 0.1998
vn 0.3296 0.9287 0.1698
vn 0.4187 0.8973 0.1396
vn 0.4493 0.7888 0.4194
vn 0.5822 0.6826 0.4417
vn 0.4532 0.7553 0.4733
vn 0.5698 0.6598 0.4899
vn 0.2900 0.8499 0.4400
vn 0.2701 0.8803 0.3901
vn 0.3009 0.9228 0.2407
vn 0.3195 0.9284 0.1897
vn 0.3591 0.9178 0.1696
vn 0.4307 0.8915 0.1402
vn 0.2887 0.9159 0.2788
vn 0.2896 0.8987 0.3295
vn 0.2987 0.8762 0.3783
vn 0.3004 0.8511 0.4306
vn 0.5899 0.7999 0.1100
vn -0.1606 0.9739 0.1606
vn -0.1598 0.7992 -0.5794
vn -0.6185 0.6883 -0.3791
vn 0.3312 0.8631 -0.3814
vn 0.3194 0.8684 -0.3793
vn -0.1704 0.9722 0.1604
vn 0.2900 0.8600 -0.4200
vn -0.1600 0.9798 0.1200
vn -0.1502 0.9813 0.1202
vn 0.2586 0.8454 -0.4674
vn -0.1404 0.9828 0.1203
vn 0.2096 0.8286 -0.5191
vn -0.1304 0.9829 0.1304
vn 0.1697 0.8184 -0.5490
vn -0.1205 0.9841 0.1305
vn 0.1294 0.8062 -0.5773
vn -0.1095 0.9855 0.1294
vn 0.1102 0.7915 -0.6011
vn -0.0997 0.9866 0.1295
vn 0.1005 0.7837 -0.6129
vn 0.0100 0.9959 0.0896
vn 0.0999 0.7789 -0.6191
vn -0.0401 0.9919 0.1202
vn -0.0995 0.9852 0.1393
vn 0.0502 0.9937 0.1004
vn -0.1101 0.9809 0.1602
vn 0.4592 0.8884 0.0000
vn -0.0400 0.9907 0.1301
vn -0.0400 0.9894 0.1399
vn -0.1194 0.9747 0.1890
vn 0.4907 0.8713 0.0000
vn -0.1198 0.9682 0.2196
vn 0.5218 0.8530 0.0100
vn -0.1195 0.9558 0.2688
vn 0.5406 0.8410 0.0200
vn 0.4983 0.8670 0.0000
vn -0.0402 0.9845 0.1708
vn 0.5291 0.8485 0.0100
vn -0.0400 0.9790 0.1998
vn 0.5405 0.8408 0.0300
vn -0.0400 0.9700 0.2400
vn 0.5401 0.8401 0.0500
vn -0.0400 0.9592 0.2798
vn 0.5501 0.8302 0.0900
vn -0.0398 0.9364 0.3487
vn -0.1204 0.9428 0.3109
vn -0.1103 0.9221 0.3709
vn 0.5436 0.8355 0.0805
vn 0.5599 0.8198 0.1200
vn -0.0400 0.9110 0.4105
vn 0.5812 0.8016 0.1403
vn -0.0399 0.8772 0.4785
vn 0.3194 0.8684 0.3793
vn -0.0300 0.8408 0.5405
vn 0.2406 0.2706 0.9321
vn -0.0802 0.2205 0.9721
vn -0.0701 0.8315 0.5510
vn -0.0401 0.1805 0.9828
vn -0.0802 0.8617 0.5010
vn 0.5605 0.8208 0.1101
vn -0.0998 0.8978 0.4290
vn -0.0299 0.8362 0.5475
vn -0.0100 0.8366 0.5478
vn -0.0201 0.1806 0.9833
vn -0.1104 0.2007 0.9734
vn -0.0898 0.8378 0.5386
vn -0.1695 0.1894 0.9672
vn -0.1101 0.8406 0.5304
vn -0.2405 0.1904 0.9518
vn -0.1294 0.8459 0.5175
vn -0.2797 0.1998 0.9391
vn -0.1602 0.8508 0.5005
vn -0.2589 0.2390 0.9359
vn -0.1303 0.8723 0.4713
vn -0.2004 0.2705 0.9416
vn -0.0796 0.8855 0.4577
vn -0.2289 0.2687 0.9356
vn -0.0899 0.8888 0.4494
vn -0.3308 0.2005 0.9222
vn -0.1096 0.8870 0.4485
vn -0.5821 -0.0201 0.8129
vn -0.5394 0.6293 0.5594
vn -0.6097 -0.0700 0.7896
vn -0.5490 0.6388 0.5390
vn -0.5708 -0.0000 0.8211
vn -0.4608 0.7112 0.5309
vn -0.1303 0.9023 0.4110
vn -0.5513 0.6515 0.5212
vn -0.1300 0.9199 0.3700
vn -0.5782 0.6679 0.4685
vn -0.5027 0.1307 0.8545
vn -0.3285 0.7964 0.5077
vn -0.5094 0.1398 0.8491
vn -0.3292 0.8079 0.4888
vn -0.5369 0.1193 0.8352
vn -0.3401 0.8202 0.4601
vn -0.9051 0.0796 0.4177
vn -0.9259 0.1195 0.3584
vn -0.3390 0.8474 0.4087
vn -0.9314 0.1903 0.3105
vn -0.3384 0.8659 0.3683
vn -0.1405 0.9331 0.3311
vn -0.5963 0.6857 0.4174
vn -0.1493 0.9457 0.2887
vn -0.6292 0.6891 0.3595
vn -0.1705 0.9529 0.2508
vn -0.6517 0.6918 0.3108
vn -0.1802 0.9609 0.2102
vn -0.6926 0.6725 0.2610
vn -0.1906 0.9630 0.1906
vn -0.7317 0.6415 0.2305
vn -0.1801 0.9705 0.1601
vn -0.7814 0.5910 0.2004
vn -0.1690 0.9743 0.1491
vn -0.8170 0.5480 0.1793
vn -0.9321 0.2406 0.2706
vn -0.3313 0.8835 0.3313
vn -0.9457 0.2489 0.2091
vn -0.3314 0.9037 0.2711
vn -0.9459 0.2818 0.1610
vn -0.3398 0.9094 0.2398
vn -0.3611 0.9128 0.1906
vn -0.9403 0.3101 0.1400
vn -0.9478 0.2993 0.1097
vn -0.3705 0.9112 0.1802
vn -0.9561 0.2789 0.0896
vn -0.3797 0.9094 0.1699
vn -0.9596 0.2699 0.0800
vn -0.4009 0.9020 0.1604
vn -0.9660 0.2490 0.0697
vn -0.4301 0.8902 0.1500
vn -0.9735 0.2208 0.0602
vn -0.4587 0.8775 0.1396
vn -0.9845 0.1708 0.0402
vn -0.4984 0.8572 0.1296
vn -0.9945 0.1005 0.0301
vn -0.5298 0.8396 0.1199
vn -0.9974 0.0698 0.0199
vn -0.6011 0.7915 0.1102
vn -0.8040 0.3015 -0.5125
vn -0.7616 0.3407 -0.5512
vn -0.7623 0.6319 0.1404
vn -0.8236 0.2210 -0.5223
vn -0.8437 0.5122 0.1607
vn -0.8670 0.0997 -0.4883
vn -0.8775 0.1396 -0.4587
vn -0.1498 0.9788 0.1398
vn -0.6883 0.6185 -0.3791
vn -0.6415 0.6715 -0.3709
vn -0.1496 0.9774 0.1496
vn -0.1400 0.9802 0.1400
vn -0.1302 0.9815 0.1402
vn -0.1104 0.9839 0.1406
vn -0.1103 0.9825 0.1504
vn -0.1396 0.9773 0.1596
vn -0.1296 0.9770 0.1695
vn -0.0999 0.9786 0.1797
vn -0.1304 0.9730 0.1906
vn -0.0903 0.9734 0.2107
vn -0.1296 0.9670 0.2193
vn -0.0804 0.9646 0.2512
vn -0.1296 0.9571 0.2592
vn -0.1596 0.9773 0.1396
vn -0.1598 0.9786 0.1298
vn -0.1500 0.9801 0.1300
vn -0.1593 0.9759 0.1494
vn -0.1398 0.9788 0.1498
vn -0.1701 0.9706 0.1701
vn -0.1394 0.9757 0.1692
vn -0.1500 0.9702 0.1900
vn -0.1506 0.9636 0.2208
vn -0.1502 0.9510 0.2703
vn -0.1498 0.9390 0.3097
vn -0.1501 0.9207 0.3603
vn -0.1792 0.9162 0.3585
vn -0.1903 0.9314 0.3105
vn -0.1889 0.9446 0.2685
vn -0.1794 0.9567 0.2292
vn -0.1805 0.9629 0.2006
vn -0.1396 0.8973 0.4187
vn -0.1297 0.8682 0.4790
vn -0.1702 0.8711 0.4606
vn -0.1798 0.8989 0.3995
vn -0.1304 0.8927 0.4313
vn -0.1307 0.9149 0.3820
vn -0.0697 0.9058 0.4180
vn -0.0598 0.9275 0.3690
vn -0.1302 0.9312 0.3404
vn -0.1294 0.9456 0.2986
vn -0.0701 0.9412 0.3304
vn -0.0696 0.9550 0.2885
vn -0.1101 0.9506 0.2902
vn -0.1201 0.9607 0.2502
vn -0.0999 0.9388 0.3296
vn -0.1397 0.9678 0.2095
vn -0.1494 0.9759 0.1593
vn -0.1003 0.9231 0.3712
vn -0.0898 0.9080 0.4091
vn -0.0100 0.9927 0.1203
vn 0.0398 0.7860 -0.6169
vn -0.0201 0.9925 0.1203
vn 0.0199 0.7865 -0.6173
vn -0.0301 0.9923 0.1203
vn 0.0500 0.7905 -0.6104
vn 0.0700 0.7896 -0.6097
vn 0.0900 0.7796 -0.6197
vn -0.0200 0.9913 0.1302
vn -0.0300 0.9910 0.1301
vn -0.0299 0.9883 0.1497
vn -0.0301 0.9848 0.1708
vn -0.0299 0.9568 0.2890
vn -0.0301 0.9321 0.3608
vn -0.0200 0.9900 0.1400
vn -0.0199 0.9854 0.1692
vn -0.0200 0.9796 0.1999
vn -0.0200 0.9705 0.2401
vn -0.0199 0.9571 0.2891
vn -0.0201 0.9324 0.3609
vn -0.0200 0.9078 0.4190
vn -0.0100 0.8713 0.4907
vn -0.0300 0.8709 0.4905
vn -0.0299 0.9076 0.4189
vn -0.6217 0.7621 0.1805
vn -0.8215 0.5410 0.1803
vn -0.6880 0.7079 0.1595
vn -0.7852 0.5864 0.1988
vn -0.5562 0.8045 0.2086
vn -0.7410 0.6308 0.2303
vn -0.5125 0.8241 0.2412
vn -0.6977 0.6678 0.2592
vn -0.4728 0.8349 0.2817
vn -0.6594 0.6894 0.2997
vn -0.4710 0.8218 0.3207
vn -0.6314 0.6916 0.3508
vn -0.4493 0.8088 0.3794
vn -0.6075 0.6872 0.3984
vn -0.2585 0.9049 0.3381
vn -0.2509 0.9232 0.2910
vn -0.2607 0.9323 0.2506
vn -0.2797 0.9391 0.1998
vn -0.3296 0.9287 0.1698
vn -0.4187 0.8973 0.1396
vn -0.4493 0.7888 0.4194
vn -0.5822 0.6826 0.4417
vn -0.4532 0.7553 0.4733
vn -0.5698 0.6598 0.4899
vn -0.2900 0.8499 0.4400
vn -0.2701 0.8803 0.3901
vn -0.3009 0.9228 0.2407
vn -0.3195 0.9284 0.1897
vn -0.3591 0.9178 0.1696
vn -0.4307 0.8915 0.1402
vn -0.2887 0.9159 0.2788
vn -0.2896 0.8987 0.3295
vn -0.2987 0.8762 0.3783
vn -0.3004 0.8511 0.4306
vn -0.5899 0.7999 0.1100
# 527 vertex normals

vt 0.5258 0.3022 0.0000
vt 0.5258 0.3021 0.0000
vt 0.5259 0.3022 0.0000
vt 0.5252 0.3020 0.0000
vt 0.5244 0.3018 0.0000
vt 0.5244 0.3017 0.0000
vt 0.5238 0.3015 0.0000
vt 0.5238 0.3016 0.0000
vt 0.5231 0.3014 0.0000
vt 0.5221 0.3011 0.0000
vt 0.5221 0.3012 0.0000
vt 0.5211 0.3010 0.0000
vt 0.5203 0.3009 0.0000
vt 0.5196 0.3008 0.0000
vt 0.5196 0.3009 0.0000
vt 0.5194 0.3008 0.0000
vt 0.5187 0.2988 0.0000
vt 0.5187 0.2987 0.0000
vt 0.5179 0.2966 0.0000
vt 0.5186 0.2987 0.0000
vt 0.5177 0.2966 0.0000
vt 0.5169 0.2939 0.0000
vt 0.5159 0.2911 0.0000
vt 0.5150 0.2884 0.0000
vt 0.5149 0.2884 0.0000
vt 0.5167 0.2939 0.0000
vt 0.5158 0.2911 0.0000
vt 0.5157 0.2911 0.0000
vt 0.5148 0.2884 0.0000
vt 0.5147 0.2884 0.0000
vt 0.5139 0.2857 0.0000
vt 0.5138 0.2857 0.0000
vt 0.5134 0.2844 0.0000
vt 0.5133 0.2844 0.0000
vt 0.5140 0.2857 0.0000
vt 0.5135 0.2844 0.0000
vt 0.5129 0.2831 0.0000
vt 0.5127 0.2831 0.0000
vt 0.5123 0.2818 0.0000
vt 0.5122 0.2818 0.0000
vt 0.5118 0.2805 0.0000
vt 0.5117 0.2805 0.0000
vt 0.5116 0.2805 0.0000
vt 0.5124 0.2818 0.0000
vt 0.5130 0.2832 0.0000
vt 0.5105 0.2805 0.0000
vt 0.5105 0.2804 0.0000
vt 0.5093 0.2804 0.0000
vt 0.5093 0.2803 0.0000
vt 0.5082 0.2807 0.0000
vt 0.5082 0.2806 0.0000
vt 0.5132 0.2805 0.0000
vt 0.5144 0.2806 0.0000
vt 0.5158 0.2808 0.0000
vt 0.5171 0.2810 0.0000
vt 0.5171 0.2811 0.0000
vt 0.5178 0.2812 0.0000
vt 0.5178 0.2813 0.0000
vt 0.5185 0.2814 0.0000
vt 0.5188 0.2815 0.0000
vt 0.5191 0.2815 0.0000
vt 0.5191 0.2816 0.0000
vt 0.5192 0.2816 0.0000
vt 0.5193 0.2817 0.0000
vt 0.5198 0.2819 0.0000
vt 0.5199 0.2820 0.0000
vt 0.5196 0.2828 0.0000
vt 0.5200 0.2840 0.0000
vt 0.5201 0.2840 0.0000
vt 0.5205 0.2823 0.0000
vt 0.5217 0.2828 0.0000
vt 0.5217 0.2829 0.0000
vt 0.5230 0.2834 0.0000
vt 0.5230 0.2835 0.0000
vt 0.5231 0.2835 0.0000
vt 0.5234 0.2842 0.0000
vt 0.5233 0.2842 0.0000
vt 0.5237 0.2850 0.0000
vt 0.5237 0.2851 0.0000
vt 0.5205 0.2851 0.0000
vt 0.5209 0.2863 0.0000
vt 0.5210 0.2863 0.0000
vt 0.5217 0.2887 0.0000
vt 0.5224 0.2910 0.0000
vt 0.5225 0.2910 0.0000
vt 0.5232 0.2940 0.0000
vt 0.5233 0.2940 0.0000
vt 0.5239 0.2965 0.0000
vt 0.5240 0.2965 0.0000
vt 0.5249 0.2992 0.0000
vt 0.5250 0.2992 0.0000
vt 0.5240 0.2859 0.0000
vt 0.5239 0.2860 0.0000
vt 0.5242 0.2868 0.0000
vt 0.5242 0.2869 0.0000
vt 0.5247 0.2888 0.0000
vt 0.5246 0.2889 0.0000
vt 0.5250 0.2909 0.0000
vt 0.5251 0.2908 0.0000
vt 0.5252 0.2915 0.0000
vt 0.5251 0.2916 0.0000
vt 0.5254 0.2927 0.0000
vt 0.5253 0.2927 0.0000
vt 0.5255 0.2938 0.0000
vt 0.5257 0.2949 0.0000
vt 0.5257 0.2950 0.0000
vt 0.5260 0.2963 0.0000
vt 0.5259 0.2963 0.0000
vt 0.5263 0.2975 0.0000
vt 0.5262 0.2975 0.0000
vt 0.5266 0.2987 0.0000
vt 0.5265 0.2988 0.0000
vt 0.5270 0.3002 0.0000
vt 0.5269 0.3002 0.0000
vt 0.5269 0.3003 0.0000
vt 0.5269 0.3004 0.0000
vt 0.5266 0.3006 0.0000
vt 0.5266 0.3007 0.0000
vt 0.5263 0.3010 0.0000
vt 0.5263 0.3011 0.0000
vt 0.5260 0.3014 0.0000
vt 0.5260 0.3015 0.0000
vt 0.5259 0.3015 0.0000
vt 0.5260 0.3016 0.0000
vt 0.5259 0.3019 0.0000
vt 0.5253 0.3017 0.0000
vt 0.5247 0.3013 0.0000
vt 0.5249 0.3009 0.0000
vt 0.5243 0.3004 0.0000
vt 0.5239 0.3007 0.0000
vt 0.5255 0.3013 0.0000
vt 0.5233 0.3001 0.0000
vt 0.5237 0.2997 0.0000
vt 0.5228 0.2993 0.0000
vt 0.5232 0.2990 0.0000
vt 0.5228 0.2982 0.0000
vt 0.5222 0.2984 0.0000
vt 0.5224 0.2974 0.0000
vt 0.5218 0.2975 0.0000
vt 0.5221 0.2966 0.0000
vt 0.5215 0.2966 0.0000
vt 0.5214 0.2940 0.0000
vt 0.5207 0.2940 0.0000
vt 0.5206 0.2910 0.0000
vt 0.5199 0.2911 0.0000
vt 0.5200 0.2886 0.0000
vt 0.5193 0.2885 0.0000
vt 0.5223 0.2996 0.0000
vt 0.5217 0.2987 0.0000
vt 0.5226 0.3005 0.0000
vt 0.5209 0.3007 0.0000
vt 0.5202 0.2988 0.0000
vt 0.5212 0.2977 0.0000
vt 0.5194 0.2967 0.0000
vt 0.5185 0.2940 0.0000
vt 0.5176 0.2911 0.0000
vt 0.5167 0.2884 0.0000
vt 0.5160 0.2858 0.0000
vt 0.5156 0.2845 0.0000
vt 0.5178 0.2847 0.0000
vt 0.5181 0.2860 0.0000
vt 0.5187 0.2885 0.0000
vt 0.5193 0.2910 0.0000
vt 0.5201 0.2940 0.0000
vt 0.5209 0.2966 0.0000
vt 0.5152 0.2832 0.0000
vt 0.5148 0.2819 0.0000
vt 0.5173 0.2823 0.0000
vt 0.5175 0.2835 0.0000
vt 0.5180 0.2824 0.0000
vt 0.5182 0.2836 0.0000
vt 0.5187 0.2826 0.0000
vt 0.5189 0.2837 0.0000
vt 0.5185 0.2848 0.0000
vt 0.5188 0.2860 0.0000
vt 0.5191 0.2849 0.0000
vt 0.5194 0.2861 0.0000
vt 0.5202 0.2862 0.0000
vt 0.5209 0.2886 0.0000
vt 0.5198 0.2850 0.0000
vt 0.5215 0.2911 0.0000
vt 0.5223 0.2940 0.0000
vt 0.5231 0.2966 0.0000
vt 0.5242 0.2995 0.0000
vt 0.5195 0.2839 0.0000
vt 0.5191 0.2827 0.0000
vt 0.5122 0.3003 0.0000
vt 0.5105 0.3003 0.0000
vt 0.5140 0.3004 0.0000
vt 0.5140 0.3005 0.0000
vt 0.5158 0.3006 0.0000
vt 0.5158 0.3005 0.0000
vt 0.5176 0.3007 0.0000
vt 0.5090 0.2999 0.0000
vt 0.5121 0.2985 0.0000
vt 0.5153 0.2987 0.0000
vt 0.5147 0.2965 0.0000
vt 0.5140 0.2938 0.0000
vt 0.5132 0.2910 0.0000
vt 0.5125 0.2883 0.0000
vt 0.5119 0.2857 0.0000
vt 0.5115 0.2844 0.0000
vt 0.5117 0.2963 0.0000
vt 0.5090 0.2984 0.0000
vt 0.5088 0.2963 0.0000
vt 0.5113 0.2937 0.0000
vt 0.5086 0.2938 0.0000
vt 0.5107 0.2910 0.0000
vt 0.5083 0.2911 0.0000
vt 0.5103 0.2883 0.0000
vt 0.5082 0.2883 0.0000
vt 0.5100 0.2857 0.0000
vt 0.5081 0.2856 0.0000
vt 0.5098 0.2844 0.0000
vt 0.5081 0.2844 0.0000
vt 0.5096 0.2831 0.0000
vt 0.5081 0.2831 0.0000
vt 0.5094 0.2818 0.0000
vt 0.5080 0.2817 0.0000
vt 0.5108 0.2818 0.0000
vt 0.5112 0.2831 0.0000
vt 0.5229 0.3004 0.0000
vt 0.5236 0.3011 0.0000
vt 0.5253 0.2991 0.0000
vt 0.5249 0.2964 0.0000
vt 0.5258 0.2989 0.0000
vt 0.5243 0.2965 0.0000
vt 0.5241 0.2939 0.0000
vt 0.5235 0.2940 0.0000
vt 0.5233 0.2910 0.0000
vt 0.5226 0.2910 0.0000
vt 0.5225 0.2887 0.0000
vt 0.5219 0.2887 0.0000
vt 0.5218 0.2865 0.0000
vt 0.5211 0.2864 0.0000
vt 0.5213 0.2854 0.0000
vt 0.5207 0.2852 0.0000
vt 0.5220 0.2856 0.0000
vt 0.5224 0.2866 0.0000
vt 0.5232 0.2888 0.0000
vt 0.5239 0.2910 0.0000
vt 0.5247 0.2939 0.0000
vt 0.5254 0.2963 0.0000
vt 0.5263 0.2988 0.0000
vt 0.5209 0.2843 0.0000
vt 0.5202 0.2840 0.0000
vt 0.5204 0.2831 0.0000
vt 0.5198 0.2829 0.0000
vt 0.5210 0.2833 0.0000
vt 0.5215 0.2845 0.0000
vt 0.5239 0.2888 0.0000
vt 0.5244 0.2910 0.0000
vt 0.5250 0.2939 0.0000
vt 0.5256 0.2963 0.0000
vt 0.5233 0.2867 0.0000
vt 0.5230 0.2858 0.0000
vt 0.5226 0.2848 0.0000
vt 0.5222 0.2838 0.0000
vt 0.4712 0.3053 0.0000
vt 0.4712 0.3054 0.0000
vt 0.4713 0.3054 0.0000
vt 0.4718 0.3052 0.0000
vt 0.4718 0.3051 0.0000
vt 0.4724 0.3049 0.0000
vt 0.4723 0.3049 0.0000
vt 0.4729 0.3047 0.0000
vt 0.4734 0.3045 0.0000
vt 0.4742 0.3042 0.0000
vt 0.4742 0.3043 0.0000
vt 0.4749 0.3041 0.0000
vt 0.4750 0.3041 0.0000
vt 0.4756 0.3039 0.0000
vt 0.4761 0.3038 0.0000
vt 0.4762 0.3038 0.0000
vt 0.4767 0.3021 0.0000
vt 0.4772 0.3003 0.0000
vt 0.4773 0.3003 0.0000
vt 0.4768 0.3021 0.0000
vt 0.4774 0.3003 0.0000
vt 0.4778 0.2981 0.0000
vt 0.4779 0.2981 0.0000
vt 0.4785 0.2958 0.0000
vt 0.4791 0.2935 0.0000
vt 0.4792 0.2935 0.0000
vt 0.4780 0.2981 0.0000
vt 0.4786 0.2958 0.0000
vt 0.4787 0.2958 0.0000
vt 0.4793 0.2935 0.0000
vt 0.4798 0.2914 0.0000
vt 0.4799 0.2914 0.0000
vt 0.4802 0.2903 0.0000
vt 0.4803 0.2903 0.0000
vt 0.4797 0.2914 0.0000
vt 0.4801 0.2903 0.0000
vt 0.4805 0.2892 0.0000
vt 0.4806 0.2892 0.0000
vt 0.4809 0.2881 0.0000
vt 0.4810 0.2881 0.0000
vt 0.4812 0.2870 0.0000
vt 0.4813 0.2870 0.0000
vt 0.4808 0.2881 0.0000
vt 0.4804 0.2892 0.0000
vt 0.4823 0.2869 0.0000
vt 0.4832 0.2868 0.0000
vt 0.4841 0.2870 0.0000
vt 0.4841 0.2869 0.0000
vt 0.4801 0.2871 0.0000
vt 0.4791 0.2872 0.0000
vt 0.4791 0.2873 0.0000
vt 0.4780 0.2875 0.0000
vt 0.4770 0.2878 0.0000
vt 0.4764 0.2880 0.0000
vt 0.4759 0.2881 0.0000
vt 0.4759 0.2882 0.0000
vt 0.4756 0.2882 0.0000
vt 0.4756 0.2883 0.0000
vt 0.4754 0.2883 0.0000
vt 0.4753 0.2884 0.0000
vt 0.4753 0.2883 0.0000
vt 0.4748 0.2886 0.0000
vt 0.4748 0.2887 0.0000
vt 0.4751 0.2893 0.0000
vt 0.4750 0.2893 0.0000
vt 0.4748 0.2903 0.0000
vt 0.4747 0.2903 0.0000
vt 0.4743 0.2889 0.0000
vt 0.4743 0.2890 0.0000
vt 0.4733 0.2895 0.0000
vt 0.4724 0.2900 0.0000
vt 0.4723 0.2901 0.0000
vt 0.4721 0.2907 0.0000
vt 0.4719 0.2914 0.0000
vt 0.4745 0.2913 0.0000
vt 0.4744 0.2913 0.0000
vt 0.4742 0.2922 0.0000
vt 0.4741 0.2922 0.0000
vt 0.4737 0.2942 0.0000
vt 0.4733 0.2961 0.0000
vt 0.4732 0.2961 0.0000
vt 0.4728 0.2986 0.0000
vt 0.4727 0.2986 0.0000
vt 0.4724 0.3007 0.0000
vt 0.4723 0.3007 0.0000
vt 0.4718 0.3029 0.0000
vt 0.4717 0.3029 0.0000
vt 0.4717 0.2921 0.0000
vt 0.4715 0.2929 0.0000
vt 0.4716 0.2929 0.0000
vt 0.4713 0.2945 0.0000
vt 0.4714 0.2945 0.0000
vt 0.4712 0.2962 0.0000
vt 0.4711 0.2961 0.0000
vt 0.4711 0.2967 0.0000
vt 0.4710 0.2976 0.0000
vt 0.4711 0.2976 0.0000
vt 0.4709 0.2985 0.0000
vt 0.4710 0.2986 0.0000
vt 0.4708 0.2995 0.0000
vt 0.4709 0.2995 0.0000
vt 0.4707 0.3006 0.0000
vt 0.4708 0.3006 0.0000
vt 0.4706 0.3016 0.0000
vt 0.4704 0.3026 0.0000
vt 0.4701 0.3038 0.0000
vt 0.4702 0.3038 0.0000
vt 0.4702 0.3039 0.0000
vt 0.4702 0.3040 0.0000
vt 0.4705 0.3041 0.0000
vt 0.4705 0.3042 0.0000
vt 0.4708 0.3045 0.0000
vt 0.4710 0.3048 0.0000
vt 0.4711 0.3048 0.0000
vt 0.4710 0.3049 0.0000
vt 0.4712 0.3051 0.0000
vt 0.4711 0.3051 0.0000
vt 0.4716 0.3049 0.0000
vt 0.4721 0.3046 0.0000
vt 0.4718 0.3043 0.0000
vt 0.4723 0.3038 0.0000
vt 0.4726 0.3041 0.0000
vt 0.4714 0.3046 0.0000
vt 0.4731 0.3035 0.0000
vt 0.4728 0.3032 0.0000
vt 0.4735 0.3028 0.0000
vt 0.4731 0.3026 0.0000
vt 0.4734 0.3019 0.0000
vt 0.4739 0.3021 0.0000
vt 0.4736 0.3013 0.0000
vt 0.4741 0.3013 0.0000
vt 0.4738 0.3006 0.0000
vt 0.4743 0.3006 0.0000
vt 0.4743 0.2985 0.0000
vt 0.4748 0.2984 0.0000
vt 0.4747 0.2960 0.0000
vt 0.4753 0.2960 0.0000
vt 0.4751 0.2940 0.0000
vt 0.4756 0.2939 0.0000
vt 0.4739 0.3030 0.0000
vt 0.4734 0.3037 0.0000
vt 0.4737 0.3038 0.0000
vt 0.4743 0.3022 0.0000
vt 0.4751 0.3038 0.0000
vt 0.4755 0.3022 0.0000
vt 0.4746 0.3014 0.0000
vt 0.4748 0.3005 0.0000
vt 0.4761 0.3005 0.0000
vt 0.4766 0.2983 0.0000
vt 0.4772 0.2959 0.0000
vt 0.4777 0.2937 0.0000
vt 0.4782 0.2916 0.0000
vt 0.4784 0.2905 0.0000
vt 0.4766 0.2908 0.0000
vt 0.4765 0.2918 0.0000
vt 0.4761 0.2939 0.0000
vt 0.4758 0.2960 0.0000
vt 0.4753 0.2984 0.0000
vt 0.4786 0.2894 0.0000
vt 0.4789 0.2883 0.0000
vt 0.4769 0.2888 0.0000
vt 0.4768 0.2898 0.0000
vt 0.4763 0.2889 0.0000
vt 0.4762 0.2899 0.0000
vt 0.4758 0.2891 0.0000
vt 0.4757 0.2901 0.0000
vt 0.4761 0.2909 0.0000
vt 0.4759 0.2919 0.0000
vt 0.4755 0.2910 0.0000
vt 0.4754 0.2920 0.0000
vt 0.4748 0.2921 0.0000
vt 0.4744 0.2941 0.0000
vt 0.4750 0.2911 0.0000
vt 0.4740 0.2961 0.0000
vt 0.4735 0.2985 0.0000
vt 0.4731 0.3007 0.0000
vt 0.4723 0.3031 0.0000
vt 0.4752 0.2902 0.0000
vt 0.4754 0.2892 0.0000
vt 0.4840 0.3030 0.0000
vt 0.4821 0.3036 0.0000
vt 0.4827 0.3028 0.0000
vt 0.4835 0.3037 0.0000
vt 0.4806 0.3032 0.0000
vt 0.4792 0.3034 0.0000
vt 0.4777 0.3036 0.0000
vt 0.4844 0.3026 0.0000
vt 0.4843 0.3035 0.0000
vt 0.4820 0.3015 0.0000
vt 0.4795 0.3018 0.0000
vt 0.4798 0.3001 0.0000
vt 0.4802 0.2979 0.0000
vt 0.4807 0.2956 0.0000
vt 0.4811 0.2933 0.0000
vt 0.4815 0.2912 0.0000
vt 0.4817 0.2902 0.0000
vt 0.4822 0.2998 0.0000
vt 0.4844 0.3015 0.0000
vt 0.4845 0.2996 0.0000
vt 0.4824 0.2977 0.0000
vt 0.4846 0.2976 0.0000
vt 0.4827 0.2954 0.0000
vt 0.4846 0.2954 0.0000
vt 0.4828 0.2932 0.0000
vt 0.4846 0.2931 0.0000
vt 0.4830 0.2911 0.0000
vt 0.4845 0.2910 0.0000
vt 0.4831 0.2900 0.0000
vt 0.4844 0.2899 0.0000
vt 0.4831 0.2890 0.0000
vt 0.4844 0.2889 0.0000
vt 0.4832 0.2879 0.0000
vt 0.4844 0.2878 0.0000
vt 0.4821 0.2880 0.0000
vt 0.4819 0.2891 0.0000
vt 0.4729 0.3043 0.0000
vt 0.4716 0.3006 0.0000
vt 0.4714 0.3028 0.0000
vt 0.4710 0.3027 0.0000
vt 0.4721 0.3007 0.0000
vt 0.4721 0.2986 0.0000
vt 0.4726 0.2986 0.0000
vt 0.4726 0.2962 0.0000
vt 0.4731 0.2961 0.0000
vt 0.4730 0.2943 0.0000
vt 0.4735 0.2942 0.0000
vt 0.4735 0.2924 0.0000
vt 0.4740 0.2923 0.0000
vt 0.4738 0.2915 0.0000
vt 0.4743 0.2913 0.0000
vt 0.4733 0.2917 0.0000
vt 0.4730 0.2925 0.0000
vt 0.4725 0.2943 0.0000
vt 0.4721 0.2962 0.0000
vt 0.4716 0.2986 0.0000
vt 0.4711 0.3006 0.0000
vt 0.4706 0.3026 0.0000
vt 0.4741 0.2906 0.0000
vt 0.4746 0.2904 0.0000
vt 0.4745 0.2896 0.0000
vt 0.4749 0.2894 0.0000
vt 0.4740 0.2898 0.0000
vt 0.4736 0.2908 0.0000
vt 0.4719 0.2944 0.0000
vt 0.4716 0.2962 0.0000
vt 0.4713 0.2986 0.0000
vt 0.4710 0.3006 0.0000
vt 0.4723 0.2927 0.0000
vt 0.4725 0.2919 0.0000
vt 0.4728 0.2911 0.0000
vt 0.4730 0.2903 0.0000
# 509 texture coords

o Cofre
g Cofre
usemtl 03___Default
s off
f 1/1/1 2/2/2 3/3/3 
f 1/1/1 4/1/2 2/2/2 
f 5/1/4 4/1/2 1/1/1 
f 5/1/4 6/1/2 4/1/2 
f 7/4/5 6/1/2 5/1/4 
f 7/4/5 8/4/6 6/1/2 
f 9/5/7 8/4/6 7/4/5 
f 9/5/7 10/6/8 8/4/6 
f 9/5/7 11/7/9 10/6/8 
f 9/5/7 12/8/10 11/7/9 
f 12/8/10 13/9/11 11/7/9 
f 12/8/10 14/9/12 13/9/11 
f 14/9/12 15/10/13 13/9/11 
f 14/9/12 16/11/14 15/10/13 
f 16/11/14 17/12/15 15/10/13 
f 16/11/14 18/12/16 17/12/15 
f 18/12/16 19/13/17 17/12/15 
f 18/12/16 20/13/18 19/13/17 
f 20/13/18 21/14/19 19/13/17 
f 20/13/18 22/15/20 21/14/19 
f 22/15/20 23/14/21 21/14/19 
f 24/16/22 23/14/21 22/15/20 
f 24/16/22 25/16/23 23/14/21 
f 23/14/21 26/17/24 21/14/19 
f 23/14/21 27/18/25 26/17/24 
f 27/18/25 23/14/21 25/16/23 
f 27/18/25 28/19/26 26/17/24 
f 27/18/25 29/19/27 28/19/26 
f 30/20/28 29/19/27 27/18/25 
f 27/18/25 25/16/23 30/20/28 
f 30/20/28 31/21/29 29/19/27 
f 32/22/30 28/19/26 29/19/27 
f 32/22/30 29/19/27 33/22/31 
f 34/23/32 32/22/30 33/22/31 
f 34/23/32 33/22/31 35/23/33 
f 36/24/34 34/23/32 35/23/33 
f 36/24/34 35/23/33 37/25/35 
f 38/22/36 29/19/27 31/21/29 
f 38/22/36 35/23/33 33/22/31 
f 38/22/36 33/22/31 29/19/27 
f 38/22/36 31/21/29 39/26/37 
f 40/27/38 38/22/36 39/26/37 
f 38/22/36 40/27/38 35/23/33 
f 37/25/35 35/23/33 40/27/38 
f 40/27/38 39/26/37 41/28/39 
f 42/29/40 40/27/38 41/28/39 
f 37/25/35 40/27/38 42/29/40 
f 42/29/40 41/28/39 43/30/41 
f 44/31/42 42/29/40 43/30/41 
f 44/31/42 43/30/41 45/32/43 
f 46/33/44 44/31/42 45/32/43 
f 46/33/44 45/32/43 47/34/45 
f 37/25/35 48/35/46 36/24/34 
f 37/25/35 49/31/42 48/35/46 
f 42/29/40 49/31/42 37/25/35 
f 42/29/40 44/31/42 49/31/42 
f 50/36/47 48/35/46 49/31/42 
f 50/36/47 49/31/42 51/33/48 
f 51/33/48 44/31/42 46/33/44 
f 51/33/48 49/31/42 44/31/42 
f 52/37/49 46/33/44 47/34/45 
f 52/37/49 47/34/45 53/38/50 
f 54/39/51 52/37/49 53/38/50 
f 54/39/51 53/38/50 55/40/52 
f 55/40/52 56/41/53 54/39/51 
f 55/40/52 57/42/54 56/41/53 
f 58/41/55 56/41/53 57/42/54 
f 56/41/53 58/41/55 59/41/56 
f 56/41/53 59/41/56 60/41/57 
f 54/39/51 56/41/53 60/41/57 
f 58/41/55 57/42/54 61/43/58 
f 54/39/51 60/41/57 62/44/59 
f 63/37/60 54/39/51 62/44/59 
f 52/37/49 54/39/51 63/37/60 
f 63/37/60 62/44/59 64/45/61 
f 51/33/48 64/45/61 50/36/47 
f 51/33/48 63/37/60 64/45/61 
f 61/43/58 57/42/54 65/46/62 
f 61/43/58 65/46/62 66/47/58 
f 66/47/58 65/46/62 67/48/63 
f 66/47/58 67/48/63 68/49/64 
f 68/49/64 67/48/63 69/50/65 
f 68/49/64 69/50/65 70/51/66 
f 60/41/57 59/41/56 71/52/67 
f 60/41/57 71/52/67 72/52/68 
f 62/44/59 60/41/57 72/52/68 
f 72/52/68 71/52/67 73/53/69 
f 72/52/68 73/53/69 74/53/70 
f 74/53/70 73/53/69 75/54/71 
f 74/53/70 75/54/71 76/54/72 
f 76/54/72 75/54/71 77/55/73 
f 76/54/72 77/55/73 78/56/74 
f 78/56/74 77/55/73 79/57/75 
f 78/56/74 79/57/75 80/58/76 
f 80/58/76 79/57/75 81/59/77 
f 80/58/76 81/59/77 82/59/78 
f 82/59/78 81/59/77 83/60/79 
f 82/59/78 83/60/79 84/60/80 
f 84/60/80 83/60/79 85/61/81 
f 84/60/80 85/61/81 86/62/82 
f 86/62/82 85/61/81 87/62/83 
f 86/62/82 87/62/83 88/63/84 
f 88/63/84 87/62/83 89/63/85 
f 88/63/84 89/63/85 90/64/86 
f 90/64/86 89/63/85 91/65/87 
f 90/64/86 91/65/87 92/66/88 
f 93/67/89 86/62/82 88/63/84 
f 93/67/89 88/63/84 94/67/90 
f 94/67/90 88/63/84 90/64/86 
f 95/68/91 93/67/89 94/67/90 
f 95/68/91 94/67/90 96/69/92 
f 92/66/88 91/65/87 97/70/93 
f 92/66/88 97/70/93 98/70/94 
f 98/70/94 97/70/93 99/71/95 
f 98/70/94 99/71/95 100/72/96 
f 100/72/96 99/71/95 101/73/97 
f 100/72/96 101/73/97 102/74/98 
f 102/74/98 101/73/97 103/75/99 
f 102/74/98 103/75/99 104/74/98 
f 104/74/98 103/75/99 105/76/100 
f 104/74/98 105/76/100 106/77/101 
f 106/77/101 105/76/100 107/78/102 
f 106/77/101 107/78/102 108/79/103 
f 109/80/104 95/68/91 96/69/92 
f 109/80/104 96/69/92 110/80/105 
f 110/80/105 111/81/106 109/80/104 
f 110/80/105 112/82/107 111/81/106 
f 113/83/108 111/81/106 112/82/107 
f 113/83/108 112/82/107 114/83/109 
f 114/83/109 115/84/110 113/83/108 
f 114/83/109 116/85/111 115/84/110 
f 117/86/112 115/84/110 116/85/111 
f 117/86/112 116/85/111 118/87/113 
f 119/88/114 117/86/112 118/87/113 
f 119/88/114 118/87/113 120/89/115 
f 121/90/116 119/88/114 120/89/115 
f 121/90/116 120/89/115 122/91/117 
f 108/79/103 107/78/102 123/92/118 
f 108/79/103 123/92/118 124/93/119 
f 124/93/119 123/92/118 125/94/120 
f 124/93/119 125/94/120 126/95/121 
f 126/95/121 125/94/120 127/96/122 
f 126/95/121 127/96/122 128/97/123 
f 129/98/124 128/97/123 127/96/122 
f 129/98/124 127/96/122 130/99/125 
f 131/100/126 129/98/124 130/99/125 
f 131/100/126 132/101/127 129/98/124 
f 133/102/128 132/101/127 131/100/126 
f 133/102/128 134/103/129 132/101/127 
f 135/104/130 134/103/129 133/102/128 
f 135/104/130 136/104/131 134/103/129 
f 137/105/132 136/104/131 135/104/130 
f 137/105/132 138/106/133 136/104/131 
f 139/107/134 138/106/133 137/105/132 
f 139/107/134 140/108/135 138/106/133 
f 141/109/136 140/108/135 139/107/134 
f 141/109/136 142/110/137 140/108/135 
f 143/111/138 142/110/137 141/109/136 
f 143/111/138 144/112/139 142/110/137 
f 145/113/140 144/112/139 143/111/138 
f 145/113/140 146/113/141 144/112/139 
f 147/114/141 146/113/141 145/113/140 
f 147/114/141 145/113/140 148/115/142 
f 148/115/142 149/115/141 147/114/141 
f 148/115/142 150/116/143 149/115/141 
f 150/116/143 151/117/144 149/115/141 
f 150/116/143 152/118/145 151/117/144 
f 152/118/145 153/119/146 151/117/144 
f 152/118/145 154/120/147 153/119/146 
f 154/120/147 155/121/146 153/119/146 
f 154/120/147 156/122/148 155/121/146 
f 156/122/148 157/123/149 155/121/146 
f 156/122/148 158/124/150 157/123/149 
f 158/124/150 159/125/149 157/123/149 
f 158/124/150 160/125/151 159/125/149 
f 160/125/151 2/2/2 159/125/149 
f 160/125/151 3/3/3 2/2/2 
f 121/90/116 155/121/146 157/123/149 
f 121/90/116 122/91/117 155/121/146 
f 122/91/117 153/119/146 155/121/146 
f 2/2/2 161/126/149 159/125/149 
f 4/1/2 161/126/149 2/2/2 
f 4/1/2 6/1/2 161/126/149 
f 161/126/149 6/1/2 8/4/6 
f 162/127/152 161/126/149 8/4/6 
f 163/128/153 161/126/149 162/127/152 
f 164/129/154 163/128/153 162/127/152 
f 164/129/154 162/127/152 165/130/152 
f 163/128/153 166/131/149 161/126/149 
f 166/131/149 159/125/149 161/126/149 
f 163/128/153 121/90/116 166/131/149 
f 167/132/149 164/129/154 165/130/152 
f 167/132/149 168/133/155 164/129/154 
f 169/134/152 168/133/155 167/132/149 
f 169/134/152 170/135/155 168/133/155 
f 169/134/152 171/136/156 170/135/155 
f 169/134/152 172/137/152 171/136/156 
f 172/137/152 173/138/156 171/136/156 
f 172/137/152 174/139/157 173/138/156 
f 174/139/157 175/140/26 173/138/156 
f 174/139/157 176/141/158 175/140/26 
f 177/142/159 175/140/26 176/141/158 
f 177/142/159 176/141/158 178/143/160 
f 178/143/160 179/144/161 177/142/159 
f 178/143/160 180/145/162 179/144/161 
f 181/146/163 179/144/161 180/145/162 
f 181/146/163 180/145/162 182/147/164 
f 183/148/165 169/134/152 167/132/149 
f 183/148/165 172/137/152 169/134/152 
f 183/148/165 184/149/166 172/137/152 
f 184/149/166 174/139/157 172/137/152 
f 183/148/165 185/150/167 184/149/166 
f 186/151/15 184/149/166 185/150/167 
f 186/151/15 187/152/168 184/149/166 
f 187/152/168 188/153/6 184/149/166 
f 184/149/166 188/153/6 174/139/157 
f 188/153/6 176/141/158 174/139/157 
f 189/154/169 188/153/6 187/152/168 
f 26/17/24 189/154/169 187/152/168 
f 26/17/24 28/19/26 189/154/169 
f 28/19/26 190/155/170 189/154/169 
f 28/19/26 32/22/30 190/155/170 
f 32/22/30 191/156/171 190/155/170 
f 32/22/30 34/23/32 191/156/171 
f 34/23/32 192/157/172 191/156/171 
f 34/23/32 36/24/34 192/157/172 
f 36/24/34 193/158/173 192/157/172 
f 36/24/34 48/35/46 193/158/173 
f 48/35/46 194/159/174 193/158/173 
f 48/35/46 50/36/47 194/159/174 
f 193/158/173 194/159/174 195/160/175 
f 193/158/173 195/160/175 196/161/176 
f 192/157/172 193/158/173 196/161/176 
f 192/157/172 196/161/176 197/162/177 
f 191/156/171 192/157/172 197/162/177 
f 191/156/171 197/162/177 198/163/178 
f 190/155/170 191/156/171 198/163/178 
f 190/155/170 198/163/178 199/164/179 
f 189/154/169 190/155/170 199/164/179 
f 189/154/169 199/164/179 200/165/180 
f 189/154/169 200/165/180 188/153/6 
f 50/36/47 201/166/181 194/159/174 
f 50/36/47 64/45/61 201/166/181 
f 64/45/61 202/167/182 201/166/181 
f 64/45/61 62/44/59 202/167/182 
f 62/44/59 72/52/68 202/167/182 
f 201/166/181 202/167/182 203/168/183 
f 201/166/181 203/168/183 204/169/184 
f 194/159/174 204/169/184 195/160/175 
f 194/159/174 201/166/181 204/169/184 
f 74/53/70 202/167/182 72/52/68 
f 202/167/182 74/53/70 76/54/72 
f 203/168/183 202/167/182 76/54/72 
f 203/168/183 76/54/72 78/56/74 
f 188/153/6 200/165/180 176/141/158 
f 178/143/160 200/165/180 199/164/179 
f 178/143/160 176/141/158 200/165/180 
f 204/169/184 203/168/183 205/170/185 
f 204/169/184 205/170/185 206/171/186 
f 206/171/186 205/170/185 207/172/187 
f 206/171/186 207/172/187 208/173/188 
f 203/168/183 80/58/76 205/170/185 
f 203/168/183 78/56/74 80/58/76 
f 205/170/185 82/59/78 207/172/187 
f 205/170/185 80/58/76 82/59/78 
f 195/160/175 204/169/184 206/171/186 
f 195/160/175 206/171/186 209/174/189 
f 209/174/189 206/171/186 208/173/188 
f 209/174/189 196/161/176 195/160/175 
f 209/174/189 210/175/190 196/161/176 
f 211/176/191 210/175/190 209/174/189 
f 209/174/189 208/173/188 211/176/191 
f 211/176/191 212/177/192 210/175/190 
f 197/162/177 196/161/176 210/175/190 
f 197/162/177 210/175/190 182/147/164 
f 182/147/164 210/175/190 212/177/192 
f 182/147/164 198/163/178 197/162/177 
f 182/147/164 180/145/162 198/163/178 
f 199/164/179 198/163/178 180/145/162 
f 199/164/179 180/145/162 178/143/160 
f 182/147/164 212/177/192 181/146/163 
f 181/146/163 212/177/192 213/178/193 
f 181/146/163 213/178/193 214/179/194 
f 214/179/194 213/178/193 111/81/106 
f 109/80/104 111/81/106 213/178/193 
f 109/80/104 213/178/193 215/180/195 
f 215/180/195 212/177/192 211/176/191 
f 215/180/195 213/178/193 212/177/192 
f 214/179/194 111/81/106 113/83/108 
f 113/83/108 216/181/196 214/179/194 
f 113/83/108 115/84/110 216/181/196 
f 217/182/170 216/181/196 115/84/110 
f 217/182/170 115/84/110 117/86/112 
f 218/183/197 217/182/170 117/86/112 
f 218/183/197 117/86/112 119/88/114 
f 175/140/26 217/182/170 218/183/197 
f 175/140/26 177/142/159 217/182/170 
f 177/142/159 216/181/196 217/182/170 
f 177/142/159 179/144/161 216/181/196 
f 214/179/194 179/144/161 181/146/163 
f 214/179/194 216/181/196 179/144/161 
f 219/184/153 218/183/197 119/88/114 
f 219/184/153 170/135/155 218/183/197 
f 219/184/153 168/133/155 170/135/155 
f 219/184/153 119/88/114 121/90/116 
f 215/180/195 95/68/91 109/80/104 
f 215/180/195 220/185/198 95/68/91 
f 220/185/198 93/67/89 95/68/91 
f 220/185/198 221/186/199 93/67/89 
f 221/186/199 86/62/82 93/67/89 
f 221/186/199 84/60/80 86/62/82 
f 208/173/188 221/186/199 220/185/198 
f 208/173/188 207/172/187 221/186/199 
f 207/172/187 84/60/80 221/186/199 
f 207/172/187 82/59/78 84/60/80 
f 211/176/191 220/185/198 215/180/195 
f 211/176/191 208/173/188 220/185/198 
f 219/184/153 121/90/116 163/128/153 
f 219/184/153 164/129/154 168/133/155 
f 219/184/153 163/128/153 164/129/154 
f 166/131/149 121/90/116 157/123/149 
f 166/131/149 157/123/149 159/125/149 
f 222/187/200 223/188/201 224/187/202 
f 222/187/200 225/188/203 223/188/201 
f 222/187/200 224/187/202 226/189/204 
f 222/187/200 226/189/204 227/190/205 
f 228/191/206 227/190/205 226/189/204 
f 228/191/206 226/189/204 229/192/204 
f 230/193/207 228/191/206 229/192/204 
f 230/193/207 229/192/204 231/193/23 
f 24/16/22 230/193/207 231/193/23 
f 24/16/22 231/193/23 25/16/23 
f 225/188/203 232/194/208 223/188/201 
f 225/188/203 233/194/209 232/194/208 
f 223/188/201 234/195/210 224/187/202 
f 226/189/204 224/187/202 234/195/210 
f 231/193/23 30/20/28 25/16/23 
f 229/192/204 226/189/204 235/196/211 
f 231/193/23 235/196/211 30/20/28 
f 231/193/23 229/192/204 235/196/211 
f 226/189/204 234/195/210 235/196/211 
f 235/196/211 31/21/29 30/20/28 
f 235/196/211 236/197/212 31/21/29 
f 234/195/210 236/197/212 235/196/211 
f 236/197/212 39/26/37 31/21/29 
f 236/197/212 237/198/213 39/26/37 
f 237/198/213 41/28/39 39/26/37 
f 237/198/213 238/199/39 41/28/39 
f 238/199/39 43/30/41 41/28/39 
f 238/199/39 239/200/41 43/30/41 
f 239/200/41 45/32/43 43/30/41 
f 239/200/41 240/201/214 45/32/43 
f 240/201/214 47/34/45 45/32/43 
f 240/201/214 241/202/215 47/34/45 
f 234/195/210 242/203/216 236/197/212 
f 242/203/216 237/198/213 236/197/212 
f 243/204/217 242/203/216 234/195/210 
f 243/204/217 244/205/218 242/203/216 
f 244/205/218 245/206/219 242/203/216 
f 242/203/216 245/206/219 237/198/213 
f 245/206/219 238/199/39 237/198/213 
f 244/205/218 246/207/220 245/206/219 
f 246/207/220 247/208/221 245/206/219 
f 245/206/219 247/208/221 238/199/39 
f 247/208/221 239/200/41 238/199/39 
f 246/207/220 248/209/222 247/208/221 
f 248/209/222 249/210/223 247/208/221 
f 247/208/221 249/210/223 239/200/41 
f 249/210/223 240/201/214 239/200/41 
f 248/209/222 250/211/224 249/210/223 
f 250/211/224 251/212/225 249/210/223 
f 249/210/223 251/212/225 240/201/214 
f 251/212/225 241/202/215 240/201/214 
f 250/211/224 252/213/226 251/212/225 
f 252/213/226 253/214/227 251/212/225 
f 251/212/225 253/214/227 241/202/215 
f 252/213/226 254/215/228 253/214/227 
f 254/215/228 255/216/229 253/214/227 
f 254/215/228 256/217/230 255/216/229 
f 256/217/230 257/218/231 255/216/229 
f 256/217/230 258/219/232 257/218/231 
f 258/219/232 67/48/63 257/218/231 
f 258/219/232 69/50/65 67/48/63 
f 255/216/229 257/218/231 259/220/233 
f 255/216/229 259/220/233 260/221/234 
f 253/214/227 255/216/229 260/221/234 
f 260/221/234 259/220/233 55/40/52 
f 259/220/233 57/42/54 55/40/52 
f 259/220/233 65/46/62 57/42/54 
f 257/218/231 65/46/62 259/220/233 
f 257/218/231 67/48/63 65/46/62 
f 260/221/234 55/40/52 53/38/50 
f 253/214/227 260/221/234 241/202/215 
f 241/202/215 260/221/234 53/38/50 
f 241/202/215 53/38/50 47/34/45 
f 223/188/201 243/204/217 234/195/210 
f 223/188/201 232/194/208 243/204/217 
f 46/33/44 63/37/60 51/33/48 
f 46/33/44 52/37/49 63/37/60 
f 19/13/17 186/151/15 17/12/15 
f 19/13/17 21/14/19 186/151/15 
f 21/14/19 187/152/168 186/151/15 
f 21/14/19 26/17/24 187/152/168 
f 186/151/15 15/10/13 17/12/15 
f 186/151/15 185/150/167 15/10/13 
f 185/150/167 13/9/11 15/10/13 
f 261/222/235 13/9/11 185/150/167 
f 183/148/165 261/222/235 185/150/167 
f 261/222/235 262/223/8 13/9/11 
f 262/223/8 11/7/9 13/9/11 
f 262/223/8 10/6/8 11/7/9 
f 262/223/8 162/127/152 10/6/8 
f 162/127/152 8/4/6 10/6/8 
f 262/223/8 165/130/152 162/127/152 
f 261/222/235 165/130/152 262/223/8 
f 261/222/235 167/132/149 165/130/152 
f 183/148/165 167/132/149 261/222/235 
f 171/136/156 218/183/197 170/135/155 
f 173/138/156 218/183/197 171/136/156 
f 173/138/156 175/140/26 218/183/197 
f 263/224/236 264/225/237 265/226/238 
f 263/224/236 266/227/239 264/225/237 
f 266/227/239 267/228/240 264/225/237 
f 266/227/239 268/229/241 267/228/240 
f 268/229/241 269/230/242 267/228/240 
f 268/229/241 270/231/243 269/230/242 
f 271/232/244 269/230/242 270/231/243 
f 271/232/244 270/231/243 272/233/245 
f 272/233/245 273/234/246 271/232/244 
f 272/233/245 274/235/247 273/234/246 
f 275/236/248 273/234/246 274/235/247 
f 275/236/248 274/235/247 276/237/249 
f 277/238/250 273/234/246 275/236/248 
f 277/238/250 278/239/251 273/234/246 
f 271/232/244 273/234/246 278/239/251 
f 271/232/244 278/239/251 279/240/252 
f 279/240/252 269/230/242 271/232/244 
f 279/240/252 280/241/253 269/230/242 
f 267/228/240 269/230/242 280/241/253 
f 267/228/240 280/241/253 281/242/254 
f 264/225/237 267/228/240 281/242/254 
f 264/225/237 281/242/254 282/243/255 
f 265/226/238 264/225/237 282/243/255 
f 265/226/238 282/243/255 283/244/139 
f 276/237/249 284/245/256 275/236/248 
f 276/237/249 285/246/257 284/245/256 
f 285/246/257 286/247/258 284/245/256 
f 285/246/257 287/248/259 286/247/258 
f 287/248/259 92/66/88 286/247/258 
f 287/248/259 90/64/86 92/66/88 
f 286/247/258 92/66/88 98/70/94 
f 286/247/258 98/70/94 288/249/260 
f 284/245/256 286/247/258 288/249/260 
f 284/245/256 288/249/260 289/250/261 
f 275/236/248 284/245/256 289/250/261 
f 275/236/248 289/250/261 277/238/250 
f 265/226/238 283/244/139 149/115/141 
f 265/226/238 149/115/141 151/117/144 
f 263/224/236 265/226/238 151/117/144 
f 263/224/236 151/117/144 153/119/146 
f 96/69/92 287/248/259 285/246/257 
f 96/69/92 94/67/90 287/248/259 
f 94/67/90 90/64/86 287/248/259 
f 110/80/105 96/69/92 285/246/257 
f 122/91/117 263/224/236 153/119/146 
f 122/91/117 266/227/239 263/224/236 
f 122/91/117 120/89/115 266/227/239 
f 120/89/115 268/229/241 266/227/239 
f 120/89/115 118/87/113 268/229/241 
f 118/87/113 270/231/243 268/229/241 
f 118/87/113 116/85/111 270/231/243 
f 272/233/245 270/231/243 116/85/111 
f 272/233/245 116/85/111 114/83/109 
f 114/83/109 274/235/247 272/233/245 
f 114/83/109 112/82/107 274/235/247 
f 276/237/249 112/82/107 110/80/105 
f 276/237/249 274/235/247 112/82/107 
f 110/80/105 285/246/257 276/237/249 
f 290/251/262 280/241/253 279/240/252 
f 290/251/262 291/252/263 280/241/253 
f 281/242/254 280/241/253 291/252/263 
f 281/242/254 291/252/263 292/253/264 
f 292/253/264 282/243/255 281/242/254 
f 292/253/264 293/254/265 282/243/255 
f 279/240/252 294/255/266 290/251/262 
f 279/240/252 278/239/251 294/255/266 
f 278/239/251 295/256/267 294/255/266 
f 278/239/251 277/238/250 295/256/267 
f 294/255/266 295/256/267 124/93/119 
f 294/255/266 124/93/119 126/95/121 
f 290/251/262 294/255/266 126/95/121 
f 290/251/262 126/95/121 128/97/123 
f 128/97/123 291/252/263 290/251/262 
f 128/97/123 129/98/124 291/252/263 
f 291/252/263 129/98/124 132/101/127 
f 277/238/250 296/257/268 295/256/267 
f 277/238/250 289/250/261 296/257/268 
f 289/250/261 297/258/269 296/257/268 
f 289/250/261 288/249/260 297/258/269 
f 296/257/268 297/258/269 106/77/101 
f 297/258/269 104/74/98 106/77/101 
f 102/74/98 104/74/98 297/258/269 
f 102/74/98 297/258/269 100/72/96 
f 288/249/260 100/72/96 297/258/269 
f 296/257/268 106/77/101 108/79/103 
f 295/256/267 108/79/103 124/93/119 
f 295/256/267 296/257/268 108/79/103 
f 288/249/260 98/70/94 100/72/96 
f 291/252/263 132/101/127 134/103/129 
f 291/252/263 134/103/129 292/253/264 
f 292/253/264 134/103/129 136/104/131 
f 292/253/264 136/104/131 138/106/133 
f 293/254/265 292/253/264 138/106/133 
f 293/254/265 138/106/133 140/108/135 
f 140/108/135 283/244/139 293/254/265 
f 142/110/137 283/244/139 140/108/135 
f 283/244/139 142/110/137 144/112/139 
f 144/112/139 146/113/141 283/244/139 
f 283/244/139 146/113/141 147/114/141 
f 283/244/139 147/114/141 149/115/270 
f 283/244/139 282/243/255 293/254/265 
f 298/259/271 299/260/272 300/260/273 
f 298/259/271 301/260/271 299/260/272 
f 302/261/274 299/260/272 301/260/271 
f 302/261/274 301/260/271 303/261/271 
f 304/262/275 302/261/274 303/261/271 
f 304/262/275 303/261/271 305/263/276 
f 306/264/277 304/262/275 305/263/276 
f 306/264/277 305/263/276 307/265/278 
f 308/266/279 306/264/277 307/265/278 
f 308/266/279 309/266/280 306/264/277 
f 310/267/281 309/266/280 308/266/279 
f 310/267/281 311/267/282 309/266/280 
f 312/268/283 311/267/282 310/267/281 
f 312/268/283 313/269/284 311/267/282 
f 314/270/285 313/269/284 312/268/283 
f 314/270/285 315/271/286 313/269/284 
f 316/272/287 315/271/286 314/270/285 
f 316/272/287 317/272/288 315/271/286 
f 318/273/289 317/272/288 316/272/287 
f 318/273/289 319/274/290 317/272/288 
f 320/274/291 319/274/290 318/273/289 
f 321/274/292 319/274/290 320/274/291 
f 321/274/292 320/274/291 322/274/293 
f 323/275/294 320/274/291 318/273/289 
f 323/275/294 324/275/295 320/274/291 
f 322/274/293 320/274/291 324/275/295 
f 325/276/296 324/275/295 323/275/294 
f 325/276/296 326/277/297 324/275/295 
f 326/277/297 327/278/298 324/275/295 
f 322/274/293 324/275/295 327/278/298 
f 326/277/297 328/279/299 327/278/298 
f 329/280/300 326/277/297 325/276/296 
f 329/280/300 330/281/301 326/277/297 
f 331/282/302 330/281/301 329/280/300 
f 331/282/302 332/282/303 330/281/301 
f 333/283/304 332/282/303 331/282/302 
f 333/283/304 334/284/305 332/282/303 
f 328/279/299 326/277/297 335/281/306 
f 332/282/303 335/281/306 330/281/301 
f 330/281/301 335/281/306 326/277/297 
f 328/279/299 335/281/306 336/285/307 
f 336/285/307 335/281/306 337/286/308 
f 332/282/303 337/286/308 335/281/306 
f 334/284/305 337/286/308 332/282/303 
f 336/285/307 337/286/308 338/287/309 
f 338/287/309 337/286/308 339/284/310 
f 334/284/305 339/284/310 337/286/308 
f 338/287/309 339/284/310 340/288/311 
f 340/288/311 339/284/310 341/289/312 
f 340/288/311 341/289/312 342/290/313 
f 342/290/313 341/289/312 343/291/314 
f 342/290/313 343/291/314 344/292/315 
f 345/293/316 334/284/305 333/283/304 
f 345/293/316 346/289/312 334/284/305 
f 346/289/312 339/284/310 334/284/305 
f 346/289/312 341/289/312 339/284/310 
f 347/294/317 346/289/312 345/293/316 
f 347/294/317 348/294/318 346/289/312 
f 348/294/318 341/289/312 346/289/312 
f 348/294/318 343/291/314 341/289/312 
f 344/292/315 343/291/314 349/295/319 
f 344/292/315 349/295/319 350/296/320 
f 350/296/320 349/295/319 351/297/321 
f 350/296/320 351/297/321 352/298/322 
f 353/299/323 352/298/322 351/297/321 
f 353/299/323 354/300/324 352/298/322 
f 355/299/325 354/300/324 353/299/323 
f 353/299/323 356/299/326 355/299/325 
f 353/299/323 357/299/327 356/299/326 
f 357/299/327 353/299/323 351/297/321 
f 355/299/325 358/300/328 354/300/324 
f 357/299/327 351/297/321 359/301/329 
f 359/301/329 351/297/321 360/295/330 
f 351/297/321 349/295/319 360/295/330 
f 359/301/329 360/295/330 361/302/331 
f 361/302/331 348/294/318 347/294/317 
f 361/302/331 360/295/330 348/294/318 
f 362/303/332 354/300/324 358/300/328 
f 362/303/332 358/300/328 363/303/328 
f 364/304/333 362/303/332 363/303/328 
f 364/304/333 363/303/328 365/304/334 
f 69/305/65 364/304/333 365/304/334 
f 69/305/65 365/304/334 70/306/66 
f 357/299/327 366/307/335 356/299/326 
f 357/299/327 367/307/336 366/307/335 
f 359/301/329 367/307/336 357/299/327 
f 367/307/336 368/308/337 366/307/335 
f 367/307/336 369/309/338 368/308/337 
f 369/309/338 370/310/339 368/308/337 
f 369/309/338 371/310/340 370/310/339 
f 371/310/340 372/311/341 370/310/339 
f 371/310/340 373/311/342 372/311/341 
f 373/311/342 374/312/343 372/311/341 
f 373/311/342 375/312/344 374/312/343 
f 375/312/344 376/313/345 374/312/343 
f 375/312/344 377/314/346 376/313/345 
f 377/314/346 378/315/347 376/313/345 
f 377/314/346 379/316/348 378/315/347 
f 379/316/348 380/317/349 378/315/347 
f 379/316/348 381/317/350 380/317/349 
f 381/317/350 382/317/351 380/317/349 
f 381/317/350 383/318/352 382/317/351 
f 383/318/352 384/319/353 382/317/351 
f 383/318/352 385/318/354 384/319/353 
f 385/318/354 386/320/355 384/319/353 
f 385/318/354 387/321/356 386/320/355 
f 383/318/352 381/317/350 388/322/357 
f 383/318/352 388/322/357 389/323/358 
f 385/318/354 383/318/352 389/323/358 
f 389/323/358 388/322/357 390/324/359 
f 389/323/358 390/324/359 391/325/360 
f 387/321/356 392/326/361 386/320/355 
f 387/321/356 393/327/362 392/326/361 
f 393/327/362 394/328/363 392/326/361 
f 393/327/362 395/328/364 394/328/363 
f 395/328/364 396/329/365 394/328/363 
f 395/328/364 397/330/366 396/329/365 
f 397/330/366 398/330/367 396/329/365 
f 397/330/366 399/330/366 398/330/367 
f 399/330/366 400/331/368 398/330/367 
f 399/330/366 401/331/369 400/331/368 
f 401/331/369 402/332/370 400/331/368 
f 401/331/369 403/332/371 402/332/370 
f 391/325/360 390/324/359 404/333/372 
f 391/325/360 404/333/372 405/334/373 
f 405/334/373 404/333/372 406/335/374 
f 405/334/373 406/335/374 407/336/375 
f 407/336/375 406/335/374 408/337/376 
f 407/336/375 408/337/376 409/337/377 
f 409/337/377 408/337/376 410/338/378 
f 409/337/377 410/338/378 411/339/379 
f 411/339/379 410/338/378 412/340/380 
f 411/339/379 412/340/380 413/341/381 
f 413/341/381 412/340/380 414/342/382 
f 413/341/381 414/342/382 415/343/383 
f 415/343/383 414/342/382 416/344/384 
f 415/343/383 416/344/384 417/345/385 
f 403/332/371 418/346/386 402/332/370 
f 403/332/371 419/346/387 418/346/386 
f 419/346/387 420/347/388 418/346/386 
f 419/346/387 421/348/389 420/347/388 
f 421/348/389 422/349/390 420/347/388 
f 421/348/389 423/350/391 422/349/390 
f 422/349/390 423/350/391 424/351/392 
f 422/349/390 424/351/392 425/352/393 
f 424/351/392 426/353/394 425/352/393 
f 424/351/392 427/353/395 426/353/394 
f 427/353/395 428/354/396 426/353/394 
f 427/353/395 429/355/397 428/354/396 
f 429/355/397 430/356/398 428/354/396 
f 429/355/397 431/357/399 430/356/398 
f 431/357/399 432/358/400 430/356/398 
f 431/357/399 433/359/401 432/358/400 
f 433/359/401 434/360/402 432/358/400 
f 433/359/401 435/361/403 434/360/402 
f 435/361/403 436/362/404 434/360/402 
f 435/361/403 437/362/405 436/362/404 
f 437/362/405 438/363/406 436/362/404 
f 437/362/405 439/363/407 438/363/406 
f 439/363/407 440/364/408 438/363/406 
f 439/363/407 441/365/409 440/364/408 
f 440/364/408 441/365/409 442/366/409 
f 440/364/408 442/366/409 443/366/410 
f 443/366/410 442/366/409 444/366/409 
f 443/366/410 444/366/409 445/367/411 
f 445/367/411 444/366/409 446/368/412 
f 445/367/411 446/368/412 447/369/413 
f 447/369/413 446/368/412 448/370/414 
f 447/369/413 448/370/414 449/370/415 
f 449/370/415 448/370/414 450/371/414 
f 449/370/415 450/371/414 451/371/416 
f 451/371/416 450/371/414 452/372/417 
f 451/371/416 452/372/417 453/373/418 
f 453/373/418 452/372/417 454/374/417 
f 453/373/418 454/374/417 455/375/419 
f 455/375/419 454/374/417 298/259/271 
f 455/375/419 298/259/271 300/260/273 
f 450/371/414 416/344/384 452/372/417 
f 450/371/414 417/345/385 416/344/384 
f 448/370/414 417/345/385 450/371/414 
f 456/376/417 298/259/271 454/374/417 
f 456/376/417 301/260/271 298/259/271 
f 301/260/271 456/376/417 303/261/271 
f 303/261/271 456/376/417 305/263/276 
f 305/263/276 456/376/417 457/377/420 
f 456/376/417 458/378/421 457/377/420 
f 459/379/422 457/377/420 458/378/421 
f 459/379/422 460/380/420 457/377/420 
f 456/376/417 461/381/417 458/378/421 
f 461/381/417 456/376/417 454/374/417 
f 416/344/384 458/378/421 461/381/417 
f 459/379/422 462/382/417 460/380/420 
f 459/379/422 463/383/423 462/382/417 
f 463/383/423 464/384/420 462/382/417 
f 463/383/423 465/385/423 464/384/420 
f 464/384/420 465/385/423 466/386/424 
f 464/384/420 466/386/424 467/387/420 
f 468/388/424 467/387/420 466/386/424 
f 468/388/424 469/389/425 467/387/420 
f 470/390/296 469/389/425 468/388/424 
f 470/390/296 471/391/426 469/389/425 
f 471/391/426 470/390/296 472/392/427 
f 471/391/426 472/392/427 473/393/428 
f 473/393/428 472/392/427 474/394/429 
f 473/393/428 474/394/429 475/395/430 
f 476/396/431 475/395/430 474/394/429 
f 476/396/431 477/397/432 475/395/430 
f 462/382/417 464/384/420 478/398/433 
f 478/398/433 464/384/420 467/387/420 
f 462/382/417 478/398/433 479/399/434 
f 480/400/435 479/399/434 478/398/433 
f 480/400/435 478/398/433 481/401/436 
f 478/398/433 467/387/420 481/401/436 
f 481/401/436 467/387/420 469/389/425 
f 482/402/285 480/400/435 481/401/436 
f 482/402/285 481/401/436 483/403/437 
f 483/403/437 481/401/436 484/404/276 
f 483/403/437 484/404/276 485/405/438 
f 484/404/276 471/391/426 485/405/438 
f 485/405/438 471/391/426 473/393/428 
f 483/403/437 485/405/438 486/406/439 
f 323/275/294 483/403/437 486/406/439 
f 323/275/294 486/406/439 325/276/296 
f 325/276/296 486/406/439 487/407/440 
f 325/276/296 487/407/440 329/280/300 
f 329/280/300 487/407/440 488/408/441 
f 329/280/300 488/408/441 331/282/302 
f 331/282/302 488/408/441 489/409/442 
f 331/282/302 489/409/442 333/283/304 
f 333/283/304 489/409/442 490/410/443 
f 333/283/304 490/410/443 345/293/316 
f 345/293/316 490/410/443 491/411/444 
f 345/293/316 491/411/444 347/294/317 
f 490/410/443 492/412/445 491/411/444 
f 490/410/443 493/413/446 492/412/445 
f 489/409/442 493/413/446 490/410/443 
f 489/409/442 494/414/447 493/413/446 
f 488/408/441 494/414/447 489/409/442 
f 488/408/441 495/415/448 494/414/447 
f 487/407/440 495/415/448 488/408/441 
f 487/407/440 496/416/449 495/415/448 
f 486/406/439 496/416/449 487/407/440 
f 486/406/439 485/405/438 496/416/449 
f 347/294/317 491/411/444 497/417/450 
f 347/294/317 497/417/450 361/302/331 
f 361/302/331 497/417/450 498/418/451 
f 361/302/331 498/418/451 359/301/329 
f 359/301/329 498/418/451 367/307/336 
f 497/417/450 499/419/452 498/418/451 
f 497/417/450 500/420/453 499/419/452 
f 491/411/444 500/420/453 497/417/450 
f 491/411/444 492/412/445 500/420/453 
f 498/418/451 369/309/338 367/307/336 
f 369/309/338 498/418/451 371/310/340 
f 499/419/452 371/310/340 498/418/451 
f 499/419/452 373/311/342 371/310/340 
f 485/405/438 473/393/428 496/416/449 
f 496/416/449 475/395/430 495/415/448 
f 496/416/449 473/393/428 475/395/430 
f 477/397/432 495/415/448 475/395/430 
f 501/421/454 499/419/452 500/420/453 
f 501/421/454 500/420/453 502/422/455 
f 503/423/456 501/421/454 502/422/455 
f 503/423/456 502/422/455 504/424/457 
f 375/312/344 499/419/452 501/421/454 
f 375/312/344 373/311/342 499/419/452 
f 377/314/346 501/421/454 503/423/456 
f 377/314/346 375/312/344 501/421/454 
f 502/422/455 500/420/453 492/412/445 
f 502/422/455 492/412/445 505/425/458 
f 504/424/457 502/422/455 505/425/458 
f 505/425/458 492/412/445 493/413/446 
f 505/425/458 493/413/446 506/426/459 
f 507/427/460 505/425/458 506/426/459 
f 504/424/457 505/425/458 507/427/460 
f 507/427/460 506/426/459 508/428/461 
f 508/428/461 506/426/459 477/397/432 
f 506/426/459 494/414/447 477/397/432 
f 506/426/459 493/413/446 494/414/447 
f 477/397/432 494/414/447 495/415/448 
f 508/428/461 477/397/432 476/396/431 
f 476/396/431 509/429/462 508/428/461 
f 476/396/431 510/430/463 509/429/462 
f 406/335/374 509/429/462 510/430/463 
f 404/333/372 509/429/462 406/335/374 
f 404/333/372 511/431/464 509/429/462 
f 511/431/464 508/428/461 509/429/462 
f 511/431/464 507/427/460 508/428/461 
f 406/335/374 510/430/463 408/337/376 
f 408/337/376 510/430/463 512/432/465 
f 408/337/376 512/432/465 410/338/378 
f 410/338/378 512/432/465 513/433/440 
f 410/338/378 513/433/440 412/340/380 
f 412/340/380 513/433/440 514/434/466 
f 412/340/380 514/434/466 414/342/382 
f 513/433/440 470/390/296 514/434/466 
f 513/433/440 472/392/427 470/390/296 
f 472/392/427 513/433/440 512/432/465 
f 472/392/427 512/432/465 474/394/429 
f 510/430/463 474/394/429 512/432/465 
f 510/430/463 476/396/431 474/394/429 
f 414/342/382 514/434/466 515/435/421 
f 465/385/423 515/435/421 514/434/466 
f 465/385/423 463/383/423 515/435/421 
f 414/342/382 515/435/421 416/344/384 
f 390/324/359 511/431/464 404/333/372 
f 390/324/359 516/436/467 511/431/464 
f 388/322/357 516/436/467 390/324/359 
f 388/322/357 517/437/468 516/436/467 
f 381/317/350 517/437/468 388/322/357 
f 381/317/350 379/316/348 517/437/468 
f 504/424/457 516/436/467 517/437/468 
f 504/424/457 517/437/468 503/423/456 
f 503/423/456 517/437/468 379/316/348 
f 503/423/456 379/316/348 377/314/346 
f 516/436/467 504/424/457 507/427/460 
f 516/436/467 507/427/460 511/431/464 
f 515/435/421 458/378/421 416/344/384 
f 459/379/422 515/435/421 463/383/423 
f 459/379/422 458/378/421 515/435/421 
f 416/344/384 461/381/417 452/372/417 
f 461/381/417 454/374/417 452/372/417 
f 518/438/469 519/439/470 520/440/471 
f 518/438/469 521/441/472 519/439/470 
f 519/439/470 522/442/473 520/440/471 
f 519/439/470 523/442/474 522/442/473 
f 522/442/473 523/442/474 524/443/475 
f 522/442/473 524/443/475 525/443/473 
f 525/443/473 524/443/475 526/444/476 
f 525/443/473 526/444/476 527/444/293 
f 527/444/293 526/444/476 321/274/292 
f 527/444/293 321/274/292 322/274/293 
f 232/445/208 521/441/472 518/438/469 
f 232/445/208 233/446/209 521/441/472 
f 528/447/477 518/438/469 520/440/471 
f 528/447/477 520/440/471 522/442/473 
f 327/278/298 527/444/293 322/274/293 
f 522/442/473 525/443/473 529/448/478 
f 529/448/478 527/444/293 327/278/298 
f 529/448/478 525/443/473 527/444/293 
f 528/447/477 522/442/473 529/448/478 
f 529/448/478 327/278/298 328/279/299 
f 529/448/478 328/279/299 530/449/479 
f 528/447/477 529/448/478 530/449/479 
f 530/449/479 328/279/299 336/285/307 
f 530/449/479 336/285/307 531/450/480 
f 531/450/480 336/285/307 338/287/309 
f 531/450/480 338/287/309 532/451/309 
f 532/451/309 338/287/309 340/288/311 
f 532/451/309 340/288/311 533/452/311 
f 533/452/311 340/288/311 342/290/313 
f 533/452/311 342/290/313 534/453/481 
f 534/453/481 342/290/313 344/292/315 
f 534/453/481 344/292/315 535/454/482 
f 528/447/477 530/449/479 536/455/483 
f 536/455/483 530/449/479 531/450/480 
f 243/456/217 528/447/477 536/455/483 
f 243/456/217 536/455/483 244/457/218 
f 244/457/218 536/455/483 537/458/484 
f 536/455/483 531/450/480 537/458/484 
f 537/458/484 531/450/480 532/451/309 
f 244/457/218 537/458/484 246/459/220 
f 246/459/220 537/458/484 538/460/485 
f 537/458/484 532/451/309 538/460/485 
f 538/460/485 532/451/309 533/452/311 
f 246/459/220 538/460/485 248/461/222 
f 248/461/222 538/460/485 539/462/486 
f 538/460/485 533/452/311 539/462/486 
f 539/462/486 533/452/311 534/453/481 
f 248/461/222 539/462/486 250/463/224 
f 250/463/224 539/462/486 540/464/487 
f 539/462/486 534/453/481 540/464/487 
f 540/464/487 534/453/481 535/454/482 
f 250/463/224 540/464/487 252/465/226 
f 252/465/226 540/464/487 541/466/488 
f 540/464/487 535/454/482 541/466/488 
f 252/465/226 541/466/488 254/467/228 
f 254/467/228 541/466/488 542/468/489 
f 254/467/228 542/468/489 256/469/230 
f 256/469/230 542/468/489 543/470/490 
f 256/469/230 543/470/490 258/471/232 
f 258/471/232 543/470/490 364/304/333 
f 258/471/232 364/304/333 69/305/65 
f 542/468/489 544/472/491 543/470/490 
f 542/468/489 545/473/492 544/472/491 
f 541/466/488 545/473/492 542/468/489 
f 545/473/492 352/298/322 544/472/491 
f 544/472/491 352/298/322 354/300/324 
f 544/472/491 354/300/324 362/303/332 
f 543/470/490 362/303/332 364/304/333 
f 543/470/490 544/472/491 362/303/332 
f 545/473/492 350/296/320 352/298/322 
f 541/466/488 535/454/482 545/473/492 
f 535/454/482 350/296/320 545/473/492 
f 535/454/482 344/292/315 350/296/320 
f 243/456/217 518/438/469 528/447/477 
f 243/456/217 232/445/208 518/438/469 
f 360/295/330 343/291/314 348/294/318 
f 360/295/330 349/295/319 343/291/314 
f 316/272/287 482/402/285 318/273/289 
f 316/272/287 314/270/285 482/402/285 
f 318/273/289 482/402/285 483/403/437 
f 318/273/289 483/403/437 323/275/294 
f 482/402/285 314/270/285 312/268/283 
f 482/402/285 312/268/283 480/400/435 
f 310/267/281 480/400/435 312/268/283 
f 479/399/434 480/400/435 310/267/281 
f 479/399/434 310/267/281 546/474/278 
f 308/266/279 546/474/278 310/267/281 
f 308/266/279 307/265/278 546/474/278 
f 457/377/420 546/474/278 307/265/278 
f 305/263/276 457/377/420 307/265/278 
f 457/377/420 460/380/420 546/474/278 
f 460/380/420 479/399/434 546/474/278 
f 460/380/420 462/382/417 479/399/434 
f 481/401/436 469/389/425 484/404/276 
f 484/404/276 469/389/425 471/391/426 
f 514/434/466 466/386/424 465/385/423 
f 514/434/466 468/388/424 466/386/424 
f 470/390/296 468/388/424 514/434/466 
f 547/475/493 548/476/494 549/477/495 
f 547/475/493 550/478/496 548/476/494 
f 551/479/497 550/478/496 547/475/493 
f 551/479/497 552/480/498 550/478/496 
f 553/481/499 552/480/498 551/479/497 
f 553/481/499 554/482/500 552/480/498 
f 555/483/501 554/482/500 553/481/499 
f 555/483/501 556/484/502 554/482/500 
f 557/485/503 556/484/502 555/483/501 
f 557/485/503 558/486/504 556/484/502 
f 559/487/505 558/486/504 557/485/503 
f 559/487/505 560/488/506 558/486/504 
f 561/489/507 559/487/505 557/485/503 
f 561/489/507 557/485/503 562/490/508 
f 562/490/508 557/485/503 555/483/501 
f 562/490/508 555/483/501 563/491/509 
f 563/491/509 555/483/501 553/481/499 
f 563/491/509 553/481/499 564/492/510 
f 564/492/510 553/481/499 551/479/497 
f 564/492/510 551/479/497 565/493/511 
f 565/493/511 551/479/497 547/475/493 
f 565/493/511 547/475/493 566/494/512 
f 566/494/512 547/475/493 549/477/495 
f 566/494/512 549/477/495 567/495/407 
f 568/496/513 560/488/506 559/487/505 
f 568/496/513 569/497/514 560/488/506 
f 570/498/515 569/497/514 568/496/513 
f 570/498/515 571/499/516 569/497/514 
f 387/321/356 571/499/516 570/498/515 
f 387/321/356 385/318/354 571/499/516 
f 393/327/362 387/321/356 570/498/515 
f 393/327/362 570/498/515 572/500/517 
f 572/500/517 570/498/515 568/496/513 
f 572/500/517 568/496/513 573/501/518 
f 573/501/518 568/496/513 559/487/505 
f 573/501/518 559/487/505 561/489/507 
f 444/366/409 567/495/407 549/477/495 
f 444/366/409 549/477/495 446/368/412 
f 446/368/412 549/477/495 548/476/494 
f 446/368/412 548/476/494 448/370/414 
f 571/499/516 391/325/360 569/497/514 
f 571/499/516 389/323/358 391/325/360 
f 385/318/354 389/323/358 571/499/516 
f 569/497/514 391/325/360 405/334/373 
f 569/497/514 405/334/373 560/488/506 
f 560/488/506 405/334/373 407/336/375 
f 560/488/506 407/336/375 558/486/504 
f 558/486/504 407/336/375 409/337/377 
f 558/486/504 409/337/377 556/484/502 
f 556/484/502 409/337/377 411/339/379 
f 556/484/502 411/339/379 554/482/500 
f 554/482/500 411/339/379 413/341/381 
f 554/482/500 413/341/381 552/480/498 
f 552/480/498 413/341/381 415/343/383 
f 552/480/498 415/343/383 550/478/496 
f 550/478/496 415/343/383 417/345/385 
f 550/478/496 417/345/385 548/476/494 
f 448/370/414 548/476/494 417/345/385 
f 574/502/519 564/492/510 575/503/520 
f 574/502/519 563/491/509 564/492/510 
f 565/493/511 575/503/520 564/492/510 
f 565/493/511 576/504/521 575/503/520 
f 576/504/521 565/493/511 566/494/512 
f 576/504/521 566/494/512 577/505/522 
f 578/506/523 563/491/509 574/502/519 
f 578/506/523 562/490/508 563/491/509 
f 579/507/524 562/490/508 578/506/523 
f 579/507/524 561/489/507 562/490/508 
f 419/346/387 579/507/524 578/506/523 
f 419/346/387 578/506/523 421/348/389 
f 421/348/389 578/506/523 574/502/519 
f 421/348/389 574/502/519 423/350/391 
f 423/350/391 574/502/519 575/503/520 
f 423/350/391 575/503/520 424/351/392 
f 424/351/392 575/503/520 427/353/395 
f 580/508/525 561/489/507 579/507/524 
f 580/508/525 573/501/518 561/489/507 
f 581/509/526 573/501/518 580/508/525 
f 581/509/526 572/500/517 573/501/518 
f 401/331/369 581/509/526 580/508/525 
f 399/330/366 581/509/526 401/331/369 
f 397/330/366 581/509/526 399/330/366 
f 581/509/526 397/330/366 395/328/364 
f 572/500/517 581/509/526 395/328/364 
f 401/331/369 580/508/525 403/332/371 
f 572/500/517 395/328/364 393/327/362 
f 403/332/371 579/507/524 419/346/387 
f 403/332/371 580/508/525 579/507/524 
f 575/503/520 429/355/397 427/353/395 
f 575/503/520 576/504/521 429/355/397 
f 429/355/397 576/504/521 431/357/399 
f 431/357/399 576/504/521 433/359/401 
f 433/359/401 576/504/521 577/505/522 
f 433/359/401 577/505/522 435/361/403 
f 567/495/407 435/361/403 577/505/522 
f 567/495/407 437/362/405 435/361/403 
f 437/362/405 567/495/407 439/363/407 
f 439/363/407 567/495/407 441/365/409 
f 441/365/409 567/495/407 442/366/409 
f 442/366/409 567/495/407 444/366/527 
f 566/494/512 567/495/407 577/505/522 
# 1042 faces

