# 3ds Max Wavefront OBJ Exporter v0.99 - (c)2007 guruware
# File Created: 12.04.2025 03:35:19

mtllib hada.mtl

#
# object m0
#

v  -0.0787 0.2604 0.2191
v  -0.1595 0.2473 0.2405
v  0.0006 0.1100 0.2111
v  -0.1482 0.2820 0.1002
v  -0.0830 0.3093 0.0808
v  -0.1334 0.1393 -0.0665
v  0.1244 0.1393 -0.0665
v  0.1481 0.0514 -0.1631
v  0.1690 0.1729 0.0596
v  0.2346 -0.0762 -0.1141
v  0.1078 0.0873 0.1742
v  0.1374 -0.2026 -0.0022
v  -0.1374 -0.1864 -0.0214
v  -0.1067 0.0873 0.1742
v  -0.2347 -0.0761 -0.1141
v  -0.2020 0.1634 0.1016
v  -0.1510 0.0514 -0.1631
v  -0.3737 0.2646 0.1998
v  -0.3502 0.2316 0.2708
v  -0.6272 0.1922 0.3520
v  -0.6249 0.1513 0.3628
v  -0.6866 0.0817 0.4506
v  -0.6978 0.1303 0.3216
v  -0.6984 0.1514 0.4323
v  -0.7362 0.0983 0.4367
v  -0.7416 0.1844 0.3921
v  -0.7461 0.1726 0.3350
v  -0.6301 0.1835 0.3303
v  -0.6280 0.1417 0.3220
v  -0.3723 0.1553 0.1863
v  0.0786 -0.1537 -0.2970
v  -0.1125 -0.1183 -0.3325
v  0.1494 -0.1144 -0.2852
v  -0.0615 -0.1705 -0.2812
v  0.0853 -0.1993 -0.2312
v  -0.1368 -0.2387 -0.2131
v  0.1446 -0.2329 -0.1410
v  0.2213 -0.1828 -0.2253
v  -0.1681 -0.1414 -0.4465
v  -0.1871 -0.0751 -0.3003
v  -0.2278 -0.1383 -0.4305
v  -0.2502 -0.1861 -0.6794
v  -0.2971 -0.1885 -0.6658
v  -0.2675 -0.2377 -0.6648
v  -0.2617 -0.1663 -0.4157
v  -0.2062 -0.2272 -0.4197
v  0.1486 -0.3536 -0.3268
v  0.1994 -0.3876 -0.3216
v  0.1891 -0.2244 -0.5203
v  0.2392 -0.3403 -0.3393
v  0.2134 -0.2075 -0.4697
v  0.2130 -0.2735 -0.3309
v  0.1647 -0.2050 -0.4720
v  0.6222 0.3271 -0.0124
v  0.3638 0.2606 0.0174
v  0.6067 0.3567 -0.0464
v  0.3589 0.3012 0.1148
v  0.5939 0.3456 0.0132
v  0.5801 0.3722 -0.0173
v  0.7223 0.4461 0.0606
v  0.7065 0.4788 0.0244
v  0.6433 0.4231 -0.0539
v  -0.0352 -0.2969 -0.1468
v  -0.2138 -0.3045 -0.2039
v  -0.3299 -0.1354 -0.3342
v  -0.1817 -0.0139 -0.4234
v  0.0176 -0.0568 -0.3522
v  0.1508 0.2424 0.1957
v  0.3213 0.3513 0.0468
v  0.0759 0.2525 0.2161
v  -0.0092 0.3801 0.1341
v  0.0714 0.3014 0.0778
v  -0.2309 -0.1468 -0.2455
v  0.1949 -0.1058 -0.3567
v  0.3127 -0.2219 -0.2269
v  0.1144 0.3069 0.1004
v  0.7283 0.3282 0.0089
v  0.6863 0.3583 0.0277
v  -0.7477 0.0873 0.3857
v  0.1481 -0.3512 -0.1411
v  0.0519 0.1997 -0.0072
v  1.2111 0.9805 -0.2685
v  0.8305 0.9436 -0.0836
v  1.3249 0.8381 -0.5197
v  0.8478 0.4749 -0.5080
v  -0.7241 0.3573 0.7791
v  -0.6416 0.4420 0.8023
v  -0.6908 0.3777 0.7629
v  -0.7731 0.3960 0.8373
v  -0.6569 0.3377 0.8758
v  -0.6982 0.3367 0.7888
v  -1.2111 0.9806 -0.2685
v  -0.0519 0.1997 -0.0072
v  -0.8304 0.9436 -0.0835
v  -1.3248 0.8383 -0.5196
v  -0.6904 0.4373 0.9000
v  -0.6918 0.0053 0.1924
v  -0.8477 0.4750 -0.5080
# 98 vertices

vn 0.2440 0.0778 0.9667
vn -0.0947 0.9682 0.2315
vn -0.2804 0.9021 0.3280
vn -0.4545 0.6564 -0.6022
vn -0.0000 0.6547 -0.7559
vn -0.0000 0.7395 -0.6731
vn 0.6706 0.6230 -0.4027
vn 0.8364 0.4444 -0.3207
vn 0.8995 -0.0642 0.4322
vn 0.8440 -0.2132 0.4922
vn 0.1874 -0.4964 0.8477
vn -0.0910 -0.5882 0.8036
vn -0.1610 -0.5618 0.8115
vn -0.8091 -0.2788 0.5173
vn -0.7352 -0.3954 0.5506
vn -0.8407 0.4212 -0.3403
vn -0.7333 0.5638 -0.3800
vn 0.0323 0.9697 0.2421
vn -0.0074 0.9058 0.4237
vn -0.0049 0.9061 0.4230
vn 0.2377 0.2594 0.9361
vn 0.7099 0.2165 0.6702
vn 0.4361 -0.8289 -0.3504
vn -0.9866 -0.1611 0.0254
vn 0.8138 -0.5700 0.1133
vn -0.4525 0.3878 0.8030
vn -0.9964 -0.0186 0.0830
vn -0.1000 0.9759 -0.1941
vn -0.0622 0.2365 -0.9696
vn -0.0254 0.1916 -0.9811
vn 0.1559 -0.9641 0.2149
vn 0.1649 -0.9628 0.2139
vn 0.3994 -0.7299 0.5548
vn 0.1634 -0.7530 0.6374
vn 0.1780 -0.0278 -0.9836
vn 0.0036 -0.6993 -0.7148
vn 0.0340 -0.8193 -0.5723
vn 0.0783 -0.7466 -0.6606
vn 0.1254 -0.9000 -0.4174
vn -0.0341 -0.9768 0.2114
vn 0.6752 -0.7126 0.1905
vn 0.8653 -0.4097 0.2888
vn 0.8081 0.3734 -0.4556
vn 0.3531 0.8685 -0.3479
vn -0.0661 0.9055 -0.4192
vn -0.0001 0.9821 -0.1885
vn -0.1027 0.9785 -0.1786
vn -0.2641 -0.1797 -0.9476
vn -0.8467 -0.5059 0.1647
vn -0.7161 -0.6663 0.2077
vn -0.7169 -0.6668 0.2037
vn 0.5344 -0.8147 -0.2251
vn -0.7884 -0.5236 0.3229
vn -0.5276 -0.7177 0.4545
vn -0.4184 -0.7123 -0.5635
vn 0.5195 -0.6469 -0.5582
vn 0.9084 -0.1893 -0.3728
vn 0.9245 0.3430 0.1661
vn 0.0266 0.9027 0.4294
vn -0.6631 0.5585 0.4983
vn -0.9004 -0.2502 -0.3558
vn 0.1081 -0.7246 -0.6806
vn 0.2715 -0.8835 0.3818
vn 0.4249 -0.4439 0.7889
vn 0.1215 0.7751 0.6201
vn -0.5974 0.4497 0.6639
vn -0.5973 0.4483 0.6650
vn 0.8258 -0.1896 -0.5312
vn -0.0894 -0.7821 0.6167
vn -0.1518 -0.7996 0.5811
vn -0.8088 -0.2776 0.5184
vn -0.8616 -0.2519 0.4406
vn -0.7883 0.5876 0.1828
vn -0.6680 0.7366 -0.1057
vn 0.2925 0.9188 -0.2650
vn 0.4023 -0.7925 0.4584
vn 0.4469 -0.8176 0.3631
vn -0.2827 0.1739 -0.9433
vn -0.3091 0.1597 -0.9375
vn -0.2120 0.7674 -0.6051
vn 0.7243 -0.3995 0.5620
vn 0.7877 -0.2997 0.5382
vn 0.8384 0.3792 -0.3915
vn 0.7842 0.4389 -0.4386
vn 0.0047 0.2775 -0.9607
vn 0.0170 -0.0436 0.9989
vn 0.0444 0.5607 0.8268
vn 0.7518 0.6289 0.1984
vn 0.0146 0.5918 -0.8059
vn -0.8986 0.3752 -0.2272
vn -0.8210 -0.5124 0.2519
vn -0.7184 -0.6718 0.1809
vn -0.0751 -0.9621 0.2622
vn 0.0000 0.8680 -0.4966
vn 0.2017 0.7836 -0.5875
vn 0.8448 0.4967 -0.1993
vn 0.7907 0.5785 -0.2005
vn -0.2860 0.9004 0.3278
vn 0.2440 0.8439 0.4778
vn 0.2388 -0.1594 0.9579
vn 0.2793 -0.2078 0.9374
vn -0.0945 -0.8534 0.5125
vn -0.0488 -0.5774 0.8150
vn 0.6355 0.7317 0.2465
vn 0.8282 -0.1352 -0.5438
vn -0.5620 -0.4141 -0.7160
vn -0.9727 0.1321 0.1909
vn 0.6613 -0.7500 0.0123
vn 0.0584 0.6591 -0.7498
vn -0.0000 0.7355 -0.6775
vn -0.8523 0.4769 -0.2148
vn -0.4184 0.8619 -0.2865
vn -0.4850 0.1461 -0.8622
vn -0.4705 0.1021 -0.8765
vn 0.6353 0.2953 0.7136
vn 0.1324 0.8314 0.5397
vn -0.1821 0.9221 -0.3415
vn 0.7848 -0.0571 0.6172
vn 0.6713 -0.4799 0.5649
vn -0.2218 -0.6743 0.7044
vn 0.7992 0.4474 -0.4013
vn 0.2680 0.6878 -0.6746
vn 0.0197 0.6682 -0.7437
vn -0.6377 0.7696 -0.0326
vn -0.6343 0.2672 -0.7254
vn 0.6293 -0.4209 -0.6533
vn 0.8964 -0.3692 -0.2452
vn 0.8713 -0.4489 -0.1986
vn 0.6979 -0.4771 -0.5341
vn 0.4347 -0.3707 0.8207
vn 0.5392 -0.6043 0.5866
vn 0.5399 -0.6938 0.4766
vn 0.0027 0.8056 0.5925
vn 0.0737 0.8217 0.5652
vn -0.2815 0.1728 -0.9439
vn -0.0296 0.8225 0.5680
vn -0.1703 0.0871 -0.9815
vn -0.9424 -0.3122 -0.1203
vn -0.7191 -0.6636 0.2062
vn -0.8206 0.5653 0.0838
vn -0.6663 0.7311 -0.1469
vn -0.6306 0.7759 0.0201
vn 0.2598 -0.8597 0.4399
vn -0.4469 0.1039 -0.8885
vn 0.7782 0.3766 -0.5025
vn 0.1351 0.5886 -0.7971
vn -0.7401 -0.4510 0.4988
vn -0.2107 -0.4328 0.8765
vn -0.6106 0.6969 -0.3763
vn -0.3928 0.5776 -0.7156
vn -0.6613 -0.6777 0.3216
vn -0.4853 -0.8592 0.1624
vn 0.8305 -0.3976 -0.3901
vn 0.8312 -0.3964 -0.3898
vn -0.4347 -0.3707 0.8207
vn -0.5393 -0.6042 0.5866
vn -0.4487 -0.3504 0.8221
vn -0.4090 0.1750 -0.8956
vn 0.8756 0.1856 0.4459
vn -0.3595 0.9233 -0.1349
vn -0.6606 -0.6592 0.3592
vn 0.9884 -0.1281 0.0819
vn 0.0645 0.9370 -0.3433
vn -0.6149 0.6608 -0.4303
vn -0.5399 -0.6938 0.4766
vn 0.8168 0.3386 -0.4671
vn -0.7567 0.6085 0.2389
vn -0.1056 -0.3112 0.9445
vn 0.1823 -0.4236 -0.8873
vn -0.8381 0.3756 -0.3957
vn 0.9170 -0.2922 0.2714
# 171 vertex normals

vt 0.1484 0.0469 0.0000
vt 0.1523 0.0430 0.0000
vt 0.1484 0.0391 0.0000
vt 0.1562 0.0391 0.0000
vt 0.1602 0.0312 0.0000
vt 0.1602 0.0430 0.0000
vt 0.1562 0.0430 0.0000
vt 0.1562 0.0312 0.0000
vt 0.1484 0.0312 0.0000
vt 0.1484 0.0430 0.0000
vt 0.1445 0.0312 0.0000
vt 0.1445 0.0430 0.0000
vt 0.4023 0.5977 0.0000
vt 0.4102 0.5977 0.0000
vt 0.3867 0.5977 0.0000
vt 0.3867 0.5938 0.0000
vt 0.3789 0.5898 0.0000
vt 0.3828 0.5938 0.0000
vt 0.3750 0.5938 0.0000
vt 0.3789 0.5977 0.0000
vt 0.3984 0.5938 0.0000
vt 0.1562 0.0273 0.0000
vt 0.1484 0.0273 0.0000
vt 0.1602 0.0273 0.0000
vt 0.4141 0.5508 0.0000
vt 0.4102 0.5625 0.0000
vt 0.4141 0.5586 0.0000
vt 0.4102 0.5508 0.0000
vt 0.4141 0.5352 0.0000
vt 0.4102 0.5352 0.0000
vt 0.4219 0.5508 0.0000
vt 0.4258 0.5625 0.0000
vt 0.4219 0.5586 0.0000
vt 0.4258 0.5508 0.0000
vt 0.4258 0.5352 0.0000
vt 0.4219 0.5352 0.0000
vt 0.4531 0.5938 0.0000
vt 0.4375 0.5938 0.0000
vt 0.4336 0.5977 0.0000
vt 0.4531 0.5977 0.0000
vt 0.4609 0.5938 0.0000
vt 0.5039 0.8672 0.0000
vt 0.7539 0.5117 0.0000
vt 1.0000 0.8516 0.0000
vt 0.5078 0.5117 0.0000
vt 0.7500 0.8516 0.0000
vt 0.7500 0.5117 0.0000
vt 0.4258 0.5898 0.0000
vt 0.4258 0.5977 0.0000
vt 0.4297 0.5625 0.0000
vt 0.4219 0.6016 0.0000
vt 0.4141 0.6016 0.0000
vt 0.4180 0.5938 0.0000
vt 0.4180 0.6055 0.0000
vt 0.1445 0.0273 0.0000
vt 0.9883 0.8516 0.0000
vt 0.9883 0.5117 0.0000
vt 0.1562 0.0469 0.0000
vt 0.1602 0.0469 0.0000
vt 0.4570 0.5898 0.0000
vt 0.4570 0.5938 0.0000
vt 0.9961 0.5117 0.0000
vt 0.4492 0.5898 0.0000
vt 0.4336 0.6367 0.0000
vt 0.4766 0.6211 0.0000
vt 0.4336 0.5938 0.0000
vt 0.0781 0.0352 0.0000
vt 0.1016 0.0508 0.0000
vt 0.0938 0.0508 0.0000
vt 0.1016 0.0430 0.0000
vt 0.0938 0.0391 0.0000
vt 0.4062 0.5625 0.0000
vt 0.4102 0.5898 0.0000
vt 0.3555 0.0156 0.0000
vt 0.4766 0.1016 0.0000
vt 0.4062 0.0234 0.0000
vt 0.2930 0.1016 0.0000
vt 0.0781 0.0469 0.0000
vt 0.1094 0.0234 0.0000
vt 0.0898 0.0508 0.0000
vt 0.3867 0.2031 0.0000
vt 0.2500 0.0312 0.0000
vt 0.2578 0.0508 0.0000
vt 0.2539 0.0078 0.0000
vt 0.2109 0.0508 0.0000
vt 0.2070 0.0312 0.0000
vt 0.2109 0.0156 0.0000
vt 0.2305 0.0234 0.0000
vt 0.2305 0.0508 0.0000
vt 0.2383 0.0039 0.0000
vt 0.0898 0.0273 0.0000
# 91 texture coords

o m0
g m0
usemtl wingMAT
s off
f 1/1/1 2/1/1 3/2/1 
f 4/1/2 2/1/2 1/1/2 
f 5/1/3 4/1/3 1/1/3 
f 6/3/4 4/1/4 5/1/4 
f 7/4/5 6/3/5 5/1/5 
f 8/5/6 6/3/6 7/4/6 
f 9/6/7 8/5/7 7/4/7 
f 10/5/8 8/5/8 9/6/8 
f 11/7/9 10/5/9 9/6/9 
f 12/8/10 10/5/10 11/7/10 
f 3/2/11 12/8/11 11/7/11 
f 13/9/12 12/8/12 3/2/12 
f 14/10/13 13/9/13 3/2/13 
f 15/11/14 13/9/14 14/10/14 
f 16/12/15 15/11/15 14/10/15 
f 17/9/16 15/11/16 16/12/16 
f 6/3/17 17/9/17 16/12/17 
f 8/5/6 17/9/6 6/3/6 
f 18/13/18 2/14/18 4/14/18 
f 19/13/19 2/14/19 18/13/19 
f 20/15/20 19/13/20 18/13/20 
f 21/16/21 19/13/21 20/15/21 
f 22/17/22 21/16/22 20/15/22 
f 23/18/23 21/16/23 22/17/23 
f 24/18/24 23/18/24 22/17/24 
f 25/19/25 23/18/25 24/18/25 
f 26/20/26 25/19/26 24/18/26 
f 27/20/27 25/19/27 26/20/27 
f 28/15/28 27/20/28 26/20/28 
f 23/18/29 27/20/29 28/15/29 
f 29/16/30 23/18/30 28/15/30 
f 21/16/31 23/18/31 29/16/31 
f 30/21/32 21/16/32 29/16/32 
f 19/13/33 21/16/33 30/21/33 
f 2/14/34 19/13/34 30/21/34 
f 31/22/35 32/23/35 33/24/35 
f 34/23/36 32/23/36 31/22/36 
f 35/22/37 34/23/37 31/22/37 
f 36/23/38 34/23/38 35/22/38 
f 37/24/39 36/23/39 35/22/39 
f 12/8/40 36/23/40 37/24/40 
f 38/24/41 12/8/41 37/24/41 
f 10/5/42 12/8/42 38/24/42 
f 8/5/43 10/5/43 38/24/43 
f 39/25/44 40/26/44 32/27/44 
f 41/28/45 40/26/45 39/25/45 
f 42/29/46 41/28/46 39/25/46 
f 43/30/47 41/28/47 42/29/47 
f 44/30/48 43/30/48 42/29/48 
f 45/28/49 43/30/49 44/30/49 
f 46/28/50 45/28/50 44/30/50 
f 36/26/51 45/28/51 46/28/51 
f 34/27/52 36/26/52 46/28/52 
f 47/31/53 37/32/53 35/33/53 
f 48/34/54 37/32/54 47/31/54 
f 49/35/55 48/34/55 47/31/55 
f 50/34/56 48/34/56 49/35/56 
f 51/35/57 50/34/57 49/35/57 
f 52/34/58 50/34/58 51/35/58 
f 53/36/59 52/34/59 51/35/59 
f 47/31/60 52/34/60 53/36/60 
f 49/35/61 47/31/61 53/36/61 
f 54/37/62 55/38/62 56/37/62 
f 57/39/63 55/38/63 54/37/63 
f 58/40/64 57/39/64 54/37/64 
f 59/40/65 57/39/65 58/40/65 
f 60/41/66 59/40/66 58/40/66 
f 61/41/67 59/40/67 60/41/67 
f 62/37/68 61/41/68 60/41/68 
f 13/42/69 63/43/69 12/44/69 
f 64/45/70 63/43/70 13/42/70 
f 15/46/71 64/45/71 13/42/71 
f 65/47/72 64/45/72 15/46/72 
f 17/42/73 65/47/73 15/46/73 
f 66/45/74 65/47/74 17/42/74 
f 67/47/75 66/45/75 17/42/75 
f 9/48/76 57/39/76 68/49/76 
f 55/38/77 57/39/77 9/48/77 
f 69/39/78 55/38/78 9/48/78 
f 56/37/79 55/38/79 69/39/79 
f 59/40/80 56/37/80 69/39/80 
f 50/34/81 37/32/81 48/34/81 
f 38/50/82 37/32/82 50/34/82 
f 52/34/83 38/50/83 50/34/83 
f 33/32/84 38/50/84 52/34/84 
f 31/33/85 33/32/85 52/34/85 
f 70/51/86 1/52/86 3/53/86 
f 71/54/87 1/52/87 70/51/87 
f 72/51/88 71/54/88 70/51/88 
f 5/52/89 71/54/89 72/51/89 
f 73/55/90 15/11/90 40/55/90 
f 13/9/91 15/11/91 73/55/91 
f 36/23/92 13/9/92 73/55/92 
f 12/8/93 13/9/93 36/23/93 
f 8/56/94 67/47/94 17/42/94 
f 74/57/95 67/47/95 8/56/95 
f 10/46/96 74/57/96 8/56/96 
f 75/47/97 74/57/97 10/46/97 
f 70/58/98 76/58/98 72/58/98 
f 68/59/99 76/58/99 70/58/99 
f 3/2/100 68/59/100 70/58/100 
f 11/7/101 68/59/101 3/2/101 
f 77/60/102 58/40/102 54/37/102 
f 78/61/103 58/40/103 77/60/103 
f 62/37/104 78/61/104 77/60/104 
f 60/41/105 78/61/105 62/37/105 
f 79/19/106 27/20/106 23/18/106 
f 25/19/107 27/20/107 79/19/107 
f 23/18/108 25/19/108 79/19/108 
f 40/55/109 8/5/109 32/23/109 
f 17/9/110 8/5/110 40/55/110 
f 15/11/111 17/9/111 40/55/111 
f 18/13/112 28/15/112 20/15/112 
f 29/16/113 28/15/113 18/13/113 
f 30/21/114 29/16/114 18/13/114 
f 20/15/115 24/18/115 22/17/115 
f 26/20/116 24/18/116 20/15/116 
f 28/15/117 26/20/117 20/15/117 
f 12/44/118 75/47/118 10/46/118 
f 80/62/119 75/47/119 12/44/119 
f 63/43/120 80/62/120 12/44/120 
f 7/4/121 76/58/121 9/6/121 
f 72/58/122 76/58/122 7/4/122 
f 5/1/123 72/58/123 7/4/123 
f 62/63/124 59/64/124 61/65/124 
f 56/66/125 59/64/125 62/63/125 
f 54/66/126 56/66/126 62/63/126 
f 39/25/127 44/30/127 42/29/127 
f 46/28/128 44/30/128 39/25/128 
f 34/27/129 46/28/129 39/25/129 
f 81/67/130 82/68/130 83/69/130 
f 84/70/131 82/68/131 81/67/131 
f 85/71/132 84/70/132 81/67/132 
f 57/39/133 69/39/133 68/49/133 
f 59/40/134 69/39/134 57/39/134 
f 76/49/135 69/39/135 9/48/135 
f 68/49/136 69/39/136 76/49/136 
f 47/31/137 31/33/137 52/34/137 
f 35/33/138 31/33/138 47/31/138 
f 73/72/139 45/28/139 36/26/139 
f 40/26/140 45/28/140 73/72/140 
f 41/28/141 45/28/141 40/26/141 
f 43/30/142 45/28/142 41/28/142 
f 30/21/143 16/73/143 2/14/143 
f 18/13/144 16/73/144 30/21/144 
f 33/24/145 8/5/145 38/24/145 
f 32/23/146 8/5/146 33/24/146 
f 14/10/147 2/1/147 16/12/147 
f 3/2/148 2/1/148 14/10/148 
f 86/74/149 87/75/149 88/76/149 
f 89/77/150 87/75/150 86/74/150 
f 90/75/151 86/74/151 91/76/151 
f 89/77/152 86/74/152 90/75/152 
f 88/76/153 90/77/153 91/74/153 
f 87/75/154 90/77/154 88/76/154 
f 92/78/155 93/79/155 94/80/155 
f 95/67/156 93/79/156 92/78/156 
f 89/77/157 90/75/157 96/81/157 
f 16/73/158 18/13/158 4/14/158 
f 96/81/159 90/77/159 87/75/159 
f 96/81/160 87/75/160 89/77/160 
f 86/82/161 97/83/161 91/84/161 
f 97/85/162 88/86/162 91/87/162 
f 53/36/163 51/35/163 49/35/163 
f 88/88/164 97/89/164 86/90/164 
f 93/79/165 95/67/165 98/91/165 
f 32/27/166 34/27/166 39/25/166 
f 71/54/167 5/52/167 1/52/167 
f 58/40/168 78/61/168 60/41/168 
f 62/37/169 77/60/169 54/37/169 
f 4/1/170 6/3/170 16/12/170 
f 9/6/171 68/59/171 11/7/171 
# 172 faces

#
# object m1
#

v  0.4222 0.6995 0.2967
v  0.3850 0.6717 0.4171
v  0.3793 0.4898 0.2471
v  0.3977 0.7370 0.5529
v  0.3173 0.9474 0.1137
v  0.3165 0.8430 0.6615
v  0.2393 0.9688 0.1634
v  -0.0003 1.0267 0.3197
v  0.1913 1.0187 0.0191
v  -0.1931 1.0182 0.0198
v  -0.2410 0.9299 -0.0695
v  -0.3843 0.6706 0.4185
v  -0.4221 0.6983 0.2982
v  -0.3787 0.4888 0.2484
v  -0.3967 0.7359 0.5543
v  -0.2018 0.7976 0.5623
v  -0.3154 0.8421 0.6626
v  -0.1928 0.8630 0.5482
v  0.0005 0.8720 0.6970
v  0.1934 0.8635 0.5476
v  0.0005 0.7883 0.6041
v  -0.3185 0.9465 0.1148
v  -0.3930 0.6216 0.1974
v  -0.3299 0.5448 0.0973
v  -0.2184 0.6299 -0.1110
v  0.2392 0.9306 -0.0703
v  0.2173 0.6305 -0.1118
v  0.3298 0.5457 0.0961
v  0.1441 0.4325 -0.0216
v  0.2304 0.4046 0.4924
v  0.2233 0.6338 0.5808
v  0.1619 0.2902 0.3815
v  0.2318 0.3458 0.2142
v  0.0005 0.2745 0.1956
v  -0.1443 0.4321 -0.0211
v  -0.2404 0.9681 0.1642
v  -0.1603 0.2897 0.3821
v  -0.2288 0.4040 0.4932
v  -0.2310 0.3452 0.2150
v  0.3931 0.6226 0.1967
v  0.5021 0.5365 0.1760
v  -0.5280 0.7323 0.2232
v  -0.5019 0.5350 0.1777
v  0.0010 0.3900 0.5547
v  -0.2219 0.6332 0.5816
v  0.0008 0.6215 0.6331
v  -0.4419 1.2181 -0.1692
v  -0.4074 1.2084 0.1187
v  -0.2142 1.2001 -0.0546
v  -0.5249 1.0907 0.0268
v  -0.2937 0.9343 -0.2679
v  0.4389 1.2194 -0.1707
v  0.2117 1.2007 -0.0553
v  0.4055 1.2096 0.1173
v  0.2912 0.9351 -0.2690
v  0.5230 1.0921 0.0250
v  0.0010 0.4323 0.6209
v  0.0007 0.5740 0.5601
v  -0.0472 0.4086 0.5220
v  0.0489 0.4087 0.5219
v  0.5278 0.7338 0.2214
v  0.2026 0.7982 0.5615
# 62 vertices

vn 0.9403 -0.2478 0.2335
vn 0.8603 -0.4861 0.1538
vn 0.9130 0.4069 0.0279
vn 0.8379 0.5360 0.1035
vn 0.3628 0.9153 0.1750
vn 0.3404 0.9228 0.1804
vn 0.3511 0.9148 0.1998
vn -0.0015 0.9996 -0.0273
vn -0.0022 0.7119 -0.7022
vn -0.9387 -0.2504 0.2368
vn -0.8583 -0.4885 0.1568
vn 0.2548 -0.8621 0.4380
vn 0.2207 -0.7743 0.5931
vn 0.6749 0.0652 0.7350
vn 0.6316 0.2714 0.7263
vn -0.3179 0.8770 0.3602
vn 0.3167 0.8779 0.3591
vn 0.4370 -0.6681 0.6022
vn -0.9254 0.1206 -0.3593
vn -0.8284 0.0479 -0.5581
vn -0.9196 0.0432 -0.3905
vn -0.8814 -0.0010 -0.4723
vn -0.0019 0.1369 -0.9906
vn 0.8798 0.0014 -0.4754
vn 0.6603 -0.4994 -0.5609
vn 0.7183 -0.2308 0.6563
vn 0.8432 -0.3811 0.3793
vn 0.7299 -0.6479 0.2179
vn 0.6921 -0.7201 0.0494
vn 0.3033 -0.9349 -0.1844
vn 0.2979 -0.8548 -0.4249
vn 0.0001 -0.8087 -0.5882
vn -0.3530 0.9138 0.2010
vn -0.3424 0.9219 0.1815
vn -0.3647 0.9143 0.1763
vn -0.8390 0.5336 0.1064
vn -0.9141 0.4044 0.0311
vn -0.7273 -0.6499 0.2204
vn -0.6899 -0.7221 0.0518
vn -0.6754 -0.5931 -0.4382
vn -0.6566 -0.5971 -0.4608
vn 0.6567 -0.5953 -0.4631
vn 0.6755 -0.5912 -0.4406
vn 0.8935 -0.2375 -0.3810
vn -0.3948 -0.2896 -0.8719
vn -0.2970 -0.8557 -0.4238
vn -0.3013 -0.9357 -0.1833
vn 0.0015 -0.9966 0.0828
vn 0.5296 0.7416 -0.4118
vn -0.0021 0.2246 -0.9745
vn 0.3905 -0.2931 -0.8727
vn 0.9181 0.0457 -0.3938
vn 0.8275 0.0502 -0.5593
vn 0.9236 0.1227 -0.3632
vn -0.6608 -0.5013 -0.5586
vn -0.0010 -0.4139 -0.9103
vn -0.2625 -0.3405 0.9028
vn -0.2296 -0.3124 0.9218
vn 0.2337 -0.3118 0.9210
vn 0.0662 0.9975 0.0256
vn -0.7456 0.6571 0.1114
vn -0.8219 -0.2510 -0.5114
vn -0.0689 0.9973 0.0258
vn -0.4273 0.4855 -0.7627
vn 0.8208 -0.2487 -0.5143
vn -0.9014 0.1692 0.3986
vn 0.9023 0.1717 0.3954
vn -0.5340 0.7382 -0.4121
vn -0.0073 0.2252 -0.9743
vn -0.7154 -0.2328 0.6588
vn -0.8408 -0.3834 0.3822
vn -0.6298 0.2697 0.7285
vn -0.6725 0.0633 0.7374
vn -0.2509 -0.8628 0.4389
vn -0.2164 -0.7749 0.5939
vn -0.1607 -0.9868 0.0211
vn -0.5695 -0.8219 -0.0106
vn 0.5819 0.5224 0.6233
vn 0.8876 0.2591 0.3808
vn 0.9457 -0.0226 -0.3243
vn 0.9342 -0.2509 -0.2537
vn 0.4925 -0.1766 0.8522
vn 0.4931 -0.1790 0.8514
vn -0.9468 -0.0253 -0.3209
vn -0.9344 -0.2536 -0.2504
vn 0.1636 -0.9863 0.0205
vn 0.5718 -0.8203 -0.0126
vn -0.5811 0.5208 0.6254
vn -0.8870 0.2566 0.3839
vn -0.5516 -0.2560 0.7939
vn -0.6134 -0.3004 0.7304
vn 0.5551 -0.2544 0.7919
vn 0.6168 -0.2987 0.7283
vn -0.1944 0.1381 0.9711
vn -0.6792 0.1673 0.7146
vn 0.1975 0.1387 0.9705
vn 0.6812 0.1692 0.7122
vn -0.2139 0.1673 0.9624
vn 0.2168 0.1679 0.9617
vn -0.4890 -0.1780 0.8540
vn -0.4896 -0.1804 0.8531
vn -0.2147 -0.7438 0.6330
vn 0.0021 -0.8654 0.5010
vn 0.4233 0.4867 -0.7642
vn 0.2667 -0.3398 0.9019
vn 0.7441 0.6592 0.1088
vn 0.1896 0.2308 0.9544
vn 0.0018 -0.9726 0.2323
vn -0.8939 -0.2408 -0.3781
vn -0.1869 0.2302 0.9550
vn -0.4330 -0.6693 0.6037
vn 0.2190 -0.7432 0.6322
# 112 vertex normals

vt 0.0391 0.0273 0.0000
vt 0.0391 0.0195 0.0000
vt 0.0391 0.0312 0.0000
vt 0.0391 0.0352 0.0000
vt 0.0391 0.0391 0.0000
vt 0.0312 0.0430 0.0000
vt 0.0352 0.0391 0.0000
vt 0.0352 0.0352 0.0000
vt 0.0312 0.0391 0.0000
vt 0.0312 0.0352 0.0000
vt 0.0391 0.0234 0.0000
vt 0.0352 0.0234 0.0000
vt 0.0352 0.0156 0.0000
vt 0.4297 0.6133 0.0000
vt 0.4375 0.6250 0.0000
vt 0.4297 0.6250 0.0000
vt 0.4375 0.6133 0.0000
vt 0.4258 0.6055 0.0000
vt 0.4297 0.6055 0.0000
vt 0.4180 0.6016 0.0000
vt 0.4336 0.6133 0.0000
vt 0.4375 0.6211 0.0000
vt 0.4414 0.6133 0.0000
vt 0.4453 0.6250 0.0000
vt 0.2671 0.6994 0.0000
vt 0.0102 0.9972 0.0000
vt 0.0140 0.6994 0.0000
vt 0.2671 0.9972 0.0000
vt 0.0391 0.0430 0.0000
vt 0.0352 0.0430 0.0000
vt 0.0430 0.0391 0.0000
vt 0.4180 0.6094 0.0000
vt 0.4180 0.6250 0.0000
vt 0.4219 0.6133 0.0000
vt 0.5078 0.1484 0.0000
vt 0.9961 0.4492 0.0000
vt 0.9922 0.1523 0.0000
vt 0.5234 0.4805 0.0000
vt 0.9844 0.1367 0.0000
vt 0.7148 0.4727 0.0000
vt 0.9844 0.4844 0.0000
vt 0.7148 0.1367 0.0000
vt 0.9766 0.1328 0.0000
vt 0.5117 0.4648 0.0000
vt 0.9688 0.4570 0.0000
vt 0.5156 0.1328 0.0000
vt 0.5117 0.1484 0.0000
vt 0.7695 0.4727 0.0000
vt 0.6367 0.1484 0.0000
vt 0.3477 0.6602 0.0000
vt 0.4297 1.0859 0.0000
vt 0.4609 0.8789 0.0000
vt 0.2266 0.8711 0.0000
vt 0.2773 0.6094 0.0000
vt 0.3438 0.2539 0.0000
vt 0.4766 0.5781 0.0000
vt 0.0019 0.2976 0.0000
vt 0.4180 0.6367 0.0000
vt 0.0078 0.4922 0.0000
vt 0.1641 0.6797 0.0000
vt -0.1562 0.6797 0.0000
vt 0.3203 0.4922 0.0000
vt 0.4297 0.6367 0.0000
vt 0.1875 0.6094 0.0000
vt 0.1680 0.6250 0.0000
vt 0.4883 0.6797 0.0000
# 66 texture coords

o m1
g m1
usemtl wingMAT
s off
f 99/92/172 100/92/172 101/93/172 
f 102/94/173 100/92/173 99/92/173 
f 103/95/174 102/94/174 99/92/174 
f 104/95/175 102/94/175 103/95/175 
f 105/96/176 104/95/176 103/95/176 
f 106/97/177 104/95/177 105/96/177 
f 107/98/178 106/97/178 105/96/178 
f 108/98/179 106/97/179 107/98/179 
f 109/99/180 108/98/180 107/98/180 
f 110/92/181 111/92/181 112/93/181 
f 113/94/182 111/92/182 110/92/182 
f 114/99/183 113/94/183 110/92/183 
f 115/95/184 113/94/184 114/99/184 
f 116/99/185 115/95/185 114/99/185 
f 106/97/186 115/95/186 116/99/186 
f 117/100/187 106/97/187 116/99/187 
f 118/99/188 106/97/188 117/100/188 
f 119/101/189 118/99/189 117/100/189 
f 120/95/190 121/102/190 111/92/190 
f 122/93/191 121/102/191 120/95/191 
f 109/99/192 122/93/192 120/95/192 
f 123/103/193 122/93/193 109/99/193 
f 124/99/194 123/103/194 109/99/194 
f 125/103/194 123/103/194 124/99/194 
f 126/93/195 125/103/195 124/99/195 
f 127/104/196 125/103/196 126/93/196 
f 128/105/197 100/106/197 129/107/197 
f 101/108/198 100/106/198 128/105/198 
f 130/109/199 101/108/199 128/105/199 
f 131/110/200 101/108/200 130/109/200 
f 132/111/201 131/110/201 130/109/201 
f 127/109/202 131/110/202 132/111/202 
f 133/109/203 127/109/203 132/111/203 
f 134/96/204 106/97/204 108/98/204 
f 115/95/205 106/97/205 134/96/205 
f 120/95/206 115/95/206 134/96/206 
f 113/94/207 115/95/207 120/95/207 
f 111/92/208 113/94/208 120/95/208 
f 112/108/209 135/109/209 136/105/209 
f 137/110/210 135/109/210 112/108/210 
f 122/112/211 137/110/211 112/108/211 
f 133/109/212 137/110/212 122/112/212 
f 126/112/213 131/110/213 127/109/213 
f 101/108/214 131/110/214 126/112/214 
f 138/113/215 101/108/215 126/112/215 
f 139/114/216 101/108/216 138/113/216 
f 132/111/217 137/110/217 133/109/217 
f 135/109/218 137/110/218 132/111/218 
f 130/109/219 135/109/219 132/111/219 
f 121/113/220 140/115/220 111/106/220 
f 141/114/221 140/115/221 121/113/221 
f 112/108/222 141/114/222 121/113/222 
f 103/95/223 126/93/223 124/99/223 
f 138/102/224 126/93/224 103/95/224 
f 99/92/225 138/102/225 103/95/225 
f 123/103/226 133/104/226 122/93/226 
f 127/104/227 133/104/227 123/103/227 
f 125/103/227 127/104/227 123/103/227 
f 142/116/228 143/117/228 136/118/228 
f 144/119/229 143/117/229 142/116/229 
f 129/117/230 144/119/230 142/116/230 
f 145/120/231 146/120/231 147/121/231 
f 148/122/232 146/120/232 145/120/232 
f 149/95/233 148/122/233 145/120/233 
f 150/120/234 151/121/234 152/120/234 
f 153/95/235 151/121/235 150/120/235 
f 154/122/236 153/95/236 150/120/236 
f 155/123/237 156/124/237 157/125/237 
f 158/125/238 156/124/238 155/123/238 
f 159/115/239 138/113/239 99/106/239 
f 139/114/240 138/113/240 159/115/240 
f 110/106/241 136/105/241 143/107/241 
f 112/108/242 136/105/242 110/106/242 
f 118/99/243 104/95/243 106/97/243 
f 160/99/244 104/95/244 118/99/244 
f 102/94/245 160/99/245 100/92/245 
f 104/95/246 160/99/246 102/94/246 
f 120/126/247 149/127/247 109/128/247 
f 148/129/248 149/127/248 120/126/248 
f 134/130/249 147/131/249 146/132/249 
f 108/133/250 147/131/250 134/130/250 
f 108/134/251 149/135/251 147/136/251 
f 109/137/252 149/135/252 108/134/252 
f 105/138/253 154/139/253 152/135/253 
f 103/140/254 154/139/254 105/138/254 
f 153/135/255 107/134/255 151/136/255 
f 124/137/256 107/134/256 153/135/256 
f 153/127/257 103/126/257 124/128/257 
f 154/129/258 103/126/258 153/127/258 
f 151/131/259 105/130/259 152/132/259 
f 107/133/260 105/130/260 151/131/260 
f 112/141/261 140/142/261 141/143/261 
f 111/144/262 140/142/262 112/141/262 
f 159/142/263 101/141/263 139/143/263 
f 99/144/264 101/141/264 159/142/264 
f 114/145/265 143/146/265 119/147/265 
f 110/148/266 143/146/266 114/145/266 
f 129/146/267 160/145/267 119/147/267 
f 100/148/268 160/145/268 129/146/268 
f 144/124/269 119/149/269 143/107/269 
f 129/107/270 119/149/270 144/124/270 
f 148/139/271 134/138/271 146/135/271 
f 120/140/272 134/138/272 148/139/272 
f 135/150/273 142/151/273 136/152/273 
f 130/153/274 142/151/274 135/150/274 
f 147/121/275 149/95/275 145/120/275 
f 142/116/276 128/118/276 129/117/276 
f 154/122/277 150/120/277 152/120/277 
f 107/98/180 124/99/180 109/99/180 
f 160/154/278 118/154/278 119/149/278 
f 157/155/279 158/155/279 155/156/279 
f 121/113/280 122/112/280 112/108/280 
f 114/154/281 119/149/281 116/154/281 
f 116/99/282 119/101/282 117/100/282 
f 142/151/283 130/153/283 128/157/283 
# 115 faces

