# 3ds Max Wavefront OBJ Exporter v0.99 - (c)2007 guruware
# File Created: 05.04.2025 00:48:53

mtllib poste_liz.mtl

#
# object Poste
#

v  -0.2115 4.3212 -4.6149
v  -0.2164 4.7612 -3.9811
v  0.0414 4.7641 -3.9263
v  0.3041 4.3269 -4.5053
v  0.2546 4.7665 -3.7713
v  0.7305 4.3317 -4.1955
v  0.9391 4.3340 -3.8343
v  0.3774 4.7678 -3.5586
v  0.3864 4.7679 -3.5431
v  0.9941 4.3346 -3.7390
v  0.4139 4.7682 -3.2809
v  1.0492 4.3352 -3.2147
v  0.3325 4.7673 -3.0303
v  0.8863 4.3334 -2.7133
v  0.1561 4.7654 -2.8344
v  0.5336 4.3295 -2.3216
v  -0.0846 4.7627 -2.7272
v  0.0520 4.3241 -2.1072
v  0.3575 4.3275 -2.2432
v  -0.3482 4.7597 -2.7272
v  -0.4751 4.3182 -2.1072
v  -0.5890 4.7570 -2.8344
v  -0.9566 4.3128 -2.3216
v  -0.7653 4.7551 -3.0303
v  -1.3093 4.3089 -2.7133
v  -1.3500 4.3085 -2.8384
v  -0.7742 4.7550 -3.0576
v  -0.8468 4.7542 -3.2809
v  -1.4722 4.3071 -3.2147
v  -0.8192 4.7545 -3.5431
v  -1.4171 4.3077 -3.7390
v  -0.6874 4.7559 -3.7713
v  -1.1535 4.3106 -4.1955
v  -0.4742 4.7583 -3.9263
v  -0.7271 4.3154 -4.5053
v  -0.7966 4.3146 -4.4548
v  -0.2139 4.5306 -3.3337
v  -0.1075 4.9327 -3.3356
v  0.2430 4.8153 -3.4967
v  -0.2187 4.9677 -3.3472
v  -0.1847 4.9494 -3.3007
v  -0.1583 4.9458 -3.3125
v  -0.2327 4.9452 -3.2801
v  -0.2066 4.9492 -3.2912
v  -0.5836 4.8258 -3.1357
v  -0.2820 4.9317 -3.2596
v  -0.2040 4.9492 -3.2923
v  -0.2569 4.5301 -3.3150
v  -0.8384 7.1069 -3.5196
v  -0.5706 6.6876 -3.5196
v  -0.7483 6.6123 -3.3795
v  -1.0273 7.0677 -3.3795
v  -0.6804 6.6411 -3.1527
v  -0.9551 7.0826 -3.1527
v  -0.4608 6.7341 -3.1527
v  -0.7216 7.1311 -3.1527
v  -0.3930 6.7628 -3.3795
v  -0.6495 7.1461 -3.3795
v  -0.2734 4.8718 -3.5196
v  -0.0805 4.8740 -3.3795
v  -0.1541 4.8732 -3.1527
v  -0.3926 4.8705 -3.1527
v  -0.4662 4.8697 -3.3795
v  -0.4696 5.1405 -3.3795
v  -0.2767 5.1426 -3.5196
v  -0.3354 5.7025 -3.3795
v  -0.1425 5.7047 -3.5196
v  -0.2089 5.8937 -3.3795
v  -0.0160 5.8959 -3.5196
v  0.5542 6.9094 -3.3795
v  0.7471 6.9115 -3.5196
v  0.1518 7.6742 -3.3795
v  0.2507 7.8398 -3.5196
v  -0.3406 7.6363 -3.3795
v  -0.4942 7.7530 -3.5196
v  -0.3959 5.1413 -3.1527
v  -0.2617 5.7033 -3.1527
v  -0.1352 5.8945 -3.1527
v  0.6279 6.9102 -3.1527
v  0.1896 7.7375 -3.1527
v  -0.3993 7.6808 -3.1527
v  -0.1575 5.1440 -3.1527
v  -0.0232 5.7060 -3.1527
v  0.1033 5.8972 -3.1527
v  0.8663 6.9129 -3.1527
v  0.3118 7.9422 -3.1527
v  -0.5891 7.8251 -3.1527
v  -0.0838 5.1448 -3.3795
v  0.0504 5.7068 -3.3795
v  0.1769 5.8980 -3.3795
v  0.9400 6.9137 -3.3795
v  0.3496 8.0055 -3.3795
v  -0.6478 7.8696 -3.3795
v  0.1007 7.3503 -3.1719
v  0.0977 7.6133 -2.7496
v  -0.0404 7.4333 -2.6764
v  -0.0374 7.1594 -3.1348
v  -0.2680 7.4989 -2.7044
v  -0.2649 7.2292 -3.1490
v  -0.2704 7.7195 -2.7949
v  -0.2676 7.4632 -3.1949
v  -0.0444 7.7902 -2.8229
v  -0.0416 7.5380 -3.2091
v  0.0916 8.1591 -0.1212
v  -0.0507 8.3504 -0.1212
v  -0.2766 8.2742 -0.1212
v  -0.2739 8.0358 -0.1212
v  -0.0464 7.9646 -0.1212
v  -0.0434 7.6955 -1.2015
v  0.0946 7.8899 -1.2015
v  -0.0449 7.8360 -1.7620
v  0.0931 8.0305 -1.7620
v  -0.0464 7.9646 -1.9518
v  0.0916 8.1591 -1.9518
v  -0.0550 8.7389 -2.9589
v  0.0830 8.9334 -2.9589
v  -0.0506 8.3451 -3.7282
v  0.0884 8.4474 -3.8927
v  -0.0451 7.8524 -3.6957
v  0.0967 7.7016 -3.8141
v  -0.2709 7.7666 -1.2015
v  -0.2725 7.9071 -1.7620
v  -0.2739 8.0358 -1.9518
v  -0.2826 8.8101 -2.9589
v  -0.2778 8.3810 -3.7910
v  -0.2712 7.7917 -3.7410
v  -0.2736 8.0050 -1.2015
v  -0.2752 8.1456 -1.7620
v  -0.2766 8.2742 -1.9518
v  -0.2853 9.0485 -2.9589
v  -0.2792 8.5056 -3.9944
v  -0.2691 7.6034 -3.8873
v  -0.0477 8.0813 -1.2015
v  -0.0492 8.2218 -1.7620
v  -0.0507 8.3504 -1.9518
v  -0.0593 9.1247 -2.9589
v  -0.0529 8.5466 -4.0572
v  -0.0417 7.5478 -3.9325
v  -0.1181 9.1695 -0.5127
v  -0.0954 7.1412 -0.5127
v  -0.2043 7.1400 -0.5019
v  -0.2269 9.1683 -0.5019
v  -0.3089 7.1389 -0.4702
v  -0.3315 9.1671 -0.4702
v  -0.4053 7.1378 -0.4187
v  -0.4280 9.1660 -0.4187
v  -0.4898 7.1368 -0.3493
v  -0.5125 9.1651 -0.3493
v  -0.5592 7.1361 -0.2648
v  -0.5818 9.1643 -0.2648
v  -0.6107 7.1355 -0.1683
v  -0.6334 9.1637 -0.1683
v  -0.6425 7.1351 -0.0637
v  -0.6651 9.1634 -0.0637
v  0.4397 9.1757 0.0451
v  0.4623 7.1475 0.0451
v  0.4516 7.1474 -0.0637
v  0.4290 9.1756 -0.0637
v  0.4199 7.1470 -0.1683
v  0.3972 9.1752 -0.1683
v  0.3683 7.1464 -0.2648
v  0.3457 9.1746 -0.2648
v  0.2990 7.1456 -0.3493
v  0.2763 9.1739 -0.3493
v  0.2144 7.1447 -0.4187
v  0.1918 9.1729 -0.4187
v  0.1180 7.1436 -0.4702
v  0.0954 9.1718 -0.4702
v  0.0134 7.1425 -0.5019
v  -0.0093 9.1707 -0.5019
v  -0.1159 9.3801 -0.4832
v  0.0913 -9.1781 -0.4832
v  -0.0076 -9.1792 -0.4734
v  -0.2148 9.3790 -0.4734
v  -0.1027 -9.1803 -0.4446
v  -0.3099 9.3779 -0.4446
v  -0.1904 -9.1813 -0.3977
v  -0.3976 9.3769 -0.3977
v  -0.2672 -9.1821 -0.3347
v  -0.4744 9.3761 -0.3347
v  -0.3303 -9.1828 -0.2578
v  -0.5375 9.3754 -0.2578
v  -0.3772 -9.1834 -0.1702
v  -0.5843 9.3748 -0.1702
v  -0.4060 -9.1837 -0.0750
v  -0.6132 9.3745 -0.0750
v  -0.4157 -9.1838 0.0239
v  -0.6229 9.3744 0.0239
v  -0.4060 -9.1837 0.1228
v  -0.6132 9.3745 0.1228
v  -0.3772 -9.1834 0.2180
v  -0.5843 9.3748 0.2180
v  -0.3303 -9.1828 0.3056
v  -0.5375 9.3754 0.3056
v  -0.2672 -9.1821 0.3825
v  -0.4744 9.3761 0.3825
v  -0.1904 -9.1813 0.4455
v  -0.3976 9.3769 0.4455
v  -0.1027 -9.1803 0.4924
v  -0.3099 9.3779 0.4924
v  -0.0076 -9.1792 0.5212
v  -0.2148 9.3790 0.5212
v  0.0913 -9.1781 0.5310
v  -0.1159 9.3801 0.5310
v  0.1902 -9.1770 0.5212
v  -0.0169 9.3812 0.5212
v  0.2853 -9.1760 0.4924
v  0.0782 9.3822 0.4924
v  0.3730 -9.1750 0.4455
v  0.1658 9.3832 0.4455
v  0.4498 -9.1741 0.3825
v  0.2427 9.3841 0.3825
v  0.5129 -9.1734 0.3056
v  0.3057 9.3848 0.3056
v  0.5598 -9.1729 0.2180
v  0.3526 9.3853 0.2180
v  0.5886 -9.1726 0.1228
v  0.3815 9.3856 0.1228
v  0.5984 -9.1725 0.0239
v  0.3912 9.3857 0.0239
v  0.5886 -9.1726 -0.0750
v  0.3815 9.3856 -0.0750
v  0.5598 -9.1729 -0.1702
v  0.3526 9.3853 -0.1702
v  0.5129 -9.1734 -0.2578
v  0.3057 9.3848 -0.2578
v  0.4498 -9.1741 -0.3347
v  0.2427 9.3841 -0.3347
v  0.3730 -9.1750 -0.3977
v  0.1658 9.3832 -0.3977
v  0.2853 -9.1760 -0.4446
v  0.0782 9.3822 -0.4446
v  0.1902 -9.1770 -0.4734
v  -0.0169 9.3812 -0.4734
# 234 vertices

vn 0.1112 0.8168 -0.5661
vn 0.3311 0.8192 -0.4683
vn 0.4921 0.8210 -0.2894
vn 0.5665 0.8218 -0.0605
vn 0.5413 0.8216 0.1789
vn 0.4210 0.8202 0.3873
vn 0.2263 0.8180 0.5288
vn -0.0091 0.8154 0.5788
vn -0.2445 0.8128 0.5288
vn -0.4392 0.8106 0.3873
vn -0.5595 0.8093 0.1789
vn -0.5847 0.8090 -0.0605
vn -0.5103 0.8098 -0.2894
vn -0.3493 0.8116 -0.4683
vn -0.1294 0.8141 -0.5661
vn -0.1304 -0.9901 -0.0517
vn 0.3037 0.9522 -0.0330
vn 0.2243 0.9513 0.2115
vn -0.0106 0.9487 0.3161
vn -0.2455 0.9461 0.2115
vn -0.3249 0.9452 -0.0330
vn -0.1964 0.9466 -0.2557
vn 0.0551 0.9494 -0.3092
vn 0.2631 0.9517 -0.1580
vn 0.2900 0.9520 0.0977
vn 0.1180 0.9501 0.2887
vn -0.1391 0.9472 0.2887
vn -0.3112 0.9453 0.0977
vn -0.2843 0.9456 -0.1580
vn -0.0763 0.9479 -0.3092
vn 0.1752 0.9508 -0.2557
vn 0.1549 -0.9865 0.0525
vn -0.0382 -0.9897 0.1379
vn 0.0585 -0.9878 -0.1440
vn -0.5108 -0.3193 -0.7982
vn -0.8120 -0.5013 0.2990
vn 0.0000 0.0000 1.0000
vn 0.3900 -0.9208 0.0000
vn 0.7960 0.5277 0.2966
vn 0.5061 0.3305 -0.7966
vn 0.0112 -0.9999 0.0000
vn -0.5877 -0.0073 -0.8090
vn -0.5831 0.1393 -0.8004
vn -0.5501 0.3640 -0.7516
vn -0.5402 0.4058 -0.7372
vn -0.5654 -0.3002 -0.7682
vn 0.0702 -0.6960 -0.7146
vn 0.5558 -0.3195 -0.7674
vn -0.9510 -0.0119 0.3090
vn -0.9276 0.2216 0.3006
vn -0.8053 0.5329 0.2597
vn -0.7742 0.5817 0.2494
vn -0.8508 -0.4493 0.2726
vn 0.0847 -0.9685 0.2342
vn 0.8231 -0.4997 0.2700
vn 0.9510 0.0119 0.3090
vn 0.9276 -0.2216 0.3006
vn 0.8053 -0.5329 0.2597
vn 0.7742 -0.5817 0.2494
vn 0.8466 0.4570 0.2726
vn -0.1284 0.9635 0.2350
vn -0.8654 0.4177 0.2769
vn 0.5877 0.0073 -0.8090
vn 0.5831 -0.1393 -0.8004
vn 0.5501 -0.3640 -0.7516
vn 0.5402 -0.4058 -0.7372
vn 0.5637 0.3033 -0.7683
vn -0.0886 0.6931 -0.7154
vn -0.5680 0.2839 -0.7725
vn 0.8039 -0.5054 0.3136
vn -0.2898 -0.8208 0.4922
vn -0.9999 -0.0112 -0.0000
vn -0.0042 0.3797 0.9251
vn -0.3055 0.7985 -0.5187
vn 0.7909 0.5186 -0.3249
vn -0.0000 -0.0000 1.0000
vn 0.8069 -0.5726 0.1449
vn 0.8068 -0.5725 -0.1458
vn 0.7576 -0.5376 -0.3701
vn 0.7432 -0.5274 -0.4118
vn 0.7745 -0.5601 0.2938
vn 0.7139 0.0704 0.6967
vn 0.7612 0.5608 0.3257
vn -0.2903 -0.9287 0.2306
vn -0.2902 -0.9284 -0.2320
vn -0.2508 -0.8022 -0.5418
vn -0.2409 -0.7704 -0.5903
vn -0.2630 -0.8587 0.4398
vn -0.2350 0.0713 0.9694
vn -0.2791 0.8144 0.5088
vn -0.3110 0.9220 -0.2306
vn -0.3109 0.9217 0.2320
vn -0.2686 0.7964 0.5419
vn -0.2580 0.7649 0.5903
vn -0.2821 0.8486 -0.4475
vn -0.2337 -0.1202 -0.9649
vn -0.2672 -0.8637 -0.4273
vn 0.7939 0.5905 -0.1449
vn 0.7938 0.5904 0.1458
vn 0.7454 0.5544 0.3701
vn 0.7312 0.5438 0.4118
vn 0.7619 0.5756 -0.2970
vn 0.7162 -0.0729 -0.6941
vn 0.7788 -0.5562 -0.2902
vn -0.0980 -0.0011 -0.9952
vn -0.2903 -0.0032 -0.9569
vn -0.4714 -0.0053 -0.8819
vn -0.6344 -0.0071 -0.7730
vn -0.7730 -0.0086 -0.6344
vn -0.8819 -0.0098 -0.4714
vn -0.9569 -0.0107 -0.2903
vn 0.9951 0.0111 -0.0980
vn 0.9569 0.0107 -0.2903
vn 0.8819 0.0098 -0.4714
vn 0.7730 0.0086 -0.6344
vn 0.6344 0.0071 -0.7730
vn 0.4714 0.0053 -0.8819
vn 0.2903 0.0032 -0.9569
vn 0.0980 0.0011 -0.9952
vn -0.9951 -0.0111 -0.0980
vn -0.9951 -0.0111 0.0980
vn -0.9569 -0.0107 0.2903
vn -0.8819 -0.0098 0.4714
vn -0.7730 -0.0086 0.6344
vn -0.6344 -0.0071 0.7730
vn -0.4714 -0.0053 0.8819
vn -0.2903 -0.0032 0.9569
vn -0.0980 -0.0011 0.9952
vn 0.0980 0.0011 0.9952
vn 0.2903 0.0032 0.9569
vn 0.4714 0.0053 0.8819
vn 0.6344 0.0071 0.7730
vn 0.7730 0.0086 0.6344
vn 0.8819 0.0098 0.4714
vn 0.9569 0.0107 0.2903
vn 0.9951 0.0111 0.0980
vn 0.0112 -0.9999 -0.0000
vn -0.0112 0.9999 -0.0000
# 138 vertex normals

vt 0.9575 0.7798 0.0000
vt 0.8694 0.6624 0.0000
vt 0.8907 0.5669 0.0000
vt 1.0000 0.5889 0.0000
vt 0.8907 0.4634 0.0000
vt 1.0000 0.3819 0.0000
vt 0.9664 0.2338 0.0000
vt 0.8709 0.3762 0.0000
vt 0.8694 0.3698 0.0000
vt 0.9575 0.1947 0.0000
vt 0.8306 0.3023 0.0000
vt 0.8799 0.0596 0.0000
vt 0.7809 0.2724 0.0000
vt 0.7805 0.0000 0.0000
vt 0.7290 0.2855 0.0000
vt 0.6766 0.0262 0.0000
vt 0.6838 0.3392 0.0000
vt 0.5861 0.1336 0.0000
vt 0.6435 0.0654 0.0000
vt 0.6530 0.4243 0.0000
vt 0.5247 0.3037 0.0000
vt 0.6422 0.5260 0.0000
vt 0.5030 0.5071 0.0000
vt 0.6530 0.6267 0.0000
vt 0.5247 0.7085 0.0000
vt 0.5400 0.7496 0.0000
vt 0.6564 0.6357 0.0000
vt 0.6838 0.7091 0.0000
vt 0.5861 0.8733 0.0000
vt 0.7290 0.7589 0.0000
vt 0.6766 0.9728 0.0000
vt 0.7809 0.7674 0.0000
vt 0.7805 0.9899 0.0000
vt 0.8306 0.7333 0.0000
vt 0.8799 0.9217 0.0000
vt 0.8637 0.9328 0.0000
vt 0.0447 0.2337 0.0000
vt 0.2530 0.4954 0.0000
vt 0.1032 0.8954 0.0000
vt 0.0841 0.8736 0.0000
vt 0.0220 0.7045 0.0000
vt 0.0000 0.5000 0.0000
vt 0.0220 0.2955 0.0000
vt 0.7841 0.4916 0.0000
vt 0.8469 0.4082 0.0000
vt 0.7742 0.5320 0.0000
vt 0.7701 0.5096 0.0000
vt 0.7749 0.5035 0.0000
vt 0.7611 0.5203 0.0000
vt 0.7660 0.5145 0.0000
vt 0.6933 0.5952 0.0000
vt 0.7516 0.5309 0.0000
vt 0.7665 0.5140 0.0000
vt 0.4670 0.7644 0.0000
vt 0.2586 0.4805 0.0000
vt 0.4010 0.0995 0.0000
vt 0.4600 0.2045 0.0000
vt 0.5030 0.3955 0.0000
vt 0.5030 0.6045 0.0000
vt 0.3814 0.9354 0.0000
vt 0.2809 1.0000 0.0000
vt 0.1757 0.9781 0.0000
vt 0.4600 0.7955 0.0000
vt 0.0841 0.1264 0.0000
vt 0.1757 0.0219 0.0000
vt 0.2809 0.0000 0.0000
vt 0.3814 0.0646 0.0000
vt 0.0481 0.7986 0.0000
vt 0.0986 0.8896 0.0000
vt 0.0528 0.9089 0.0000
vt 0.0000 0.8102 0.0000
vt 0.6193 0.6976 0.0000
vt 0.6498 0.6313 0.0000
vt 0.6969 0.6464 0.0000
vt 0.6671 0.7104 0.0000
vt 0.3566 0.1358 0.0000
vt 0.3241 0.2428 0.0000
vt 0.2753 0.2350 0.0000
vt 0.3074 0.1381 0.0000
vt 0.7474 0.6313 0.0000
vt 0.7843 0.6612 0.0000
vt 0.7656 0.6955 0.0000
vt 0.7171 0.6868 0.0000
vt 0.7058 0.6471 0.0000
vt 0.6969 0.7364 0.0000
vt 0.7458 0.7429 0.0000
vt 0.1468 0.7652 0.0000
vt 0.1942 0.8490 0.0000
vt 0.1483 0.8679 0.0000
vt 0.0986 0.7763 0.0000
vt 0.8368 0.6619 0.0000
vt 0.8536 0.6400 0.0000
vt 0.9028 0.6439 0.0000
vt 0.9164 0.6682 0.0000
vt 0.8756 0.6794 0.0000
vt 0.8202 0.0000 0.0000
vt 0.8220 0.0580 0.0000
vt 0.7727 0.0598 0.0000
vt 0.7709 0.0017 0.0000
vt 0.8020 0.1768 0.0000
vt 0.7527 0.1786 0.0000
vt 0.7815 0.2163 0.0000
vt 0.7322 0.2181 0.0000
vt 0.6573 0.4251 0.0000
vt 0.6079 0.4268 0.0000
vt 0.7290 0.5934 0.0000
vt 0.6964 0.6313 0.0000
vt 0.8122 0.5909 0.0000
vt 0.8220 0.6211 0.0000
vt 0.1942 0.6627 0.0000
vt 0.1504 0.6406 0.0000
vt 0.9465 0.6218 0.0000
vt 0.9505 0.5676 0.0000
vt 0.9997 0.5716 0.0000
vt 0.9956 0.6258 0.0000
vt 0.9508 0.4441 0.0000
vt 1.0000 0.4482 0.0000
vt 0.9462 0.3958 0.0000
vt 0.9954 0.3998 0.0000
vt 0.9164 0.1320 0.0000
vt 0.9656 0.1360 0.0000
vt 0.9538 0.0000 0.0000
vt 1.0000 0.0138 0.0000
vt 0.7406 0.9431 0.0000
vt 0.7078 0.8734 0.0000
vt 0.7568 0.8672 0.0000
vt 0.7843 0.9237 0.0000
vt 0.3087 0.6406 0.0000
vt 0.2956 0.5838 0.0000
vt 0.3435 0.5717 0.0000
vt 0.3566 0.6285 0.0000
vt 0.2400 0.4734 0.0000
vt 0.2879 0.4613 0.0000
vt 0.2048 0.4401 0.0000
vt 0.2528 0.4280 0.0000
vt 0.0000 0.2682 0.0000
vt 0.0480 0.2561 0.0000
vt 0.0587 0.0234 0.0000
vt 0.0937 0.0597 0.0000
vt 0.2454 0.0000 0.0000
vt 0.2147 0.0403 0.0000
vt 0.8574 0.5887 0.0000
vt 0.9066 0.5926 0.0000
vt 0.8571 0.4681 0.0000
vt 0.9063 0.4720 0.0000
vt 0.8523 0.4191 0.0000
vt 0.9015 0.4229 0.0000
vt 0.8220 0.1492 0.0000
vt 0.8713 0.1530 0.0000
vt 0.8701 0.0000 0.0000
vt 0.9164 0.0122 0.0000
vt 0.6516 1.0000 0.0000
vt 0.6079 0.8884 0.0000
vt 0.6573 0.8883 0.0000
vt 0.6969 0.9880 0.0000
vt 0.6079 0.0033 0.0000
vt 0.6044 0.0612 0.0000
vt 0.5551 0.0579 0.0000
vt 0.5587 0.0000 0.0000
vt 0.5733 0.1773 0.0000
vt 0.5241 0.1740 0.0000
vt 0.5492 0.2144 0.0000
vt 0.5000 0.2111 0.0000
vt 0.4059 0.4091 0.0000
vt 0.3566 0.4058 0.0000
vt 0.4748 0.6216 0.0000
vt 0.4388 0.6560 0.0000
vt 0.6009 0.6247 0.0000
vt 0.6079 0.6560 0.0000
vt 0.0986 0.6623 0.0000
vt 0.0546 0.6406 0.0000
vt 0.7412 0.8558 0.0000
vt 0.7919 0.9378 0.0000
vt 0.7460 0.9550 0.0000
vt 0.6929 0.8661 0.0000
vt 0.9238 0.7152 0.0000
vt 0.9527 0.6633 0.0000
vt 1.0000 0.6763 0.0000
vt 0.9719 0.7263 0.0000
vt 0.3549 0.1191 0.0000
vt 0.3246 0.2154 0.0000
vt 0.2755 0.2095 0.0000
vt 0.3055 0.1222 0.0000
vt 0.6559 0.7168 0.0000
vt 0.6929 0.7436 0.0000
vt 0.6741 0.7742 0.0000
vt 0.6255 0.7665 0.0000
vt 0.6142 0.7310 0.0000
vt 0.6052 0.8108 0.0000
vt 0.6543 0.8166 0.0000
vt 0.0484 0.8450 0.0000
vt 0.0960 0.9205 0.0000
vt 0.0499 0.9374 0.0000
vt 0.0000 0.8549 0.0000
vt 0.9132 0.0149 0.0000
vt 0.8967 0.0348 0.0000
vt 0.8472 0.0322 0.0000
vt 0.8332 0.0107 0.0000
vt 0.8739 0.0000 0.0000
vt 0.7673 0.0000 0.0000
vt 0.8202 0.2091 0.0000
vt 0.7707 0.2107 0.0000
vt 0.7178 0.0016 0.0000
vt 0.8001 0.3142 0.0000
vt 0.7506 0.3158 0.0000
vt 0.7795 0.3488 0.0000
vt 0.7300 0.3504 0.0000
vt 0.6547 0.5314 0.0000
vt 0.6052 0.5330 0.0000
vt 0.7267 0.6828 0.0000
vt 0.6940 0.7168 0.0000
vt 0.8103 0.6825 0.0000
vt 0.8202 0.7109 0.0000
vt 0.0960 0.7550 0.0000
vt 0.0521 0.7356 0.0000
vt 0.9154 0.6596 0.0000
vt 0.9465 0.4979 0.0000
vt 0.9959 0.5016 0.0000
vt 0.9648 0.6633 0.0000
vt 0.9468 0.3895 0.0000
vt 0.9962 0.3932 0.0000
vt 0.9423 0.3457 0.0000
vt 0.9917 0.3493 0.0000
vt 0.9132 0.1051 0.0000
vt 0.9625 0.1088 0.0000
vt 0.9497 0.0000 0.0000
vt 0.9962 0.0114 0.0000
vt 0.6490 0.9956 0.0000
vt 0.6162 0.9333 0.0000
vt 0.6653 0.9278 0.0000
vt 0.6929 0.9783 0.0000
vt 0.3071 0.7356 0.0000
vt 0.3034 0.5208 0.0000
vt 0.3512 0.5089 0.0000
vt 0.3549 0.7238 0.0000
vt 0.2452 0.4232 0.0000
vt 0.2930 0.4114 0.0000
vt 0.2092 0.3943 0.0000
vt 0.2571 0.3824 0.0000
vt 0.0000 0.2449 0.0000
vt 0.0478 0.2331 0.0000
vt 0.0536 0.0249 0.0000
vt 0.0895 0.0566 0.0000
vt 0.2404 0.0000 0.0000
vt 0.2104 0.0366 0.0000
vt 0.8697 0.1938 0.0000
vt 0.8202 0.1913 0.0000
vt 0.8722 0.3016 0.0000
vt 0.8227 0.2990 0.0000
vt 0.8778 0.3454 0.0000
vt 0.8284 0.3428 0.0000
vt 0.9132 0.5861 0.0000
vt 0.8637 0.5835 0.0000
vt 0.8677 0.7203 0.0000
vt 0.8210 0.7103 0.0000
vt 0.9543 1.0000 0.0000
vt 0.9132 0.8860 0.0000
vt 0.9627 0.8858 0.0000
vt 1.0000 0.9878 0.0000
vt 0.5759 0.0032 0.0000
vt 0.6052 0.2163 0.0000
vt 0.5558 0.2131 0.0000
vt 0.5265 0.0000 0.0000
vt 0.5734 0.3188 0.0000
vt 0.5240 0.3156 0.0000
vt 0.5490 0.3511 0.0000
vt 0.4996 0.3479 0.0000
vt 0.4043 0.5202 0.0000
vt 0.3549 0.5170 0.0000
vt 0.4722 0.7117 0.0000
vt 0.4358 0.7424 0.0000
vt 0.5984 0.7183 0.0000
vt 0.6052 0.7476 0.0000
vt 0.7919 0.7358 0.0000
vt 0.7478 0.7168 0.0000
vt 0.1169 0.0000 0.0000
vt 0.1169 1.0000 0.0000
vt 0.0537 1.0000 0.0000
vt 0.0537 0.0000 0.0000
vt 0.0000 1.0000 0.0000
vt 0.0000 0.0000 0.0000
vt 1.0000 0.0000 0.0000
vt 1.0000 1.0000 0.0000
vt 0.9368 1.0000 0.0000
vt 0.9368 0.0000 0.0000
vt 0.8666 1.0000 0.0000
vt 0.8666 0.0000 0.0000
vt 0.7921 1.0000 0.0000
vt 0.7921 0.0000 0.0000
vt 0.7161 1.0000 0.0000
vt 0.7161 0.0000 0.0000
vt 0.6415 1.0000 0.0000
vt 0.6415 0.0000 0.0000
vt 0.5993 1.0000 0.0000
vt 0.5993 0.0000 0.0000
vt 0.5456 1.0000 0.0000
vt 0.5456 0.0000 0.0000
vt 0.4824 1.0000 0.0000
vt 0.4824 0.0000 0.0000
vt 0.4122 1.0000 0.0000
vt 0.4122 0.0000 0.0000
vt 0.3377 1.0000 0.0000
vt 0.3377 0.0000 0.0000
vt 0.2617 1.0000 0.0000
vt 0.2617 0.0000 0.0000
vt 0.1871 1.0000 0.0000
vt 0.1871 0.0000 0.0000
vt 0.5955 0.0000 0.0000
vt 0.5955 0.3344 0.0000
vt 0.5547 0.3344 0.0000
vt 0.5547 0.0000 0.0000
vt 0.5147 0.3344 0.0000
vt 0.5147 0.0000 0.0000
vt 0.4770 0.3344 0.0000
vt 0.4770 0.0000 0.0000
vt 0.4431 0.3344 0.0000
vt 0.4431 0.0000 0.0000
vt 0.4142 0.3344 0.0000
vt 0.4142 0.0000 0.0000
vt 0.2640 0.6656 0.0000
vt 0.2640 1.0000 0.0000
vt 0.2301 1.0000 0.0000
vt 0.2301 0.6656 0.0000
vt 0.1924 1.0000 0.0000
vt 0.1924 0.6656 0.0000
vt 0.1524 1.0000 0.0000
vt 0.1524 0.6656 0.0000
vt 0.1116 1.0000 0.0000
vt 0.1116 0.6656 0.0000
vt 0.0716 1.0000 0.0000
vt 0.0716 0.6656 0.0000
vt 0.0339 1.0000 0.0000
vt 0.0339 0.6656 0.0000
vt 0.0000 0.6656 0.0000
vt 0.4142 0.6688 0.0000
vt 0.4481 0.3344 0.0000
vt 0.4481 0.6688 0.0000
vt 0.4858 0.3344 0.0000
vt 0.4858 0.6688 0.0000
vt 0.5258 0.3344 0.0000
vt 0.5258 0.6688 0.0000
vt 0.5666 0.3344 0.0000
vt 0.5666 0.6688 0.0000
vt 0.6066 0.3344 0.0000
vt 0.6066 0.6688 0.0000
vt 0.6443 0.3344 0.0000
vt 0.6443 0.6688 0.0000
vt 0.6783 0.3344 0.0000
vt 0.6783 0.6688 0.0000
vt 0.7071 0.3344 0.0000
vt 0.7071 0.6688 0.0000
vt 0.7410 0.3344 0.0000
vt 0.7410 0.6688 0.0000
vt 0.7787 0.3344 0.0000
vt 0.7787 0.6688 0.0000
vt 0.8187 0.3344 0.0000
vt 0.8187 0.6688 0.0000
vt 0.8595 0.3344 0.0000
vt 0.8595 0.6688 0.0000
vt 0.8995 0.3344 0.0000
vt 0.8995 0.6688 0.0000
vt 0.9372 0.3344 0.0000
vt 0.9372 0.6688 0.0000
vt 0.9712 0.3344 0.0000
vt 0.9712 0.6688 0.0000
vt 1.0000 0.3344 0.0000
vt 1.0000 0.6688 0.0000
vt 0.7360 0.0000 0.0000
vt 0.7360 0.3344 0.0000
vt 0.7071 0.0000 0.0000
vt 0.6732 0.3344 0.0000
vt 0.6732 0.0000 0.0000
vt 0.1867 0.6656 0.0000
vt 0.1467 0.6592 0.0000
vt 0.1090 0.6467 0.0000
vt 0.0751 0.6284 0.0000
vt 0.0462 0.6053 0.0000
vt 0.0236 0.5780 0.0000
vt 0.0080 0.5477 0.0000
vt 0.0000 0.5156 0.0000
vt 0.0000 0.4828 0.0000
vt 0.0080 0.4507 0.0000
vt 0.0236 0.4204 0.0000
vt 0.0462 0.3931 0.0000
vt 0.0751 0.3699 0.0000
vt 0.1090 0.3517 0.0000
vt 0.1467 0.3392 0.0000
vt 0.1867 0.3328 0.0000
vt 0.2275 0.3328 0.0000
vt 0.2675 0.3392 0.0000
vt 0.3052 0.3517 0.0000
vt 0.3391 0.3699 0.0000
vt 0.3680 0.3931 0.0000
vt 0.3906 0.4204 0.0000
vt 0.4063 0.4507 0.0000
vt 0.4142 0.4828 0.0000
vt 0.4142 0.5156 0.0000
vt 0.4063 0.5477 0.0000
vt 0.3906 0.5780 0.0000
vt 0.3680 0.6053 0.0000
vt 0.3391 0.6284 0.0000
vt 0.3052 0.6467 0.0000
vt 0.2675 0.6592 0.0000
vt 0.2275 0.6656 0.0000
vt 0.6355 0.3344 0.0000
vt 0.6355 0.0000 0.0000
vt 0.0000 0.1828 0.0000
vt 0.0000 0.1500 0.0000
vt 0.0080 0.1179 0.0000
vt 0.0236 0.0876 0.0000
vt 0.0462 0.0603 0.0000
vt 0.0751 0.0371 0.0000
vt 0.1090 0.0189 0.0000
vt 0.1467 0.0064 0.0000
vt 0.1867 0.0000 0.0000
vt 0.2275 0.0000 0.0000
vt 0.2675 0.0064 0.0000
vt 0.3052 0.0189 0.0000
vt 0.3391 0.0371 0.0000
vt 0.3680 0.0603 0.0000
vt 0.3906 0.0876 0.0000
vt 0.4063 0.1179 0.0000
vt 0.4142 0.1500 0.0000
vt 0.4142 0.1828 0.0000
vt 0.4063 0.2149 0.0000
vt 0.3906 0.2452 0.0000
vt 0.3680 0.2725 0.0000
vt 0.3391 0.2956 0.0000
vt 0.3052 0.3139 0.0000
vt 0.2675 0.3264 0.0000
vt 0.1467 0.3264 0.0000
vt 0.1090 0.3139 0.0000
vt 0.0751 0.2956 0.0000
vt 0.0462 0.2725 0.0000
vt 0.0236 0.2452 0.0000
vt 0.0080 0.2149 0.0000
# 436 texture coords

o Poste
g Poste
usemtl 01___Default
s off
f 1/1/1 2/2/1 3/3/1 
f 3/3/1 4/4/1 1/1/1 
f 4/4/2 3/3/2 5/5/2 
f 5/5/2 6/6/2 4/4/2 
f 7/7/3 8/8/3 9/9/3 
f 9/9/3 10/10/3 7/7/3 
f 10/10/4 9/9/4 11/11/4 
f 11/11/4 12/12/4 10/10/4 
f 12/12/5 11/11/5 13/13/5 
f 13/13/5 14/14/5 12/12/5 
f 14/14/6 13/13/6 15/15/6 
f 15/15/6 16/16/6 14/14/6 
f 16/16/7 15/15/7 17/17/7 
f 16/16/7 17/17/7 18/18/7 
f 16/16/7 18/18/7 19/19/7 
f 18/18/8 17/17/8 20/20/8 
f 20/20/8 21/21/8 18/18/8 
f 21/21/9 20/20/9 22/22/9 
f 22/22/9 23/23/9 21/21/9 
f 23/23/10 22/22/10 24/24/10 
f 24/24/10 25/25/10 23/23/10 
f 26/26/11 27/27/11 28/28/11 
f 28/28/11 29/29/11 26/26/11 
f 29/29/12 28/28/12 30/30/12 
f 30/30/12 31/31/12 29/29/12 
f 31/31/13 30/30/13 32/32/13 
f 32/32/13 33/33/13 31/31/13 
f 33/33/14 32/32/14 34/34/14 
f 33/33/14 34/34/14 35/35/14 
f 33/33/14 35/35/14 36/36/14 
f 35/35/15 34/34/15 2/2/15 
f 2/2/15 1/1/15 35/35/15 
f 19/37/16 37/38/16 7/39/16 
f 19/37/16 7/39/16 10/40/16 
f 19/37/16 10/40/16 12/41/16 
f 19/37/16 12/41/16 14/42/16 
f 19/37/16 14/42/16 16/43/16 
f 38/44/17 39/45/17 40/46/17 
f 41/47/18 42/48/18 40/46/18 
f 43/49/19 44/50/19 40/46/19 
f 45/51/20 46/52/20 40/46/20 
f 30/30/21 28/28/21 40/46/21 
f 34/34/22 32/32/22 40/46/22 
f 3/3/23 2/2/23 40/46/23 
f 8/8/24 5/5/24 40/46/24 
f 40/46/24 39/45/24 8/8/24 
f 42/48/25 38/44/25 40/46/25 
f 44/50/26 47/53/26 41/47/26 
f 41/47/26 40/46/26 44/50/26 
f 46/52/27 43/49/27 40/46/27 
f 27/27/28 24/24/28 45/51/28 
f 32/32/29 30/30/29 40/46/29 
f 2/2/30 34/34/30 40/46/30 
f 5/5/31 3/3/31 40/46/31 
f 20/20/19 17/17/19 44/50/19 
f 44/50/19 43/49/19 20/20/19 
f 17/17/26 15/15/26 41/47/26 
f 17/17/26 41/47/26 47/53/26 
f 17/17/26 47/53/26 44/50/26 
f 15/15/18 13/13/18 42/48/18 
f 42/48/18 41/47/18 15/15/18 
f 13/13/25 11/11/25 38/44/25 
f 38/44/25 42/48/25 13/13/25 
f 11/11/17 9/9/17 39/45/17 
f 39/45/17 38/44/17 11/11/17 
f 9/9/24 8/8/24 39/45/24 
f 28/28/28 27/27/28 45/51/28 
f 45/51/28 40/46/28 28/28/28 
f 24/24/20 22/22/20 46/52/20 
f 46/52/20 45/51/20 24/24/20 
f 22/22/27 20/20/27 43/49/27 
f 43/49/27 46/52/27 22/22/27 
f 25/25/11 24/24/11 27/27/11 
f 27/27/11 26/26/11 25/25/11 
f 6/6/3 5/5/3 8/8/3 
f 8/8/3 7/7/3 6/6/3 
f 36/54/32 37/38/32 48/55/32 
f 36/54/32 48/55/32 26/56/32 
f 36/54/32 26/56/32 29/57/32 
f 36/54/32 29/57/32 31/58/32 
f 36/54/32 31/58/32 33/59/32 
f 1/60/33 4/61/33 6/62/33 
f 1/60/33 6/62/33 7/39/33 
f 1/60/33 7/39/33 37/38/33 
f 1/60/33 37/38/33 36/54/33 
f 1/60/33 36/54/33 35/63/33 
f 26/56/34 48/55/34 37/38/34 
f 26/56/34 37/38/34 19/37/34 
f 26/56/34 19/37/34 18/64/34 
f 26/56/34 18/64/34 21/65/34 
f 26/56/34 21/65/34 23/66/34 
f 26/56/34 23/66/34 25/67/34 
f 49/68/35 50/69/35 51/70/35 
f 51/70/35 52/71/35 49/68/35 
f 52/72/36 51/73/36 53/74/36 
f 53/74/36 54/75/36 52/72/36 
f 54/76/37 53/77/37 55/78/37 
f 55/78/37 56/79/37 54/76/37 
f 51/80/38 50/81/38 57/82/38 
f 51/80/38 57/82/38 55/83/38 
f 51/80/38 55/83/38 53/84/38 
f 56/85/39 55/83/39 57/82/39 
f 57/82/39 58/86/39 56/85/39 
f 58/87/40 57/88/40 50/89/40 
f 50/89/40 49/90/40 58/87/40 
f 59/91/41 60/92/41 61/93/41 
f 59/91/41 61/93/41 62/94/41 
f 59/91/41 62/94/41 63/95/41 
f 63/96/42 64/97/42 65/98/42 
f 65/98/42 59/99/42 63/96/42 
f 64/97/43 66/100/43 67/101/43 
f 67/101/43 65/98/43 64/97/43 
f 66/100/44 68/102/44 69/103/44 
f 69/103/44 67/101/44 66/100/44 
f 68/102/45 70/104/45 71/105/45 
f 71/105/45 69/103/45 68/102/45 
f 70/104/46 72/106/46 73/107/46 
f 73/107/46 71/105/46 70/104/46 
f 72/106/47 74/108/47 75/109/47 
f 75/109/47 73/107/47 72/106/47 
f 74/110/48 58/87/48 49/90/48 
f 49/90/48 75/111/48 74/110/48 
f 62/112/49 76/113/49 64/114/49 
f 64/114/49 63/115/49 62/112/49 
f 76/113/50 77/116/50 66/117/50 
f 66/117/50 64/114/50 76/113/50 
f 77/116/51 78/118/51 68/119/51 
f 68/119/51 66/117/51 77/116/51 
f 78/118/52 79/120/52 70/121/52 
f 70/121/52 68/119/52 78/118/52 
f 79/120/53 80/122/53 72/123/53 
f 72/123/53 70/121/53 79/120/53 
f 80/124/54 81/125/54 74/126/54 
f 74/126/54 72/127/54 80/124/54 
f 81/125/55 56/85/55 58/86/55 
f 58/86/55 74/126/55 81/125/55 
f 61/128/37 82/129/37 76/130/37 
f 76/130/37 62/131/37 61/128/37 
f 82/129/37 83/132/37 77/133/37 
f 77/133/37 76/130/37 82/129/37 
f 83/132/37 84/134/37 78/135/37 
f 78/135/37 77/133/37 83/132/37 
f 84/134/37 85/136/37 79/137/37 
f 79/137/37 78/135/37 84/134/37 
f 85/136/37 86/138/37 80/139/37 
f 80/139/37 79/137/37 85/136/37 
f 86/138/37 87/140/37 81/141/37 
f 81/141/37 80/139/37 86/138/37 
f 87/140/37 54/76/37 56/79/37 
f 56/79/37 81/141/37 87/140/37 
f 60/92/56 88/142/56 82/143/56 
f 82/143/56 61/93/56 60/92/56 
f 88/142/57 89/144/57 83/145/57 
f 83/145/57 82/143/57 88/142/57 
f 89/144/58 90/146/58 84/147/58 
f 84/147/58 83/145/58 89/144/58 
f 90/146/59 91/148/59 85/149/59 
f 85/149/59 84/147/59 90/146/59 
f 91/148/60 92/150/60 86/151/60 
f 86/151/60 85/149/60 91/148/60 
f 92/152/61 93/153/61 87/154/61 
f 87/154/61 86/155/61 92/152/61 
f 93/153/62 52/72/62 54/75/62 
f 54/75/62 87/154/62 93/153/62 
f 59/156/63 65/157/63 88/158/63 
f 88/158/63 60/159/63 59/156/63 
f 65/157/64 67/160/64 89/161/64 
f 89/161/64 88/158/64 65/157/64 
f 67/160/65 69/162/65 90/163/65 
f 90/163/65 89/161/65 67/160/65 
f 69/162/66 71/164/66 91/165/66 
f 91/165/66 90/163/66 69/162/66 
f 71/164/67 73/166/67 92/167/67 
f 92/167/67 91/165/67 71/164/67 
f 73/166/68 75/168/68 93/169/68 
f 93/169/68 92/167/68 73/166/68 
f 75/170/69 49/68/69 52/71/69 
f 52/71/69 93/171/69 75/170/69 
f 94/172/70 95/173/70 96/174/70 
f 96/174/70 97/175/70 94/172/70 
f 97/176/71 96/177/71 98/178/71 
f 98/178/71 99/179/71 97/176/71 
f 99/180/72 98/181/72 100/182/72 
f 100/182/72 101/183/72 99/180/72 
f 96/184/73 95/185/73 102/186/73 
f 96/184/73 102/186/73 100/187/73 
f 96/184/73 100/187/73 98/188/73 
f 101/189/74 100/187/74 102/186/74 
f 102/186/74 103/190/74 101/189/74 
f 103/191/75 102/192/75 95/193/75 
f 95/193/75 94/194/75 103/191/75 
f 104/195/76 105/196/76 106/197/76 
f 104/195/76 106/197/76 107/198/76 
f 104/195/76 107/198/76 108/199/76 
f 108/200/77 109/201/77 110/202/77 
f 110/202/77 104/203/77 108/200/77 
f 109/201/78 111/204/78 112/205/78 
f 112/205/78 110/202/78 109/201/78 
f 111/204/79 113/206/79 114/207/79 
f 114/207/79 112/205/79 111/204/79 
f 113/206/80 115/208/80 116/209/80 
f 116/209/80 114/207/80 113/206/80 
f 115/208/81 117/210/81 118/211/81 
f 118/211/81 116/209/81 115/208/81 
f 117/210/82 119/212/82 120/213/82 
f 120/213/82 118/211/82 117/210/82 
f 119/214/83 103/191/83 94/194/83 
f 94/194/83 120/215/83 119/214/83 
f 107/216/84 121/217/84 109/218/84 
f 109/218/84 108/219/84 107/216/84 
f 121/217/85 122/220/85 111/221/85 
f 111/221/85 109/218/85 121/217/85 
f 122/220/86 123/222/86 113/223/86 
f 113/223/86 111/221/86 122/220/86 
f 123/222/87 124/224/87 115/225/87 
f 115/225/87 113/223/87 123/222/87 
f 124/224/88 125/226/88 117/227/88 
f 117/227/88 115/225/88 124/224/88 
f 125/228/89 126/229/89 119/230/89 
f 119/230/89 117/231/89 125/228/89 
f 126/229/90 101/189/90 103/190/90 
f 103/190/90 119/230/90 126/229/90 
f 106/232/72 127/233/72 121/234/72 
f 121/234/72 107/235/72 106/232/72 
f 127/233/72 128/236/72 122/237/72 
f 122/237/72 121/234/72 127/233/72 
f 128/236/72 129/238/72 123/239/72 
f 123/239/72 122/237/72 128/236/72 
f 129/238/72 130/240/72 124/241/72 
f 124/241/72 123/239/72 129/238/72 
f 130/240/72 131/242/72 125/243/72 
f 125/243/72 124/241/72 130/240/72 
f 131/242/72 132/244/72 126/245/72 
f 126/245/72 125/243/72 131/242/72 
f 132/244/72 99/180/72 101/183/72 
f 101/183/72 126/245/72 132/244/72 
f 105/196/91 133/246/91 127/247/91 
f 127/247/91 106/197/91 105/196/91 
f 133/246/92 134/248/92 128/249/92 
f 128/249/92 127/247/92 133/246/92 
f 134/248/93 135/250/93 129/251/93 
f 129/251/93 128/249/93 134/248/93 
f 135/250/94 136/252/94 130/253/94 
f 130/253/94 129/251/94 135/250/94 
f 136/252/95 137/254/95 131/255/95 
f 131/255/95 130/253/95 136/252/95 
f 137/256/96 138/257/96 132/258/96 
f 132/258/96 131/259/96 137/256/96 
f 138/257/97 97/176/97 99/179/97 
f 99/179/97 132/258/97 138/257/97 
f 104/260/98 110/261/98 133/262/98 
f 133/262/98 105/263/98 104/260/98 
f 110/261/99 112/264/99 134/265/99 
f 134/265/99 133/262/99 110/261/99 
f 112/264/100 114/266/100 135/267/100 
f 135/267/100 134/265/100 112/264/100 
f 114/266/101 116/268/101 136/269/101 
f 136/269/101 135/267/101 114/266/101 
f 116/268/102 118/270/102 137/271/102 
f 137/271/102 136/269/102 116/268/102 
f 118/270/103 120/272/103 138/273/103 
f 138/273/103 137/271/103 118/270/103 
f 120/274/104 94/172/104 97/175/104 
f 97/175/104 138/275/104 120/274/104 
f 139/276/105 140/277/105 141/278/105 
f 141/278/105 142/279/105 139/276/105 
f 142/279/106 141/278/106 143/280/106 
f 143/280/106 144/281/106 142/279/106 
f 144/282/107 143/283/107 145/284/107 
f 145/284/107 146/285/107 144/282/107 
f 146/285/108 145/284/108 147/286/108 
f 147/286/108 148/287/108 146/285/108 
f 148/287/109 147/286/109 149/288/109 
f 149/288/109 150/289/109 148/287/109 
f 150/289/110 149/288/110 151/290/110 
f 151/290/110 152/291/110 150/289/110 
f 152/291/111 151/290/111 153/292/111 
f 153/292/111 154/293/111 152/291/111 
f 155/293/112 156/292/112 157/294/112 
f 157/294/112 158/295/112 155/293/112 
f 158/295/113 157/294/113 159/296/113 
f 159/296/113 160/297/113 158/295/113 
f 160/297/114 159/296/114 161/298/114 
f 161/298/114 162/299/114 160/297/114 
f 162/299/115 161/298/115 163/300/115 
f 163/300/115 164/301/115 162/299/115 
f 164/301/116 163/300/116 165/302/116 
f 165/302/116 166/303/116 164/301/116 
f 166/303/117 165/302/117 167/304/117 
f 167/304/117 168/305/117 166/303/117 
f 168/305/118 167/304/118 169/306/118 
f 169/306/118 170/307/118 168/305/118 
f 170/307/119 169/306/119 140/277/119 
f 140/277/119 139/276/119 170/307/119 
f 171/308/105 172/309/105 173/310/105 
f 173/310/105 174/311/105 171/308/105 
f 174/311/106 173/310/106 175/312/106 
f 175/312/106 176/313/106 174/311/106 
f 176/313/107 175/312/107 177/314/107 
f 177/314/107 178/315/107 176/313/107 
f 178/315/108 177/314/108 179/316/108 
f 179/316/108 180/317/108 178/315/108 
f 180/317/109 179/316/109 181/318/109 
f 181/318/109 182/319/109 180/317/109 
f 182/320/110 181/321/110 183/322/110 
f 183/322/110 184/323/110 182/320/110 
f 184/323/111 183/322/111 185/324/111 
f 185/324/111 186/325/111 184/323/111 
f 186/325/120 185/324/120 187/326/120 
f 187/326/120 188/327/120 186/325/120 
f 188/327/121 187/326/121 189/328/121 
f 189/328/121 190/329/121 188/327/121 
f 190/329/122 189/328/122 191/330/122 
f 191/330/122 192/331/122 190/329/122 
f 192/331/123 191/330/123 193/332/123 
f 193/332/123 194/333/123 192/331/123 
f 194/333/124 193/332/124 195/280/124 
f 195/280/124 196/334/124 194/333/124 
f 196/335/125 195/318/125 197/336/125 
f 197/336/125 198/337/125 196/335/125 
f 198/337/126 197/336/126 199/338/126 
f 199/338/126 200/339/126 198/337/126 
f 200/339/127 199/338/127 201/340/127 
f 201/340/127 202/341/127 200/339/127 
f 202/341/128 201/340/128 203/342/128 
f 203/342/128 204/343/128 202/341/128 
f 204/343/129 203/342/129 205/344/129 
f 205/344/129 206/345/129 204/343/129 
f 206/345/130 205/344/130 207/346/130 
f 207/346/130 208/347/130 206/345/130 
f 208/347/131 207/346/131 209/348/131 
f 209/348/131 210/349/131 208/347/131 
f 210/349/132 209/348/132 211/350/132 
f 211/350/132 212/351/132 210/349/132 
f 212/351/133 211/350/133 213/352/133 
f 213/352/133 214/353/133 212/351/133 
f 214/353/134 213/352/134 215/354/134 
f 215/354/134 216/355/134 214/353/134 
f 216/355/135 215/354/135 217/356/135 
f 217/356/135 218/357/135 216/355/135 
f 218/357/136 217/356/136 219/358/136 
f 219/358/136 220/359/136 218/357/136 
f 220/359/112 219/358/112 221/360/112 
f 221/360/112 222/361/112 220/359/112 
f 222/361/113 221/360/113 223/362/113 
f 223/362/113 224/363/113 222/361/113 
f 224/363/114 223/362/114 225/364/114 
f 225/364/114 226/365/114 224/363/114 
f 226/365/115 225/364/115 227/366/115 
f 227/366/115 228/367/115 226/365/115 
f 228/368/116 227/369/116 229/350/116 
f 229/350/116 230/370/116 228/368/116 
f 230/370/117 229/350/117 231/371/117 
f 231/371/117 232/372/117 230/370/117 
f 173/373/137 172/374/137 233/375/137 
f 173/373/137 233/375/137 231/376/137 
f 173/373/137 231/376/137 229/377/137 
f 173/373/137 229/377/137 227/378/137 
f 173/373/137 227/378/137 225/379/137 
f 173/373/137 225/379/137 223/380/137 
f 173/373/137 223/380/137 221/381/137 
f 173/373/137 221/381/137 219/382/137 
f 173/373/137 219/382/137 217/383/137 
f 173/373/137 217/383/137 215/384/137 
f 173/373/137 215/384/137 213/385/137 
f 173/373/137 213/385/137 211/386/137 
f 173/373/137 211/386/137 209/387/137 
f 173/373/137 209/387/137 207/388/137 
f 173/373/137 207/388/137 205/389/137 
f 173/373/137 205/389/137 203/390/137 
f 173/373/137 203/390/137 201/391/137 
f 173/373/137 201/391/137 199/392/137 
f 173/373/137 199/392/137 197/393/137 
f 173/373/137 197/393/137 195/394/137 
f 173/373/137 195/394/137 193/395/137 
f 173/373/137 193/395/137 191/396/137 
f 173/373/137 191/396/137 189/397/137 
f 173/373/137 189/397/137 187/398/137 
f 173/373/137 187/398/137 185/399/137 
f 173/373/137 185/399/137 183/400/137 
f 173/373/137 183/400/137 181/401/137 
f 173/373/137 181/401/137 179/402/137 
f 173/373/137 179/402/137 177/403/137 
f 173/373/137 177/403/137 175/404/137 
f 232/372/118 231/371/118 233/405/118 
f 233/405/118 234/406/118 232/372/118 
f 234/406/119 233/405/119 172/309/119 
f 172/309/119 171/308/119 234/406/119 
f 171/407/138 174/408/138 176/409/138 
f 171/407/138 176/409/138 178/410/138 
f 171/407/138 178/410/138 180/411/138 
f 171/407/138 180/411/138 182/412/138 
f 171/407/138 182/412/138 184/413/138 
f 171/407/138 184/413/138 186/414/138 
f 171/407/138 186/414/138 188/415/138 
f 171/407/138 188/415/138 190/416/138 
f 171/407/138 190/416/138 192/417/138 
f 171/407/138 192/417/138 194/418/138 
f 171/407/138 194/418/138 196/419/138 
f 171/407/138 196/419/138 198/420/138 
f 171/407/138 198/420/138 200/421/138 
f 171/407/138 200/421/138 202/422/138 
f 171/407/138 202/422/138 204/423/138 
f 171/407/138 204/423/138 206/424/138 
f 171/407/138 206/424/138 208/425/138 
f 171/407/138 208/425/138 210/426/138 
f 171/407/138 210/426/138 212/427/138 
f 171/407/138 212/427/138 214/428/138 
f 171/407/138 214/428/138 216/429/138 
f 171/407/138 216/429/138 218/430/138 
f 171/407/138 218/430/138 220/389/138 
f 171/407/138 220/389/138 222/388/138 
f 171/407/138 222/388/138 224/431/138 
f 171/407/138 224/431/138 226/432/138 
f 171/407/138 226/432/138 228/433/138 
f 171/407/138 228/433/138 230/434/138 
f 171/407/138 230/434/138 232/435/138 
f 171/407/138 232/435/138 234/436/138 
# 418 faces

#
# object Foco
#

v  -0.2297 3.5035 -3.8584
v  -0.2285 3.4045 -3.8486
v  -0.6592 3.3997 -3.5999
v  -0.6688 3.4986 -3.6048
v  -0.2241 3.0062 -3.4502
v  -0.2240 2.9964 -3.3513
v  -0.3098 3.0052 -3.4007
v  -0.2390 4.3440 -3.8486
v  -0.6697 4.3392 -3.5999
v  -0.2244 3.0350 -3.5453
v  -0.3925 3.0331 -3.4483
v  -0.2249 3.0819 -3.6330
v  -0.4689 3.0791 -3.4921
v  -0.2256 3.1449 -3.7098
v  -0.5362 3.1415 -3.5306
v  -0.2265 3.2218 -3.7729
v  -0.5916 3.2177 -3.5621
v  -0.2275 3.3094 -3.8198
v  -0.6332 3.3049 -3.5855
v  -0.6332 3.3049 -3.1170
v  -0.6592 3.3997 -3.1026
v  -0.6688 3.4986 -3.0977
v  -0.3098 3.0052 -3.3018
v  -0.6697 4.3392 -3.1026
v  -0.3925 3.0331 -3.2542
v  -0.4689 3.0791 -3.2104
v  -0.5362 3.1415 -3.1720
v  -0.5916 3.2177 -3.1405
v  -0.2244 3.0350 -3.1572
v  -0.2249 3.0819 -3.0696
v  -0.2256 3.1449 -2.9927
v  -0.2265 3.2218 -2.9296
v  -0.2275 3.3094 -2.8828
v  -0.2285 3.4045 -2.8539
v  -0.2297 3.5035 -2.8442
v  -0.2241 3.0062 -3.2523
v  -0.2390 4.3440 -2.8539
v  0.1782 3.3140 -3.1170
v  0.2021 3.4093 -3.1026
v  0.2095 3.5084 -3.0977
v  -0.1384 3.0071 -3.3018
v  0.1917 4.3488 -3.1026
v  -0.0564 3.0369 -3.2542
v  0.0190 3.0846 -3.2104
v  0.0849 3.1484 -3.1720
v  0.1386 3.2258 -3.1405
v  0.0190 3.0846 -3.4921
v  0.0849 3.1484 -3.5306
v  0.1386 3.2258 -3.5621
v  0.1782 3.3140 -3.5855
v  0.2021 3.4093 -3.5999
v  0.2095 3.5084 -3.6048
v  -0.1384 3.0071 -3.4007
v  0.1917 4.3488 -3.5999
v  -0.0564 3.0369 -3.4483
# 55 vertices

vn -0.4972 -0.0905 -0.8629
vn -0.0454 -0.9942 -0.0979
vn -0.5001 0.0045 -0.8660
vn -0.1547 -0.9456 -0.2863
vn -0.2531 -0.8538 -0.4549
vn -0.3358 -0.7296 -0.5957
vn -0.4011 -0.5838 -0.7059
vn -0.4490 -0.4251 -0.7859
vn -0.4807 -0.2595 -0.8376
vn -0.9643 -0.2649 -0.0000
vn -0.9954 -0.0961 -0.0000
vn -0.1019 -0.9948 0.0000
vn -1.0000 -0.0011 -0.0000
vn -0.3200 -0.9474 0.0000
vn -0.5157 -0.8568 0.0000
vn -0.6797 -0.7335 0.0000
vn -0.8086 -0.5884 0.0000
vn -0.9027 -0.4302 -0.0000
vn -0.2531 -0.8538 0.4549
vn -0.3358 -0.7296 0.5957
vn -0.4011 -0.5838 0.7059
vn -0.4490 -0.4251 0.7859
vn -0.4807 -0.2595 0.8376
vn -0.4972 -0.0905 0.8629
vn -0.0454 -0.9942 0.0979
vn -0.5001 0.0045 0.8660
vn -0.1547 -0.9456 0.2863
vn 0.4864 -0.2487 0.8376
vn 0.4991 -0.0794 0.8629
vn 0.0676 -0.9929 0.0979
vn 0.4998 0.0156 0.8660
vn 0.1758 -0.9419 0.2863
vn 0.2721 -0.8480 0.4549
vn 0.3520 -0.7220 0.5957
vn 0.4140 -0.5747 0.7059
vn 0.4584 -0.4150 0.7859
vn 0.6959 -0.7181 -0.0000
vn 0.8215 -0.5702 -0.0000
vn 0.9121 -0.4099 -0.0000
vn 0.9700 -0.2433 -0.0000
vn 0.9973 -0.0739 -0.0000
vn 0.1241 -0.9923 -0.0000
vn 0.9998 0.0212 -0.0000
vn 0.3411 -0.9400 -0.0000
vn 0.5347 -0.8451 -0.0000
vn 0.4991 -0.0794 -0.8629
vn 0.0676 -0.9929 -0.0979
vn 0.4998 0.0156 -0.8660
vn 0.1758 -0.9419 -0.2863
vn 0.2721 -0.8480 -0.4549
vn 0.3520 -0.7220 -0.5957
vn 0.4140 -0.5747 -0.7059
vn 0.4584 -0.4150 -0.7859
vn 0.4864 -0.2487 -0.8376
# 54 vertex normals

vt 0.3750 0.2131 0.0000
vt 0.3726 0.1665 0.0000
vt 0.4952 0.1278 0.0000
vt 0.5000 0.1737 0.0000
vt 0.1338 0.8181 0.0000
vt 0.1758 0.7944 0.0000
vt 0.1760 0.8413 0.0000
vt 0.3726 0.6023 0.0000
vt 0.4952 0.5637 0.0000
vt 0.0937 0.8415 0.0000
vt 0.1765 0.8870 0.0000
vt 0.0571 0.8636 0.0000
vt 0.1773 0.9298 0.0000
vt 0.0255 0.8837 0.0000
vt 0.1785 0.9679 0.0000
vt 0.0000 0.9010 0.0000
vt 0.1799 1.0000 0.0000
vt 0.3655 0.1201 0.0000
vt 0.3539 0.0758 0.0000
vt 0.4579 0.0430 0.0000
vt 0.4810 0.0837 0.0000
vt 0.9952 0.4745 0.0000
vt 0.9810 0.5187 0.0000
vt 0.8655 0.4822 0.0000
vt 0.8726 0.4359 0.0000
vt 1.0000 0.4286 0.0000
vt 0.8750 0.3892 0.0000
vt 0.2182 0.8179 0.0000
vt 0.9952 0.0387 0.0000
vt 0.8726 0.0000 0.0000
vt 0.2593 0.8411 0.0000
vt 0.2975 0.8631 0.0000
vt 0.3315 0.8830 0.0000
vt 0.3598 0.9002 0.0000
vt 0.9579 0.5593 0.0000
vt 0.8539 0.5266 0.0000
vt 0.2593 0.7496 0.0000
vt 0.2975 0.7302 0.0000
vt 0.8384 0.5671 0.0000
vt 0.8194 0.6023 0.0000
vt 0.6806 0.6023 0.0000
vt 0.6616 0.5671 0.0000
vt 0.6461 0.5266 0.0000
vt 0.6345 0.4822 0.0000
vt 0.6274 0.4359 0.0000
vt 0.6250 0.3892 0.0000
vt 0.2182 0.7712 0.0000
vt 0.6274 0.0000 0.0000
vt 0.5190 0.5187 0.0000
vt 0.5048 0.4745 0.0000
vt 0.5000 0.4286 0.0000
vt 0.1760 0.7480 0.0000
vt 0.5048 0.0387 0.0000
vt 0.1765 0.7040 0.0000
vt 0.1773 0.6641 0.0000
vt 0.3315 0.7140 0.0000
vt 0.1785 0.6298 0.0000
vt 0.3598 0.7013 0.0000
vt 0.1799 0.6023 0.0000
vt 0.5421 0.5593 0.0000
vt 0.0571 0.7308 0.0000
vt 0.0255 0.7147 0.0000
vt 0.0000 0.7022 0.0000
vt 0.0190 0.0837 0.0000
vt 0.0421 0.0430 0.0000
vt 0.1461 0.0758 0.0000
vt 0.1345 0.1201 0.0000
vt 0.0048 0.1278 0.0000
vt 0.1274 0.1665 0.0000
vt 0.0000 0.1737 0.0000
vt 0.1250 0.2131 0.0000
vt 0.1338 0.7714 0.0000
vt 0.0048 0.5637 0.0000
vt 0.1274 0.6023 0.0000
vt 0.0937 0.7500 0.0000
vt 0.1616 0.0352 0.0000
vt 0.1806 0.0000 0.0000
vt 0.3194 0.0000 0.0000
vt 0.3384 0.0352 0.0000
# 79 texture coords

o Foco
g Foco
usemtl 02___Default
s off
f 235/437/139 236/438/139 237/439/139 
f 237/439/139 238/440/139 235/437/139 
f 239/441/140 240/442/140 241/443/140 
f 242/444/141 235/437/141 238/440/141 
f 238/440/141 243/445/141 242/444/141 
f 244/446/142 239/441/142 241/443/142 
f 241/443/142 245/447/142 244/446/142 
f 246/448/143 244/446/143 245/447/143 
f 245/447/143 247/449/143 246/448/143 
f 248/450/144 246/448/144 247/449/144 
f 247/449/144 249/451/144 248/450/144 
f 250/452/145 248/450/145 249/451/145 
f 249/451/145 251/453/145 250/452/145 
f 252/454/146 250/455/146 251/456/146 
f 251/456/146 253/457/146 252/454/146 
f 236/438/147 252/454/147 253/457/147 
f 253/457/147 237/439/147 236/438/147 
f 237/458/148 253/459/148 254/460/148 
f 254/460/148 255/461/148 237/458/148 
f 238/462/149 237/458/149 255/461/149 
f 255/461/149 256/463/149 238/462/149 
f 241/443/150 240/442/150 257/464/150 
f 243/465/151 238/462/151 256/463/151 
f 256/463/151 258/466/151 243/465/151 
f 245/447/152 241/443/152 257/464/152 
f 257/464/152 259/467/152 245/447/152 
f 247/449/153 245/447/153 259/467/153 
f 259/467/153 260/468/153 247/449/153 
f 249/451/154 247/449/154 260/468/154 
f 260/468/154 261/469/154 249/451/154 
f 251/453/155 249/451/155 261/469/155 
f 261/469/155 262/470/155 251/453/155 
f 253/459/156 251/471/156 262/472/156 
f 262/472/156 254/460/156 253/459/156 
f 260/468/157 259/467/157 263/473/157 
f 263/473/157 264/474/157 260/468/157 
f 261/475/158 260/476/158 264/477/158 
f 264/477/158 265/478/158 261/475/158 
f 262/472/159 261/475/159 265/478/159 
f 265/478/159 266/479/159 262/472/159 
f 254/460/160 262/472/160 266/479/160 
f 266/479/160 267/480/160 254/460/160 
f 255/461/161 254/460/161 267/480/161 
f 267/480/161 268/481/161 255/461/161 
f 256/463/162 255/461/162 268/481/162 
f 268/481/162 269/482/162 256/463/162 
f 257/464/163 240/442/163 270/483/163 
f 258/466/164 256/463/164 269/482/164 
f 269/482/164 271/484/164 258/466/164 
f 259/467/165 257/464/165 270/483/165 
f 270/483/165 263/473/165 259/467/165 
f 268/481/166 267/480/166 272/485/166 
f 272/485/166 273/486/166 268/481/166 
f 269/482/167 268/481/167 273/486/167 
f 273/486/167 274/487/167 269/482/167 
f 270/483/168 240/442/168 275/488/168 
f 271/484/169 269/482/169 274/487/169 
f 274/487/169 276/489/169 271/484/169 
f 263/473/170 270/483/170 275/488/170 
f 275/488/170 277/490/170 263/473/170 
f 264/474/171 263/473/171 277/490/171 
f 277/490/171 278/491/171 264/474/171 
f 265/492/172 264/474/172 278/491/172 
f 278/491/172 279/493/172 265/492/172 
f 266/494/173 265/492/173 279/493/173 
f 279/493/173 280/495/173 266/494/173 
f 267/480/174 266/479/174 280/496/174 
f 280/496/174 272/485/174 267/480/174 
f 279/493/175 278/491/175 281/497/175 
f 281/497/175 282/498/175 279/493/175 
f 280/495/176 279/493/176 282/498/176 
f 282/498/176 283/499/176 280/495/176 
f 272/500/177 280/501/177 283/502/177 
f 283/502/177 284/503/177 272/500/177 
f 273/504/178 272/500/178 284/503/178 
f 284/503/178 285/505/178 273/504/178 
f 274/506/179 273/504/179 285/505/179 
f 285/505/179 286/507/179 274/506/179 
f 275/488/180 240/442/180 287/508/180 
f 276/509/181 274/506/181 286/507/181 
f 286/507/181 288/510/181 276/509/181 
f 277/490/182 275/488/182 287/508/182 
f 287/508/182 289/511/182 277/490/182 
f 278/491/183 277/490/183 289/511/183 
f 289/511/183 281/497/183 278/491/183 
f 286/507/184 285/505/184 236/438/184 
f 236/438/184 235/437/184 286/507/184 
f 287/508/185 240/442/185 239/441/185 
f 288/510/186 286/507/186 235/437/186 
f 235/437/186 242/444/186 288/510/186 
f 289/511/187 287/508/187 239/441/187 
f 239/441/187 244/446/187 289/511/187 
f 281/497/188 289/511/188 244/446/188 
f 244/446/188 246/448/188 281/497/188 
f 282/512/189 281/513/189 246/514/189 
f 246/514/189 248/515/189 282/512/189 
f 283/502/190 282/512/190 248/515/190 
f 248/515/190 250/455/190 283/502/190 
f 284/503/191 283/502/191 250/455/191 
f 250/455/191 252/454/191 284/503/191 
f 285/505/192 284/503/192 252/454/192 
f 252/454/192 236/438/192 285/505/192 
# 102 faces

#
# object Soportes
#

v  -0.7524 3.5755 -3.3384
v  -0.7168 3.5759 -3.5289
v  -0.7093 3.5443 -3.5262
v  -0.7444 3.5439 -3.3384
v  -0.6932 3.5366 -3.5200
v  -0.7272 3.5363 -3.3384
v  -0.6807 3.5587 -3.5150
v  -0.7137 3.5584 -3.3384
v  -0.6810 3.5939 -3.5150
v  -0.7141 3.5936 -3.3384
v  -0.6941 3.6157 -3.5200
v  -0.7281 3.6154 -3.3384
v  -0.7100 3.6077 -3.5262
v  -0.7451 3.6073 -3.3384
v  -0.6148 3.5771 -3.6937
v  -0.6088 3.5454 -3.6886
v  -0.5960 3.5377 -3.6770
v  -0.5861 3.5598 -3.6677
v  -0.5865 3.5950 -3.6677
v  -0.5969 3.6168 -3.6770
v  -0.6095 3.6088 -3.6886
v  -0.4601 3.5788 -3.8105
v  -0.4564 3.5471 -3.8037
v  -0.4486 3.5394 -3.7883
v  -0.4427 3.5614 -3.7760
v  -0.4431 3.5966 -3.7760
v  -0.4495 3.6185 -3.7883
v  -0.4571 3.6105 -3.8037
v  -0.2737 3.5809 -3.8635
v  -0.2727 3.5492 -3.8559
v  -0.2710 3.5414 -3.8389
v  -0.2700 3.5633 -3.8251
v  -0.2704 3.5985 -3.8251
v  -0.2719 3.6204 -3.8389
v  -0.2734 3.6126 -3.8559
v  -0.0808 3.5830 -3.8457
v  -0.0825 3.5513 -3.8383
v  -0.0871 3.5434 -3.8218
v  -0.0911 3.5653 -3.8086
v  -0.0915 3.6005 -3.8086
v  -0.0880 3.6225 -3.8218
v  -0.0832 3.6147 -3.8383
v  0.0927 3.5850 -3.7593
v  0.0885 3.5532 -3.7532
v  0.0782 3.5453 -3.7395
v  0.0697 3.5671 -3.7285
v  0.0693 3.6023 -3.7285
v  0.0773 3.6243 -3.7395
v  0.0878 3.6166 -3.7532
v  0.2233 3.5864 -3.6160
v  0.2171 3.5546 -3.6120
v  0.2026 3.5466 -3.6030
v  0.1907 3.5685 -3.5957
v  0.1903 3.6037 -3.5957
v  0.2018 3.6257 -3.6030
v  0.2164 3.6181 -3.6120
v  0.2933 3.5872 -3.4353
v  0.2861 3.5554 -3.4339
v  0.2693 3.5474 -3.4308
v  0.2556 3.5692 -3.4282
v  0.2552 3.6044 -3.4282
v  0.2685 3.6265 -3.4308
v  0.2854 3.6188 -3.4339
v  0.2933 3.5872 -3.2415
v  0.2861 3.5554 -3.2429
v  0.2693 3.5474 -3.2461
v  0.2556 3.5692 -3.2486
v  0.2552 3.6044 -3.2486
v  0.2685 3.6265 -3.2461
v  0.2854 3.6188 -3.2429
v  0.2233 3.5864 -3.0608
v  0.2171 3.5546 -3.0648
v  0.2026 3.5466 -3.0739
v  0.1907 3.5685 -3.0811
v  0.1903 3.6037 -3.0811
v  0.2018 3.6257 -3.0739
v  0.2164 3.6181 -3.0648
v  0.0927 3.5850 -2.9176
v  0.0885 3.5532 -2.9237
v  0.0782 3.5453 -2.9374
v  0.0697 3.5671 -2.9483
v  0.0693 3.6023 -2.9483
v  0.0773 3.6243 -2.9374
v  0.0878 3.6166 -2.9237
v  -0.0808 3.5830 -2.8312
v  -0.0825 3.5513 -2.8385
v  -0.0871 3.5434 -2.8550
v  -0.0911 3.5653 -2.8683
v  -0.0915 3.6005 -2.8683
v  -0.0880 3.6225 -2.8550
v  -0.0832 3.6147 -2.8385
v  -0.2737 3.5809 -2.8133
v  -0.2727 3.5492 -2.8209
v  -0.2710 3.5414 -2.8380
v  -0.2700 3.5633 -2.8517
v  -0.2704 3.5985 -2.8517
v  -0.2719 3.6204 -2.8380
v  -0.2734 3.6126 -2.8209
v  -0.4601 3.5788 -2.8663
v  -0.4564 3.5471 -2.8732
v  -0.4486 3.5394 -2.8885
v  -0.4427 3.5614 -2.9009
v  -0.4431 3.5966 -2.9009
v  -0.4495 3.6185 -2.8885
v  -0.4571 3.6105 -2.8732
v  -0.6148 3.5771 -2.9831
v  -0.6088 3.5454 -2.9883
v  -0.5960 3.5377 -2.9998
v  -0.5861 3.5598 -3.0091
v  -0.5865 3.5950 -3.0091
v  -0.5969 3.6168 -2.9998
v  -0.6095 3.6088 -2.9883
v  -0.7168 3.5759 -3.1479
v  -0.7093 3.5443 -3.1507
v  -0.6932 3.5366 -3.1569
v  -0.6807 3.5587 -3.1618
v  -0.6810 3.5939 -3.1618
v  -0.6941 3.6157 -3.1569
v  -0.7100 3.6077 -3.1507
v  -0.7556 3.8639 -3.3384
v  -0.7200 3.8643 -3.5289
v  -0.7125 3.8327 -3.5262
v  -0.7476 3.8323 -3.3384
v  -0.6965 3.8250 -3.5200
v  -0.7304 3.8246 -3.3384
v  -0.6839 3.8471 -3.5150
v  -0.7169 3.8467 -3.3384
v  -0.6843 3.8823 -3.5150
v  -0.7173 3.8819 -3.3384
v  -0.6973 3.9041 -3.5200
v  -0.7313 3.9037 -3.3384
v  -0.7133 3.8961 -3.5262
v  -0.7483 3.8957 -3.3384
v  -0.6180 3.8654 -3.6937
v  -0.6120 3.8338 -3.6886
v  -0.5992 3.8261 -3.6770
v  -0.5893 3.8482 -3.6677
v  -0.5897 3.8834 -3.6677
v  -0.6001 3.9052 -3.6770
v  -0.6127 3.8972 -3.6886
v  -0.4633 3.8672 -3.8105
v  -0.4596 3.8355 -3.8037
v  -0.4519 3.8278 -3.7883
v  -0.4460 3.8498 -3.7760
v  -0.4464 3.8850 -3.7760
v  -0.4527 3.9068 -3.7883
v  -0.4603 3.8989 -3.8037
v  -0.2769 3.8693 -3.8635
v  -0.2759 3.8375 -3.8559
v  -0.2742 3.8297 -3.8389
v  -0.2732 3.8517 -3.8251
v  -0.2736 3.8869 -3.8251
v  -0.2751 3.9088 -3.8389
v  -0.2766 3.9010 -3.8559
v  -0.0840 3.8714 -3.8457
v  -0.0857 3.8397 -3.8383
v  -0.0903 3.8318 -3.8218
v  -0.0943 3.8537 -3.8086
v  -0.0947 3.8889 -3.8086
v  -0.0912 3.9109 -3.8218
v  -0.0864 3.9031 -3.8383
v  0.0895 3.8733 -3.7593
v  0.0853 3.8416 -3.7532
v  0.0750 3.8336 -3.7395
v  0.0665 3.8555 -3.7285
v  0.0661 3.8907 -3.7285
v  0.0741 3.9127 -3.7395
v  0.0845 3.9050 -3.7532
v  0.2201 3.8748 -3.6160
v  0.2139 3.8430 -3.6120
v  0.1994 3.8350 -3.6030
v  0.1875 3.8568 -3.5957
v  0.1871 3.8920 -3.5957
v  0.1985 3.9141 -3.6030
v  0.2132 3.9064 -3.6120
v  0.2901 3.8756 -3.4353
v  0.2829 3.8438 -3.4339
v  0.2661 3.8358 -3.4308
v  0.2524 3.8576 -3.4282
v  0.2520 3.8928 -3.4282
v  0.2653 3.9149 -3.4308
v  0.2822 3.9072 -3.4339
v  0.2901 3.8756 -3.2415
v  0.2829 3.8438 -3.2429
v  0.2661 3.8358 -3.2461
v  0.2524 3.8576 -3.2486
v  0.2520 3.8928 -3.2486
v  0.2653 3.9149 -3.2461
v  0.2822 3.9072 -3.2429
v  0.2201 3.8748 -3.0608
v  0.2139 3.8430 -3.0648
v  0.1994 3.8350 -3.0739
v  0.1875 3.8568 -3.0811
v  0.1871 3.8920 -3.0811
v  0.1985 3.9141 -3.0739
v  0.2132 3.9064 -3.0648
v  0.0895 3.8733 -2.9176
v  0.0853 3.8416 -2.9237
v  0.0750 3.8336 -2.9374
v  0.0665 3.8555 -2.9483
v  0.0661 3.8907 -2.9483
v  0.0741 3.9127 -2.9374
v  0.0845 3.9050 -2.9237
v  -0.0840 3.8714 -2.8312
v  -0.0857 3.8397 -2.8385
v  -0.0903 3.8318 -2.8550
v  -0.0943 3.8537 -2.8683
v  -0.0947 3.8889 -2.8683
v  -0.0912 3.9109 -2.8550
v  -0.0864 3.9031 -2.8385
v  -0.2769 3.8693 -2.8133
v  -0.2759 3.8375 -2.8209
v  -0.2742 3.8297 -2.8380
v  -0.2732 3.8517 -2.8517
v  -0.2736 3.8869 -2.8517
v  -0.2751 3.9088 -2.8380
v  -0.2766 3.9010 -2.8209
v  -0.4633 3.8672 -2.8663
v  -0.4596 3.8355 -2.8732
v  -0.4519 3.8278 -2.8885
v  -0.4460 3.8498 -2.9009
v  -0.4464 3.8850 -2.9009
v  -0.4527 3.9068 -2.8885
v  -0.4603 3.8989 -2.8732
v  -0.6180 3.8654 -2.9831
v  -0.6120 3.8338 -2.9883
v  -0.5992 3.8261 -2.9998
v  -0.5893 3.8482 -3.0091
v  -0.5897 3.8834 -3.0091
v  -0.6001 3.9052 -2.9998
v  -0.6127 3.8972 -2.9883
v  -0.7200 3.8643 -3.1479
v  -0.7125 3.8327 -3.1507
v  -0.6965 3.8250 -3.1569
v  -0.6839 3.8471 -3.1618
v  -0.6843 3.8823 -3.1618
v  -0.6973 3.9041 -3.1569
v  -0.7133 3.8961 -3.1507
v  -0.7583 4.1011 -3.3384
v  -0.7227 4.1015 -3.5289
v  -0.7152 4.0699 -3.5262
v  -0.7503 4.0695 -3.3384
v  -0.6991 4.0622 -3.5200
v  -0.7330 4.0619 -3.3384
v  -0.6865 4.0843 -3.5150
v  -0.7195 4.0840 -3.3384
v  -0.6869 4.1195 -3.5150
v  -0.7199 4.1192 -3.3384
v  -0.7000 4.1413 -3.5200
v  -0.7339 4.1409 -3.3384
v  -0.7159 4.1333 -3.5262
v  -0.7510 4.1329 -3.3384
v  -0.6206 4.1027 -3.6937
v  -0.6146 4.0710 -3.6886
v  -0.6019 4.0633 -3.6770
v  -0.5920 4.0854 -3.6677
v  -0.5924 4.1206 -3.6677
v  -0.6028 4.1424 -3.6770
v  -0.6154 4.1344 -3.6886
v  -0.4660 4.1044 -3.8105
v  -0.4622 4.0727 -3.8037
v  -0.4545 4.0650 -3.7883
v  -0.4486 4.0870 -3.7760
v  -0.4490 4.1222 -3.7760
v  -0.4554 4.1441 -3.7883
v  -0.4629 4.1361 -3.8037
v  -0.2796 4.1065 -3.8635
v  -0.2785 4.0748 -3.8559
v  -0.2769 4.0669 -3.8389
v  -0.2758 4.0889 -3.8251
v  -0.2762 4.1241 -3.8251
v  -0.2778 4.1460 -3.8389
v  -0.2792 4.1382 -3.8559
v  -0.0866 4.1086 -3.8457
v  -0.0884 4.0769 -3.8383
v  -0.0930 4.0690 -3.8218
v  -0.0970 4.0909 -3.8086
v  -0.0974 4.1261 -3.8086
v  -0.0939 4.1481 -3.8218
v  -0.0891 4.1403 -3.8383
v  0.0869 4.1106 -3.7593
v  0.0826 4.0788 -3.7532
v  0.0723 4.0708 -3.7395
v  0.0638 4.0927 -3.7285
v  0.0634 4.1279 -3.7285
v  0.0715 4.1499 -3.7395
v  0.0819 4.1422 -3.7532
v  0.2174 4.1120 -3.6160
v  0.2113 4.0802 -3.6120
v  0.1968 4.0722 -3.6030
v  0.1848 4.0941 -3.5957
v  0.1844 4.1293 -3.5957
v  0.1959 4.1513 -3.6030
v  0.2106 4.1437 -3.6120
v  0.2874 4.1128 -3.4353
v  0.2803 4.0810 -3.4339
v  0.2635 4.0730 -3.4308
v  0.2497 4.0948 -3.4282
v  0.2493 4.1300 -3.4282
v  0.2626 4.1521 -3.4308
v  0.2796 4.1444 -3.4339
v  0.2874 4.1128 -3.2415
v  0.2803 4.0810 -3.2429
v  0.2635 4.0730 -3.2461
v  0.2497 4.0948 -3.2486
v  0.2493 4.1300 -3.2486
v  0.2626 4.1521 -3.2461
v  0.2796 4.1444 -3.2429
v  0.2174 4.1120 -3.0608
v  0.2113 4.0802 -3.0648
v  0.1968 4.0722 -3.0739
v  0.1848 4.0941 -3.0811
v  0.1844 4.1293 -3.0811
v  0.1959 4.1513 -3.0739
v  0.2106 4.1437 -3.0648
v  0.0869 4.1106 -2.9176
v  0.0826 4.0788 -2.9237
v  0.0724 4.0708 -2.9374
v  0.0638 4.0927 -2.9483
v  0.0634 4.1279 -2.9483
v  0.0715 4.1499 -2.9374
v  0.0819 4.1422 -2.9237
v  -0.0866 4.1086 -2.8312
v  -0.0884 4.0769 -2.8385
v  -0.0930 4.0690 -2.8550
v  -0.0970 4.0909 -2.8683
v  -0.0974 4.1261 -2.8683
v  -0.0939 4.1481 -2.8550
v  -0.0891 4.1403 -2.8385
v  -0.2796 4.1065 -2.8133
v  -0.2785 4.0748 -2.8209
v  -0.2769 4.0669 -2.8380
v  -0.2758 4.0889 -2.8517
v  -0.2762 4.1241 -2.8517
v  -0.2778 4.1460 -2.8380
v  -0.2792 4.1382 -2.8209
v  -0.4660 4.1044 -2.8663
v  -0.4622 4.0727 -2.8732
v  -0.4545 4.0650 -2.8885
v  -0.4486 4.0870 -2.9009
v  -0.4490 4.1222 -2.9009
v  -0.4554 4.1441 -2.8885
v  -0.4629 4.1361 -2.8732
v  -0.6206 4.1027 -2.9831
v  -0.6146 4.0710 -2.9883
v  -0.6019 4.0633 -2.9998
v  -0.5920 4.0854 -3.0091
v  -0.5924 4.1206 -3.0091
v  -0.6028 4.1424 -2.9998
v  -0.6154 4.1344 -2.9883
v  -0.7227 4.1015 -3.1479
v  -0.7152 4.0699 -3.1507
v  -0.6991 4.0622 -3.1569
v  -0.6865 4.0843 -3.1618
v  -0.6869 4.1195 -3.1618
v  -0.7000 4.1413 -3.1569
v  -0.7159 4.1333 -3.1507
# 357 vertices

vn -0.9539 -0.2410 -0.1788
vn -0.4039 -0.9115 -0.0774
vn 0.8426 -0.5153 0.1564
vn 0.9829 0.0110 0.1837
vn 0.8309 0.5340 0.1564
vn -0.4241 0.9023 -0.0774
vn -0.9591 0.2196 -0.1788
vn -0.8247 -0.2395 -0.5123
vn -0.3480 -0.9109 -0.2217
vn 0.7296 -0.5166 0.4482
vn 0.8502 0.0095 0.5264
vn 0.7179 0.5327 0.4482
vn -0.3682 0.9029 -0.2217
vn -0.8299 0.2211 -0.5123
vn -0.5838 -0.2369 -0.7766
vn -0.2437 -0.9097 -0.3361
vn 0.5189 -0.5189 0.6794
vn 0.6026 0.0067 0.7980
vn 0.5071 0.5304 0.6794
vn -0.2639 0.9041 -0.3361
vn -0.5890 0.2238 -0.7766
vn -0.2637 -0.2333 -0.9360
vn -0.1051 -0.9082 -0.4051
vn 0.2388 -0.5220 0.8188
vn 0.2736 0.0031 0.9618
vn 0.2271 0.5272 0.8188
vn -0.1254 0.9056 -0.4051
vn -0.2689 0.2273 -0.9360
vn 0.0924 -0.2293 -0.9690
vn 0.0490 -0.9065 -0.4194
vn -0.0727 -0.5255 0.8477
vn -0.0923 -0.0010 0.9957
vn -0.0844 0.5238 0.8477
vn 0.0287 0.9073 -0.4194
vn 0.0872 0.2313 -0.9690
vn 0.4363 -0.2255 -0.8711
vn 0.1979 -0.9048 -0.3770
vn -0.3736 -0.5289 0.7621
vn -0.4457 -0.0050 0.8952
vn -0.3853 0.5204 0.7621
vn 0.1776 0.9090 -0.3770
vn 0.4312 0.2352 -0.8711
vn 0.7217 -0.2223 -0.6556
vn 0.3214 -0.9034 -0.2838
vn -0.6232 -0.5317 0.5735
vn -0.7390 -0.0082 0.6737
vn -0.6349 0.5176 0.5735
vn 0.3011 0.9104 -0.2838
vn 0.7165 0.2383 -0.6556
vn 0.9099 -0.2202 -0.3515
vn 0.4028 -0.9025 -0.1522
vn -0.7879 -0.5335 0.3075
vn -0.9324 -0.0104 0.3612
vn -0.7996 0.5158 0.3075
vn 0.3826 0.9113 -0.1522
vn 0.9048 0.2404 -0.3515
vn 0.9756 -0.2194 -0.0000
vn 0.4313 -0.9022 -0.0000
vn -0.8454 -0.5341 -0.0000
vn -0.9999 -0.0112 -0.0000
vn -0.8571 0.5151 -0.0000
vn 0.4110 0.9116 -0.0000
vn 0.9705 0.2412 -0.0000
vn 0.9099 -0.2202 0.3515
vn 0.4028 -0.9025 0.1522
vn -0.7879 -0.5335 -0.3075
vn -0.9324 -0.0104 -0.3612
vn -0.7996 0.5158 -0.3075
vn 0.3826 0.9113 0.1522
vn 0.9048 0.2404 0.3515
vn 0.7217 -0.2223 0.6556
vn 0.3214 -0.9034 0.2838
vn -0.6232 -0.5317 -0.5735
vn -0.7390 -0.0082 -0.6737
vn -0.6349 0.5176 -0.5735
vn 0.3011 0.9104 0.2838
vn 0.7165 0.2383 0.6556
vn 0.4363 -0.2255 0.8711
vn 0.1979 -0.9048 0.3770
vn -0.3736 -0.5289 -0.7621
vn -0.4457 -0.0050 -0.8952
vn -0.3853 0.5204 -0.7621
vn 0.1776 0.9090 0.3770
vn 0.4312 0.2351 0.8711
vn 0.0924 -0.2293 0.9690
vn 0.0490 -0.9065 0.4194
vn -0.0727 -0.5255 -0.8477
vn -0.0923 -0.0010 -0.9957
vn -0.0844 0.5238 -0.8477
vn 0.0287 0.9073 0.4194
vn 0.0872 0.2313 0.9690
vn -0.2637 -0.2333 0.9360
vn -0.1051 -0.9082 0.4051
vn 0.2388 -0.5220 -0.8188
vn 0.2736 0.0031 -0.9618
vn 0.2271 0.5272 -0.8188
vn -0.1254 0.9056 0.4051
vn -0.2689 0.2273 0.9360
vn -0.5838 -0.2369 0.7766
vn -0.2437 -0.9097 0.3361
vn 0.5189 -0.5189 -0.6794
vn 0.6026 0.0067 -0.7980
vn 0.5071 0.5304 -0.6794
vn -0.2639 0.9041 0.3361
vn -0.5890 0.2238 0.7766
vn -0.8247 -0.2395 0.5123
vn -0.3480 -0.9109 0.2217
vn 0.7296 -0.5166 -0.4482
vn 0.8502 0.0095 -0.5264
vn 0.7179 0.5327 -0.4482
vn -0.3682 0.9029 0.2217
vn -0.8299 0.2211 0.5123
vn -0.9539 -0.2410 0.1788
vn -0.4039 -0.9115 0.0774
vn 0.8426 -0.5153 -0.1564
vn 0.9829 0.0110 -0.1837
vn 0.8309 0.5340 -0.1564
vn -0.4241 0.9023 0.0774
vn -0.9591 0.2196 0.1788
# 119 vertex normals

vt 0.9916 0.1467 0.0000
vt 0.9916 0.2460 0.0000
vt 0.9832 0.2460 0.0000
vt 0.9832 0.1482 0.0000
vt 0.6269 0.5064 0.0000
vt 0.5553 0.4435 0.0000
vt 0.5603 0.4379 0.0000
vt 0.6296 0.4987 0.0000
vt 0.5678 0.4329 0.0000
vt 0.6351 0.4920 0.0000
vt 0.0361 0.3509 0.0000
vt 0.0805 0.4322 0.0000
vt 0.0762 0.4329 0.0000
vt 0.0318 0.3516 0.0000
vt 0.0687 0.4379 0.0000
vt 0.0230 0.3544 0.0000
vt 0.0637 0.4435 0.0000
vt 0.0165 0.3571 0.0000
vt 1.0000 0.1482 0.0000
vt 1.0000 0.2460 0.0000
vt 0.9916 0.3453 0.0000
vt 0.9832 0.3438 0.0000
vt 0.5081 0.3571 0.0000
vt 0.5146 0.3544 0.0000
vt 0.5234 0.3516 0.0000
vt 0.5277 0.3509 0.0000
vt 0.5721 0.4322 0.0000
vt 0.1435 0.4920 0.0000
vt 0.1380 0.4987 0.0000
vt 0.1353 0.5064 0.0000
vt 1.0000 0.3438 0.0000
vt 0.9916 0.4311 0.0000
vt 0.9832 0.4285 0.0000
vt 0.4916 0.2589 0.0000
vt 0.4987 0.2594 0.0000
vt 0.5079 0.2592 0.0000
vt 0.1515 0.5374 0.0000
vt 0.1191 0.5944 0.0000
vt 0.1107 0.5945 0.0000
vt 0.1431 0.5375 0.0000
vt 0.2247 0.5211 0.0000
vt 0.2214 0.5287 0.0000
vt 0.2216 0.5374 0.0000
vt 1.0000 0.4285 0.0000
vt 0.2040 0.9760 0.0000
vt 0.1736 0.9013 0.0000
vt 0.1826 0.8992 0.0000
vt 0.2126 0.9728 0.0000
vt 0.5081 0.1621 0.0000
vt 0.5146 0.1658 0.0000
vt 0.5234 0.1683 0.0000
vt 0.0985 0.6743 0.0000
vt 0.0902 0.6745 0.0000
vt 0.0819 0.6720 0.0000
vt 0.1030 0.5898 0.0000
vt 0.3078 0.5236 0.0000
vt 0.3110 0.5322 0.0000
vt 1.0000 0.4884 0.0000
vt 0.9916 0.4920 0.0000
vt 0.1573 0.8072 0.0000
vt 0.1665 0.8064 0.0000
vt 0.5553 0.0799 0.0000
vt 0.5603 0.0863 0.0000
vt 0.5678 0.0909 0.0000
vt 0.0925 0.7665 0.0000
vt 0.0842 0.7666 0.0000
vt 0.0757 0.7668 0.0000
vt 0.3855 0.4843 0.0000
vt 0.3913 0.4915 0.0000
vt 0.1675 0.8992 0.0000
vt 0.1515 0.8064 0.0000
vt 0.1573 0.7062 0.0000
vt 0.1665 0.7069 0.0000
vt 0.6269 0.0233 0.0000
vt 0.6296 0.0316 0.0000
vt 0.6351 0.0377 0.0000
vt 0.1019 0.8583 0.0000
vt 0.0935 0.8585 0.0000
vt 0.0854 0.8612 0.0000
vt 0.4440 0.4161 0.0000
vt 0.4518 0.4209 0.0000
vt 0.4587 0.4225 0.0000
vt 0.3974 0.4941 0.0000
vt 0.1736 0.6120 0.0000
vt 0.1826 0.6141 0.0000
vt 0.7132 0.0000 0.0000
vt 0.7130 0.0091 0.0000
vt 0.7163 0.0158 0.0000
vt 0.1254 0.9375 0.0000
vt 0.1170 0.9377 0.0000
vt 0.1095 0.9426 0.0000
vt 0.4753 0.3280 0.0000
vt 0.4842 0.3299 0.0000
vt 0.4916 0.3301 0.0000
vt 0.2040 0.5374 0.0000
vt 0.2126 0.5405 0.0000
vt 0.8026 0.0131 0.0000
vt 0.7994 0.0217 0.0000
vt 0.8003 0.0281 0.0000
vt 0.2889 0.5374 0.0000
vt 0.2889 0.6065 0.0000
vt 0.2796 0.6065 0.0000
vt 0.2796 0.5374 0.0000
vt 0.1515 0.9935 0.0000
vt 0.1449 1.0000 0.0000
vt 0.4753 0.2321 0.0000
vt 0.4842 0.2307 0.0000
vt 0.4916 0.2295 0.0000
vt 0.8075 0.0087 0.0000
vt 0.8890 0.0571 0.0000
vt 0.8829 0.0608 0.0000
vt 0.8771 0.0679 0.0000
vt 0.2947 0.6028 0.0000
vt 0.2947 0.6925 0.0000
vt 0.2889 0.6938 0.0000
vt 0.2796 0.6938 0.0000
vt 0.2738 0.6925 0.0000
vt 0.2738 0.6028 0.0000
vt 0.4440 0.1413 0.0000
vt 0.4518 0.1368 0.0000
vt 0.4587 0.1342 0.0000
vt 0.9503 0.1342 0.0000
vt 0.9434 0.1368 0.0000
vt 0.9356 0.1413 0.0000
vt 0.2947 0.7887 0.0000
vt 0.2889 0.7874 0.0000
vt 0.2796 0.7874 0.0000
vt 0.2738 0.7887 0.0000
vt 0.3855 0.0679 0.0000
vt 0.3913 0.0608 0.0000
vt 0.3974 0.0571 0.0000
vt 0.9832 0.2295 0.0000
vt 0.9758 0.2307 0.0000
vt 0.9669 0.2321 0.0000
vt 0.2947 0.8785 0.0000
vt 0.2889 0.8747 0.0000
vt 0.2796 0.8747 0.0000
vt 0.2738 0.8785 0.0000
vt 0.3078 0.0217 0.0000
vt 0.3110 0.0131 0.0000
vt 0.3159 0.0087 0.0000
vt 0.9832 0.3301 0.0000
vt 0.9758 0.3299 0.0000
vt 0.9669 0.3280 0.0000
vt 0.0692 1.0000 0.0000
vt 0.0338 0.9426 0.0000
vt 0.0413 0.9377 0.0000
vt 0.0757 0.9935 0.0000
vt 0.2889 0.9439 0.0000
vt 0.2796 0.9439 0.0000
vt 0.3087 0.0281 0.0000
vt 0.2247 0.0158 0.0000
vt 0.2214 0.0091 0.0000
vt 0.2216 0.0000 0.0000
vt 0.2738 0.5405 0.0000
vt 0.2438 0.6141 0.0000
vt 0.2347 0.6120 0.0000
vt 0.2651 0.5374 0.0000
vt 0.9503 0.4225 0.0000
vt 0.9434 0.4209 0.0000
vt 0.9356 0.4161 0.0000
vt 0.0096 0.8612 0.0000
vt 0.0178 0.8585 0.0000
vt 0.0262 0.8583 0.0000
vt 0.0497 0.9375 0.0000
vt 0.1435 0.0377 0.0000
vt 0.1380 0.0316 0.0000
vt 0.1353 0.0233 0.0000
vt 0.2277 0.7069 0.0000
vt 0.2184 0.7062 0.0000
vt 0.8890 0.4941 0.0000
vt 0.8829 0.4915 0.0000
vt 0.8771 0.4843 0.0000
vt 0.0000 0.7668 0.0000
vt 0.0084 0.7666 0.0000
vt 0.0168 0.7665 0.0000
vt 0.0762 0.0909 0.0000
vt 0.0687 0.0863 0.0000
vt 0.0637 0.0799 0.0000
vt 0.2277 0.8064 0.0000
vt 0.2184 0.8072 0.0000
vt 0.2347 0.9013 0.0000
vt 0.2287 0.8992 0.0000
vt 0.2126 0.8064 0.0000
vt 0.8026 0.5322 0.0000
vt 0.7994 0.5236 0.0000
vt 0.0062 0.6720 0.0000
vt 0.0144 0.6745 0.0000
vt 0.0228 0.6743 0.0000
vt 0.0318 0.1683 0.0000
vt 0.0230 0.1658 0.0000
vt 0.0165 0.1621 0.0000
vt 0.2438 0.8992 0.0000
vt 0.9916 0.0000 0.0000
vt 0.9916 0.0609 0.0000
vt 0.9832 0.0635 0.0000
vt 0.9832 0.0036 0.0000
vt 0.7132 0.5374 0.0000
vt 0.7130 0.5287 0.0000
vt 0.0273 0.5898 0.0000
vt 0.0350 0.5945 0.0000
vt 0.0434 0.5944 0.0000
vt 0.0163 0.2592 0.0000
vt 0.0071 0.2594 0.0000
vt 0.0000 0.2589 0.0000
vt 0.2738 0.9728 0.0000
vt 0.2651 0.9760 0.0000
vt 0.7163 0.5211 0.0000
vt 0.0674 0.5375 0.0000
vt 0.0757 0.5374 0.0000
vt 1.0000 0.0635 0.0000
# 211 texture coords

o Soportes
g Soportes
usemtl 03___Default
s off
f 290/516/193 291/517/193 292/518/193 
f 292/518/193 293/519/193 290/516/193 
f 293/520/194 292/521/194 294/522/194 
f 294/522/194 295/523/194 293/520/194 
f 295/523/195 294/522/195 296/524/195 
f 296/524/195 297/525/195 295/523/195 
f 297/526/196 296/527/196 298/528/196 
f 298/528/196 299/529/196 297/526/196 
f 299/529/197 298/528/197 300/530/197 
f 300/530/197 301/531/197 299/529/197 
f 301/531/198 300/530/198 302/532/198 
f 302/532/198 303/533/198 301/531/198 
f 290/516/199 303/534/199 302/535/199 
f 302/535/199 291/517/199 290/516/199 
f 291/517/200 304/536/200 305/537/200 
f 305/537/200 292/518/200 291/517/200 
f 292/521/201 305/538/201 306/539/201 
f 306/539/201 294/522/201 292/521/201 
f 294/522/202 306/539/202 307/540/202 
f 307/540/202 296/524/202 294/522/202 
f 296/524/203 307/540/203 308/541/203 
f 308/541/203 298/542/203 296/524/203 
f 298/528/204 308/543/204 309/544/204 
f 309/544/204 300/530/204 298/528/204 
f 300/530/205 309/544/205 310/545/205 
f 310/545/205 302/532/205 300/530/205 
f 302/535/206 310/546/206 304/536/206 
f 304/536/206 291/517/206 302/535/206 
f 304/536/207 311/547/207 312/548/207 
f 312/548/207 305/537/207 304/536/207 
f 305/538/208 312/549/208 313/550/208 
f 313/550/208 306/539/208 305/538/208 
f 306/539/209 313/550/209 314/551/209 
f 314/551/209 307/540/209 306/539/209 
f 307/552/210 314/553/210 315/554/210 
f 315/554/210 308/555/210 307/552/210 
f 308/543/211 315/556/211 316/557/211 
f 316/557/211 309/544/211 308/543/211 
f 309/544/212 316/557/212 317/558/212 
f 317/558/212 310/545/212 309/544/212 
f 310/546/213 317/559/213 311/547/213 
f 311/547/213 304/536/213 310/546/213 
f 311/560/214 318/561/214 319/562/214 
f 319/562/214 312/563/214 311/560/214 
f 312/549/215 319/564/215 320/565/215 
f 320/565/215 313/550/215 312/549/215 
f 313/550/216 320/565/216 321/566/216 
f 321/566/216 314/551/216 313/550/216 
f 314/553/217 321/567/217 322/568/217 
f 322/568/217 315/554/217 314/553/217 
f 315/554/218 322/568/218 323/569/218 
f 323/569/218 316/570/218 315/554/218 
f 316/557/219 323/571/219 324/572/219 
f 324/572/219 317/558/219 316/557/219 
f 317/559/220 324/573/220 318/574/220 
f 318/574/220 311/547/220 317/559/220 
f 318/561/221 325/575/221 326/576/221 
f 326/576/221 319/562/221 318/561/221 
f 319/564/222 326/577/222 327/578/222 
f 327/578/222 320/565/222 319/564/222 
f 320/565/223 327/578/223 328/579/223 
f 328/579/223 321/566/223 320/565/223 
f 321/567/224 328/580/224 329/581/224 
f 329/581/224 322/568/224 321/567/224 
f 322/568/225 329/581/225 330/582/225 
f 330/582/225 323/569/225 322/568/225 
f 323/571/226 330/583/226 331/584/226 
f 331/584/226 324/572/226 323/571/226 
f 324/585/227 331/586/227 325/575/227 
f 325/575/227 318/561/227 324/585/227 
f 325/575/228 332/587/228 333/588/228 
f 333/588/228 326/576/228 325/575/228 
f 326/577/229 333/589/229 334/590/229 
f 334/590/229 327/578/229 326/577/229 
f 327/578/230 334/590/230 335/591/230 
f 335/591/230 328/579/230 327/578/230 
f 328/580/231 335/592/231 336/593/231 
f 336/593/231 329/581/231 328/580/231 
f 329/581/232 336/593/232 337/594/232 
f 337/594/232 330/582/232 329/581/232 
f 330/583/233 337/595/233 338/596/233 
f 338/596/233 331/584/233 330/583/233 
f 331/584/234 338/596/234 332/597/234 
f 332/597/234 325/598/234 331/584/234 
f 332/587/235 339/599/235 340/600/235 
f 340/600/235 333/588/235 332/587/235 
f 333/589/236 340/601/236 341/602/236 
f 341/602/236 334/590/236 333/589/236 
f 334/590/237 341/602/237 342/603/237 
f 342/603/237 335/591/237 334/590/237 
f 335/592/238 342/604/238 343/605/238 
f 343/605/238 336/593/238 335/592/238 
f 336/593/239 343/605/239 344/606/239 
f 344/606/239 337/594/239 336/593/239 
f 337/595/240 344/607/240 345/608/240 
f 345/608/240 338/596/240 337/595/240 
f 338/596/241 345/608/241 339/609/241 
f 339/609/241 332/597/241 338/596/241 
f 339/599/242 346/610/242 347/611/242 
f 347/611/242 340/600/242 339/599/242 
f 340/601/243 347/612/243 348/613/243 
f 348/613/243 341/602/243 340/601/243 
f 341/602/244 348/613/244 349/614/244 
f 349/614/244 342/603/244 341/602/244 
f 342/615/245 349/616/245 350/617/245 
f 350/617/245 343/618/245 342/615/245 
f 343/605/246 350/619/246 351/620/246 
f 351/620/246 344/606/246 343/605/246 
f 344/607/247 351/621/247 352/622/247 
f 352/622/247 345/608/247 344/607/247 
f 345/608/248 352/622/248 346/623/248 
f 346/623/248 339/609/248 345/608/248 
f 346/624/249 353/625/249 354/626/249 
f 354/626/249 347/612/249 346/624/249 
f 347/612/250 354/626/250 355/627/250 
f 355/627/250 348/613/250 347/612/250 
f 348/628/251 355/629/251 356/630/251 
f 356/630/251 349/616/251 348/628/251 
f 349/616/252 356/630/252 357/631/252 
f 357/631/252 350/617/252 349/616/252 
f 350/617/253 357/631/253 358/632/253 
f 358/632/253 351/633/253 350/617/253 
f 351/621/254 358/634/254 359/635/254 
f 359/635/254 352/622/254 351/621/254 
f 352/622/255 359/635/255 353/636/255 
f 353/636/255 346/623/255 352/622/255 
f 353/625/256 360/637/256 361/638/256 
f 361/638/256 354/626/256 353/625/256 
f 354/626/257 361/638/257 362/639/257 
f 362/639/257 355/627/257 354/626/257 
f 355/629/258 362/640/258 363/641/258 
f 363/641/258 356/630/258 355/629/258 
f 356/630/259 363/641/259 364/642/259 
f 364/642/259 357/631/259 356/630/259 
f 357/631/260 364/642/260 365/643/260 
f 365/643/260 358/632/260 357/631/260 
f 358/634/261 365/644/261 366/645/261 
f 366/645/261 359/635/261 358/634/261 
f 359/635/262 366/645/262 360/646/262 
f 360/646/262 353/636/262 359/635/262 
f 360/637/263 367/647/263 368/648/263 
f 368/648/263 361/638/263 360/637/263 
f 361/638/264 368/648/264 369/649/264 
f 369/649/264 362/639/264 361/638/264 
f 362/640/265 369/650/265 370/651/265 
f 370/651/265 363/641/265 362/640/265 
f 363/641/266 370/651/266 371/652/266 
f 371/652/266 364/642/266 363/641/266 
f 364/642/267 371/652/267 372/653/267 
f 372/653/267 365/643/267 364/642/267 
f 365/644/268 372/654/268 373/655/268 
f 373/655/268 366/645/268 365/644/268 
f 366/645/269 373/655/269 367/656/269 
f 367/656/269 360/646/269 366/645/269 
f 367/647/270 374/657/270 375/658/270 
f 375/658/270 368/648/270 367/647/270 
f 368/648/271 375/658/271 376/659/271 
f 376/659/271 369/649/271 368/648/271 
f 369/660/272 376/661/272 377/662/272 
f 377/662/272 370/663/272 369/660/272 
f 370/651/273 377/664/273 378/665/273 
f 378/665/273 371/652/273 370/651/273 
f 371/666/274 378/667/274 379/668/274 
f 379/668/274 372/654/274 371/666/274 
f 372/654/275 379/668/275 380/669/275 
f 380/669/275 373/655/275 372/654/275 
f 373/670/276 380/671/276 374/672/276 
f 374/672/276 367/673/276 373/670/276 
f 374/657/277 381/674/277 382/675/277 
f 382/675/277 375/658/277 374/657/277 
f 375/658/278 382/675/278 383/676/278 
f 383/676/278 376/659/278 375/658/278 
f 376/661/279 383/677/279 384/678/279 
f 384/678/279 377/662/279 376/661/279 
f 377/662/280 384/678/280 385/679/280 
f 385/679/280 378/680/280 377/662/280 
f 378/667/281 385/681/281 386/682/281 
f 386/682/281 379/668/281 378/667/281 
f 379/668/282 386/682/282 387/683/282 
f 387/683/282 380/669/282 379/668/282 
f 380/671/283 387/684/283 381/685/283 
f 381/685/283 374/672/283 380/671/283 
f 381/674/284 388/686/284 389/687/284 
f 389/687/284 382/675/284 381/674/284 
f 382/675/285 389/687/285 390/688/285 
f 390/688/285 383/676/285 382/675/285 
f 383/677/286 390/689/286 391/690/286 
f 391/690/286 384/678/286 383/677/286 
f 384/678/287 391/690/287 392/691/287 
f 392/691/287 385/679/287 384/678/287 
f 385/681/288 392/692/288 393/693/288 
f 393/693/288 386/682/288 385/681/288 
f 386/682/289 393/693/289 394/694/289 
f 394/694/289 387/683/289 386/682/289 
f 387/684/290 394/695/290 388/696/290 
f 388/696/290 381/685/290 387/684/290 
f 388/696/291 395/697/291 396/698/291 
f 396/698/291 389/699/291 388/696/291 
f 389/687/292 396/700/292 397/701/292 
f 397/701/292 390/688/292 389/687/292 
f 390/689/293 397/702/293 398/703/293 
f 398/703/293 391/690/293 390/689/293 
f 391/690/294 398/703/294 399/704/294 
f 399/704/294 392/691/294 391/690/294 
f 392/692/295 399/705/295 400/706/295 
f 400/706/295 393/693/295 392/692/295 
f 393/693/296 400/706/296 401/707/296 
f 401/707/296 394/694/296 393/693/296 
f 394/695/297 401/708/297 395/697/297 
f 395/697/297 388/696/297 394/695/297 
f 395/709/298 402/710/298 403/711/298 
f 403/711/298 396/712/298 395/709/298 
f 396/700/299 403/713/299 404/714/299 
f 404/714/299 397/701/299 396/700/299 
f 397/702/300 404/715/300 405/716/300 
f 405/716/300 398/703/300 397/702/300 
f 398/703/301 405/716/301 406/717/301 
f 406/717/301 399/704/301 398/703/301 
f 399/705/302 406/718/302 407/719/302 
f 407/719/302 400/706/302 399/705/302 
f 400/706/303 407/719/303 408/720/303 
f 408/720/303 401/707/303 400/706/303 
f 401/708/304 408/721/304 402/722/304 
f 402/722/304 395/697/304 401/708/304 
f 402/710/305 290/516/305 293/519/305 
f 293/519/305 403/711/305 402/710/305 
f 403/713/306 293/520/306 295/523/306 
f 295/523/306 404/714/306 403/713/306 
f 404/714/307 295/523/307 297/525/307 
f 297/525/307 405/723/307 404/714/307 
f 405/716/308 297/724/308 299/725/308 
f 299/725/308 406/717/308 405/716/308 
f 406/718/309 299/529/309 301/531/309 
f 301/531/309 407/719/309 406/718/309 
f 407/719/310 301/531/310 303/533/310 
f 303/533/310 408/720/310 407/719/310 
f 408/726/311 303/534/311 290/516/311 
f 290/516/311 402/710/311 408/726/311 
f 409/516/193 410/517/193 411/518/193 
f 411/518/193 412/519/193 409/516/193 
f 412/520/194 411/521/194 413/522/194 
f 413/522/194 414/523/194 412/520/194 
f 414/523/195 413/522/195 415/524/195 
f 415/524/195 416/525/195 414/523/195 
f 416/526/196 415/527/196 417/528/196 
f 417/528/196 418/529/196 416/526/196 
f 418/529/197 417/528/197 419/530/197 
f 419/530/197 420/531/197 418/529/197 
f 420/531/198 419/530/198 421/532/198 
f 421/532/198 422/533/198 420/531/198 
f 409/516/199 422/534/199 421/535/199 
f 421/535/199 410/517/199 409/516/199 
f 410/517/200 423/536/200 424/537/200 
f 424/537/200 411/518/200 410/517/200 
f 411/521/201 424/538/201 425/539/201 
f 425/539/201 413/522/201 411/521/201 
f 413/522/202 425/539/202 426/540/202 
f 426/540/202 415/524/202 413/522/202 
f 415/524/203 426/540/203 427/541/203 
f 427/541/203 417/542/203 415/524/203 
f 417/528/204 427/543/204 428/544/204 
f 428/544/204 419/530/204 417/528/204 
f 419/530/205 428/544/205 429/545/205 
f 429/545/205 421/532/205 419/530/205 
f 421/535/206 429/546/206 423/536/206 
f 423/536/206 410/517/206 421/535/206 
f 423/536/207 430/547/207 431/548/207 
f 431/548/207 424/537/207 423/536/207 
f 424/538/208 431/549/208 432/550/208 
f 432/550/208 425/539/208 424/538/208 
f 425/539/209 432/550/209 433/551/209 
f 433/551/209 426/540/209 425/539/209 
f 426/552/210 433/553/210 434/554/210 
f 434/554/210 427/555/210 426/552/210 
f 427/543/211 434/556/211 435/557/211 
f 435/557/211 428/544/211 427/543/211 
f 428/544/212 435/557/212 436/558/212 
f 436/558/212 429/545/212 428/544/212 
f 429/546/213 436/559/213 430/547/213 
f 430/547/213 423/536/213 429/546/213 
f 430/560/214 437/561/214 438/562/214 
f 438/562/214 431/563/214 430/560/214 
f 431/549/215 438/564/215 439/565/215 
f 439/565/215 432/550/215 431/549/215 
f 432/550/216 439/565/216 440/566/216 
f 440/566/216 433/551/216 432/550/216 
f 433/553/217 440/567/217 441/568/217 
f 441/568/217 434/554/217 433/553/217 
f 434/554/218 441/568/218 442/569/218 
f 442/569/218 435/570/218 434/554/218 
f 435/557/219 442/571/219 443/572/219 
f 443/572/219 436/558/219 435/557/219 
f 436/559/220 443/573/220 437/574/220 
f 437/574/220 430/547/220 436/559/220 
f 437/561/221 444/575/221 445/576/221 
f 445/576/221 438/562/221 437/561/221 
f 438/564/222 445/577/222 446/578/222 
f 446/578/222 439/565/222 438/564/222 
f 439/565/223 446/578/223 447/579/223 
f 447/579/223 440/566/223 439/565/223 
f 440/567/224 447/580/224 448/581/224 
f 448/581/224 441/568/224 440/567/224 
f 441/568/225 448/581/225 449/582/225 
f 449/582/225 442/569/225 441/568/225 
f 442/571/226 449/583/226 450/584/226 
f 450/584/226 443/572/226 442/571/226 
f 443/585/227 450/586/227 444/575/227 
f 444/575/227 437/561/227 443/585/227 
f 444/575/228 451/587/228 452/588/228 
f 452/588/228 445/576/228 444/575/228 
f 445/577/229 452/589/229 453/590/229 
f 453/590/229 446/578/229 445/577/229 
f 446/578/230 453/590/230 454/591/230 
f 454/591/230 447/579/230 446/578/230 
f 447/580/231 454/592/231 455/593/231 
f 455/593/231 448/581/231 447/580/231 
f 448/581/232 455/593/232 456/594/232 
f 456/594/232 449/582/232 448/581/232 
f 449/583/233 456/595/233 457/596/233 
f 457/596/233 450/584/233 449/583/233 
f 450/584/234 457/596/234 451/597/234 
f 451/597/234 444/598/234 450/584/234 
f 451/587/235 458/599/235 459/600/235 
f 459/600/235 452/588/235 451/587/235 
f 452/589/236 459/601/236 460/602/236 
f 460/602/236 453/590/236 452/589/236 
f 453/590/237 460/602/237 461/603/237 
f 461/603/237 454/591/237 453/590/237 
f 454/592/238 461/604/238 462/605/238 
f 462/605/238 455/593/238 454/592/238 
f 455/593/239 462/605/239 463/606/239 
f 463/606/239 456/594/239 455/593/239 
f 456/595/240 463/607/240 464/608/240 
f 464/608/240 457/596/240 456/595/240 
f 457/596/241 464/608/241 458/609/241 
f 458/609/241 451/597/241 457/596/241 
f 458/599/242 465/610/242 466/611/242 
f 466/611/242 459/600/242 458/599/242 
f 459/601/243 466/612/243 467/613/243 
f 467/613/243 460/602/243 459/601/243 
f 460/602/244 467/613/244 468/614/244 
f 468/614/244 461/603/244 460/602/244 
f 461/615/245 468/616/245 469/617/245 
f 469/617/245 462/618/245 461/615/245 
f 462/605/246 469/619/246 470/620/246 
f 470/620/246 463/606/246 462/605/246 
f 463/607/247 470/621/247 471/622/247 
f 471/622/247 464/608/247 463/607/247 
f 464/608/248 471/622/248 465/623/248 
f 465/623/248 458/609/248 464/608/248 
f 465/624/249 472/625/249 473/626/249 
f 473/626/249 466/612/249 465/624/249 
f 466/612/250 473/626/250 474/627/250 
f 474/627/250 467/613/250 466/612/250 
f 467/628/251 474/629/251 475/630/251 
f 475/630/251 468/616/251 467/628/251 
f 468/616/252 475/630/252 476/631/252 
f 476/631/252 469/617/252 468/616/252 
f 469/617/253 476/631/253 477/632/253 
f 477/632/253 470/633/253 469/617/253 
f 470/621/254 477/634/254 478/635/254 
f 478/635/254 471/622/254 470/621/254 
f 471/622/255 478/635/255 472/636/255 
f 472/636/255 465/623/255 471/622/255 
f 472/625/256 479/637/256 480/638/256 
f 480/638/256 473/626/256 472/625/256 
f 473/626/257 480/638/257 481/639/257 
f 481/639/257 474/627/257 473/626/257 
f 474/629/258 481/640/258 482/641/258 
f 482/641/258 475/630/258 474/629/258 
f 475/630/259 482/641/259 483/642/259 
f 483/642/259 476/631/259 475/630/259 
f 476/631/260 483/642/260 484/643/260 
f 484/643/260 477/632/260 476/631/260 
f 477/634/261 484/644/261 485/645/261 
f 485/645/261 478/635/261 477/634/261 
f 478/635/262 485/645/262 479/646/262 
f 479/646/262 472/636/262 478/635/262 
f 479/637/263 486/647/263 487/648/263 
f 487/648/263 480/638/263 479/637/263 
f 480/638/264 487/648/264 488/649/264 
f 488/649/264 481/639/264 480/638/264 
f 481/640/265 488/650/265 489/651/265 
f 489/651/265 482/641/265 481/640/265 
f 482/641/266 489/651/266 490/652/266 
f 490/652/266 483/642/266 482/641/266 
f 483/642/267 490/652/267 491/653/267 
f 491/653/267 484/643/267 483/642/267 
f 484/644/268 491/654/268 492/655/268 
f 492/655/268 485/645/268 484/644/268 
f 485/645/269 492/655/269 486/656/269 
f 486/656/269 479/646/269 485/645/269 
f 486/647/270 493/657/270 494/658/270 
f 494/658/270 487/648/270 486/647/270 
f 487/648/271 494/658/271 495/659/271 
f 495/659/271 488/649/271 487/648/271 
f 488/660/272 495/661/272 496/662/272 
f 496/662/272 489/663/272 488/660/272 
f 489/651/273 496/664/273 497/665/273 
f 497/665/273 490/652/273 489/651/273 
f 490/666/274 497/667/274 498/668/274 
f 498/668/274 491/654/274 490/666/274 
f 491/654/275 498/668/275 499/669/275 
f 499/669/275 492/655/275 491/654/275 
f 492/670/276 499/671/276 493/672/276 
f 493/672/276 486/673/276 492/670/276 
f 493/657/277 500/674/277 501/675/277 
f 501/675/277 494/658/277 493/657/277 
f 494/658/278 501/675/278 502/676/278 
f 502/676/278 495/659/278 494/658/278 
f 495/661/279 502/677/279 503/678/279 
f 503/678/279 496/662/279 495/661/279 
f 496/662/280 503/678/280 504/679/280 
f 504/679/280 497/680/280 496/662/280 
f 497/667/281 504/681/281 505/682/281 
f 505/682/281 498/668/281 497/667/281 
f 498/668/282 505/682/282 506/683/282 
f 506/683/282 499/669/282 498/668/282 
f 499/671/283 506/684/283 500/685/283 
f 500/685/283 493/672/283 499/671/283 
f 500/674/284 507/686/284 508/687/284 
f 508/687/284 501/675/284 500/674/284 
f 501/675/285 508/687/285 509/688/285 
f 509/688/285 502/676/285 501/675/285 
f 502/677/286 509/689/286 510/690/286 
f 510/690/286 503/678/286 502/677/286 
f 503/678/287 510/690/287 511/691/287 
f 511/691/287 504/679/287 503/678/287 
f 504/681/288 511/692/288 512/693/288 
f 512/693/288 505/682/288 504/681/288 
f 505/682/289 512/693/289 513/694/289 
f 513/694/289 506/683/289 505/682/289 
f 506/684/290 513/695/290 507/696/290 
f 507/696/290 500/685/290 506/684/290 
f 507/696/291 514/697/291 515/698/291 
f 515/698/291 508/699/291 507/696/291 
f 508/687/292 515/700/292 516/701/292 
f 516/701/292 509/688/292 508/687/292 
f 509/689/293 516/702/293 517/703/293 
f 517/703/293 510/690/293 509/689/293 
f 510/690/294 517/703/294 518/704/294 
f 518/704/294 511/691/294 510/690/294 
f 511/692/295 518/705/295 519/706/295 
f 519/706/295 512/693/295 511/692/295 
f 512/693/296 519/706/296 520/707/296 
f 520/707/296 513/694/296 512/693/296 
f 513/695/297 520/708/297 514/697/297 
f 514/697/297 507/696/297 513/695/297 
f 514/709/298 521/710/298 522/711/298 
f 522/711/298 515/712/298 514/709/298 
f 515/700/299 522/713/299 523/714/299 
f 523/714/299 516/701/299 515/700/299 
f 516/702/300 523/715/300 524/716/300 
f 524/716/300 517/703/300 516/702/300 
f 517/703/301 524/716/301 525/717/301 
f 525/717/301 518/704/301 517/703/301 
f 518/705/302 525/718/302 526/719/302 
f 526/719/302 519/706/302 518/705/302 
f 519/706/303 526/719/303 527/720/303 
f 527/720/303 520/707/303 519/706/303 
f 520/708/304 527/721/304 521/722/304 
f 521/722/304 514/697/304 520/708/304 
f 521/710/305 409/516/305 412/519/305 
f 412/519/305 522/711/305 521/710/305 
f 522/713/306 412/520/306 414/523/306 
f 414/523/306 523/714/306 522/713/306 
f 523/714/307 414/523/307 416/525/307 
f 416/525/307 524/723/307 523/714/307 
f 524/716/308 416/724/308 418/725/308 
f 418/725/308 525/717/308 524/716/308 
f 525/718/309 418/529/309 420/531/309 
f 420/531/309 526/719/309 525/718/309 
f 526/719/310 420/531/310 422/533/310 
f 422/533/310 527/720/310 526/719/310 
f 527/726/311 422/534/311 409/516/311 
f 409/516/311 521/710/311 527/726/311 
f 528/516/193 529/517/193 530/518/193 
f 530/518/193 531/519/193 528/516/193 
f 531/520/194 530/521/194 532/522/194 
f 532/522/194 533/523/194 531/520/194 
f 533/523/195 532/522/195 534/524/195 
f 534/524/195 535/525/195 533/523/195 
f 535/526/196 534/527/196 536/528/196 
f 536/528/196 537/529/196 535/526/196 
f 537/529/197 536/528/197 538/530/197 
f 538/530/197 539/531/197 537/529/197 
f 539/531/198 538/530/198 540/532/198 
f 540/532/198 541/533/198 539/531/198 
f 528/516/199 541/534/199 540/535/199 
f 540/535/199 529/517/199 528/516/199 
f 529/517/200 542/536/200 543/537/200 
f 543/537/200 530/518/200 529/517/200 
f 530/521/201 543/538/201 544/539/201 
f 544/539/201 532/522/201 530/521/201 
f 532/522/202 544/539/202 545/540/202 
f 545/540/202 534/524/202 532/522/202 
f 534/524/203 545/540/203 546/541/203 
f 546/541/203 536/542/203 534/524/203 
f 536/528/204 546/543/204 547/544/204 
f 547/544/204 538/530/204 536/528/204 
f 538/530/205 547/544/205 548/545/205 
f 548/545/205 540/532/205 538/530/205 
f 540/535/206 548/546/206 542/536/206 
f 542/536/206 529/517/206 540/535/206 
f 542/536/207 549/547/207 550/548/207 
f 550/548/207 543/537/207 542/536/207 
f 543/538/208 550/549/208 551/550/208 
f 551/550/208 544/539/208 543/538/208 
f 544/539/209 551/550/209 552/551/209 
f 552/551/209 545/540/209 544/539/209 
f 545/552/210 552/553/210 553/554/210 
f 553/554/210 546/555/210 545/552/210 
f 546/543/211 553/556/211 554/557/211 
f 554/557/211 547/544/211 546/543/211 
f 547/544/212 554/557/212 555/558/212 
f 555/558/212 548/545/212 547/544/212 
f 548/546/213 555/559/213 549/547/213 
f 549/547/213 542/536/213 548/546/213 
f 549/560/214 556/561/214 557/562/214 
f 557/562/214 550/563/214 549/560/214 
f 550/549/215 557/564/215 558/565/215 
f 558/565/215 551/550/215 550/549/215 
f 551/550/216 558/565/216 559/566/216 
f 559/566/216 552/551/216 551/550/216 
f 552/553/217 559/567/217 560/568/217 
f 560/568/217 553/554/217 552/553/217 
f 553/554/218 560/568/218 561/569/218 
f 561/569/218 554/570/218 553/554/218 
f 554/557/219 561/571/219 562/572/219 
f 562/572/219 555/558/219 554/557/219 
f 555/559/220 562/573/220 556/574/220 
f 556/574/220 549/547/220 555/559/220 
f 556/561/221 563/575/221 564/576/221 
f 564/576/221 557/562/221 556/561/221 
f 557/564/222 564/577/222 565/578/222 
f 565/578/222 558/565/222 557/564/222 
f 558/565/223 565/578/223 566/579/223 
f 566/579/223 559/566/223 558/565/223 
f 559/567/224 566/580/224 567/581/224 
f 567/581/224 560/568/224 559/567/224 
f 560/568/225 567/581/225 568/582/225 
f 568/582/225 561/569/225 560/568/225 
f 561/571/226 568/583/226 569/584/226 
f 569/584/226 562/572/226 561/571/226 
f 562/585/227 569/586/227 563/575/227 
f 563/575/227 556/561/227 562/585/227 
f 563/575/228 570/587/228 571/588/228 
f 571/588/228 564/576/228 563/575/228 
f 564/577/229 571/589/229 572/590/229 
f 572/590/229 565/578/229 564/577/229 
f 565/578/230 572/590/230 573/591/230 
f 573/591/230 566/579/230 565/578/230 
f 566/580/231 573/592/231 574/593/231 
f 574/593/231 567/581/231 566/580/231 
f 567/581/232 574/593/232 575/594/232 
f 575/594/232 568/582/232 567/581/232 
f 568/583/233 575/595/233 576/596/233 
f 576/596/233 569/584/233 568/583/233 
f 569/584/234 576/596/234 570/597/234 
f 570/597/234 563/598/234 569/584/234 
f 570/587/235 577/599/235 578/600/235 
f 578/600/235 571/588/235 570/587/235 
f 571/589/236 578/601/236 579/602/236 
f 579/602/236 572/590/236 571/589/236 
f 572/590/237 579/602/237 580/603/237 
f 580/603/237 573/591/237 572/590/237 
f 573/592/238 580/604/238 581/605/238 
f 581/605/238 574/593/238 573/592/238 
f 574/593/239 581/605/239 582/606/239 
f 582/606/239 575/594/239 574/593/239 
f 575/595/240 582/607/240 583/608/240 
f 583/608/240 576/596/240 575/595/240 
f 576/596/241 583/608/241 577/609/241 
f 577/609/241 570/597/241 576/596/241 
f 577/599/242 584/610/242 585/611/242 
f 585/611/242 578/600/242 577/599/242 
f 578/601/243 585/612/243 586/613/243 
f 586/613/243 579/602/243 578/601/243 
f 579/602/244 586/613/244 587/614/244 
f 587/614/244 580/603/244 579/602/244 
f 580/615/245 587/616/245 588/617/245 
f 588/617/245 581/618/245 580/615/245 
f 581/605/246 588/619/246 589/620/246 
f 589/620/246 582/606/246 581/605/246 
f 582/607/247 589/621/247 590/622/247 
f 590/622/247 583/608/247 582/607/247 
f 583/608/248 590/622/248 584/623/248 
f 584/623/248 577/609/248 583/608/248 
f 584/624/249 591/625/249 592/626/249 
f 592/626/249 585/612/249 584/624/249 
f 585/612/250 592/626/250 593/627/250 
f 593/627/250 586/613/250 585/612/250 
f 586/628/251 593/629/251 594/630/251 
f 594/630/251 587/616/251 586/628/251 
f 587/616/252 594/630/252 595/631/252 
f 595/631/252 588/617/252 587/616/252 
f 588/617/253 595/631/253 596/632/253 
f 596/632/253 589/633/253 588/617/253 
f 589/621/254 596/634/254 597/635/254 
f 597/635/254 590/622/254 589/621/254 
f 590/622/255 597/635/255 591/636/255 
f 591/636/255 584/623/255 590/622/255 
f 591/625/256 598/637/256 599/638/256 
f 599/638/256 592/626/256 591/625/256 
f 592/626/257 599/638/257 600/639/257 
f 600/639/257 593/627/257 592/626/257 
f 593/629/258 600/640/258 601/641/258 
f 601/641/258 594/630/258 593/629/258 
f 594/630/259 601/641/259 602/642/259 
f 602/642/259 595/631/259 594/630/259 
f 595/631/260 602/642/260 603/643/260 
f 603/643/260 596/632/260 595/631/260 
f 596/634/261 603/644/261 604/645/261 
f 604/645/261 597/635/261 596/634/261 
f 597/635/262 604/645/262 598/646/262 
f 598/646/262 591/636/262 597/635/262 
f 598/637/263 605/647/263 606/648/263 
f 606/648/263 599/638/263 598/637/263 
f 599/638/264 606/648/264 607/649/264 
f 607/649/264 600/639/264 599/638/264 
f 600/640/265 607/650/265 608/651/265 
f 608/651/265 601/641/265 600/640/265 
f 601/641/266 608/651/266 609/652/266 
f 609/652/266 602/642/266 601/641/266 
f 602/642/267 609/652/267 610/653/267 
f 610/653/267 603/643/267 602/642/267 
f 603/644/268 610/654/268 611/655/268 
f 611/655/268 604/645/268 603/644/268 
f 604/645/269 611/655/269 605/656/269 
f 605/656/269 598/646/269 604/645/269 
f 605/647/270 612/657/270 613/658/270 
f 613/658/270 606/648/270 605/647/270 
f 606/648/271 613/658/271 614/659/271 
f 614/659/271 607/649/271 606/648/271 
f 607/660/272 614/661/272 615/662/272 
f 615/662/272 608/663/272 607/660/272 
f 608/651/273 615/664/273 616/665/273 
f 616/665/273 609/652/273 608/651/273 
f 609/666/274 616/667/274 617/668/274 
f 617/668/274 610/654/274 609/666/274 
f 610/654/275 617/668/275 618/669/275 
f 618/669/275 611/655/275 610/654/275 
f 611/670/276 618/671/276 612/672/276 
f 612/672/276 605/673/276 611/670/276 
f 612/657/277 619/674/277 620/675/277 
f 620/675/277 613/658/277 612/657/277 
f 613/658/278 620/675/278 621/676/278 
f 621/676/278 614/659/278 613/658/278 
f 614/661/279 621/677/279 622/678/279 
f 622/678/279 615/662/279 614/661/279 
f 615/662/280 622/678/280 623/679/280 
f 623/679/280 616/680/280 615/662/280 
f 616/667/281 623/681/281 624/682/281 
f 624/682/281 617/668/281 616/667/281 
f 617/668/282 624/682/282 625/683/282 
f 625/683/282 618/669/282 617/668/282 
f 618/671/283 625/684/283 619/685/283 
f 619/685/283 612/672/283 618/671/283 
f 619/674/284 626/686/284 627/687/284 
f 627/687/284 620/675/284 619/674/284 
f 620/675/285 627/687/285 628/688/285 
f 628/688/285 621/676/285 620/675/285 
f 621/677/286 628/689/286 629/690/286 
f 629/690/286 622/678/286 621/677/286 
f 622/678/287 629/690/287 630/691/287 
f 630/691/287 623/679/287 622/678/287 
f 623/681/288 630/692/288 631/693/288 
f 631/693/288 624/682/288 623/681/288 
f 624/682/289 631/693/289 632/694/289 
f 632/694/289 625/683/289 624/682/289 
f 625/684/290 632/695/290 626/696/290 
f 626/696/290 619/685/290 625/684/290 
f 626/696/291 633/697/291 634/698/291 
f 634/698/291 627/699/291 626/696/291 
f 627/687/292 634/700/292 635/701/292 
f 635/701/292 628/688/292 627/687/292 
f 628/689/293 635/702/293 636/703/293 
f 636/703/293 629/690/293 628/689/293 
f 629/690/294 636/703/294 637/704/294 
f 637/704/294 630/691/294 629/690/294 
f 630/692/295 637/705/295 638/706/295 
f 638/706/295 631/693/295 630/692/295 
f 631/693/296 638/706/296 639/707/296 
f 639/707/296 632/694/296 631/693/296 
f 632/695/297 639/708/297 633/697/297 
f 633/697/297 626/696/297 632/695/297 
f 633/709/298 640/710/298 641/711/298 
f 641/711/298 634/712/298 633/709/298 
f 634/700/299 641/713/299 642/714/299 
f 642/714/299 635/701/299 634/700/299 
f 635/702/300 642/715/300 643/716/300 
f 643/716/300 636/703/300 635/702/300 
f 636/703/301 643/716/301 644/717/301 
f 644/717/301 637/704/301 636/703/301 
f 637/705/302 644/718/302 645/719/302 
f 645/719/302 638/706/302 637/705/302 
f 638/706/303 645/719/303 646/720/303 
f 646/720/303 639/707/303 638/706/303 
f 639/708/304 646/721/304 640/722/304 
f 640/722/304 633/697/304 639/708/304 
f 640/710/305 528/516/305 531/519/305 
f 531/519/305 641/711/305 640/710/305 
f 641/713/306 531/520/306 533/523/306 
f 533/523/306 642/714/306 641/713/306 
f 642/714/307 533/523/307 535/525/307 
f 535/525/307 643/723/307 642/714/307 
f 643/716/308 535/724/308 537/725/308 
f 537/725/308 644/717/308 643/716/308 
f 644/718/309 537/529/309 539/531/309 
f 539/531/309 645/719/309 644/718/309 
f 645/719/310 539/531/310 541/533/310 
f 541/533/310 646/720/310 645/719/310 
f 646/726/311 541/534/311 528/516/311 
f 528/516/311 640/710/311 646/726/311 
# 714 faces

